<svg fill="none" height="16" viewBox="0 0 16 16" width="16" xmlns="http://www.w3.org/2000/svg"><path clip-rule="evenodd" d="m8.00024 0c-4.4 0-7.99999586 3.6-7.99999586 8s3.59999586 8 7.99999586 8c4.39996 0 7.99996-3.6 7.99996-8s-3.6-8-7.99996-8zm2.19996 7.4s-.2-.6-.29996-.8c1.69996-.8 2.79996-1.7 3.19996-2.2.7.9 1.1 2 1.2 3.2-.8-.2-2.6-.5-4.1-.2zm-2.48818-4.49411c.41665.62254.91959 1.37401 1.38822 2.19411 1.59996-.7 2.39996-1.5 2.79996-2-1.3-1.2-2.99996-1.8-4.89996-1.3.16569.28995.41716.66569.71178 1.10589zm-2.61178-.40589c.4.5 1.2 1.7 2 3.2-2.2.5-4.2.6-5.1.6.4-1.6 1.6-3 3.1-3.8zm3.2 5.3c-.1-.1-.2-.3-.3-.5-2.18656.56689-4.30754.74027-5.51314.83883-.28309.02314-.51571.04215-.68686.06117 0 1.3.5 2.6 1.3 3.7.6-.9 2.4-3.2 5.2-4.1zm.7 1.7c.7 2 1.09996 3.6 1.19996 4.4-2.09996.7-4.49996.3-5.79996-.8.4-.7 1.7-2.5 4.6-3.6zm2.79286 2.9606c.039.1616.0744.3085.1071.4394 1.1-.9 1.9-2.2 2.2-3.7-.6-.2-2.2-.4-3.3-.2.5019 1.4219.7938 2.634.9929 3.4606z" fill="#0c0d15" fill-rule="evenodd"/></svg>