<svg width="16" height="16" viewBox="0 0 16 16" fill="none" xmlns="http://www.w3.org/2000/svg">
<path fill-rule="evenodd" clip-rule="evenodd" d="M7.95055 0C3.57788 0 0.000244141 3.68761 0.000244141 8.19469C0.000244141 11.7799 2.28595 14.8529 5.46608 15.9797C5.86359 16.0821 5.96297 15.7748 5.96297 15.5699C5.96297 15.3651 5.96297 14.8529 5.96297 14.1358C3.77664 14.648 3.27974 13.1115 3.27974 13.1115C2.88223 12.1896 2.38533 11.8823 2.38533 11.8823C1.68968 11.3701 2.48471 11.3701 2.48471 11.3701C3.27974 11.4726 3.67726 12.1896 3.67726 12.1896C4.37291 13.5212 5.56546 13.1115 5.96297 12.9066C6.06235 12.3945 6.26111 11.9847 6.45987 11.7799C4.67105 11.575 2.88223 10.858 2.88223 7.68253C2.88223 6.76062 3.18036 6.04359 3.67726 5.53142C3.57788 5.32655 3.27974 4.50708 3.77664 3.38031C3.77664 3.38031 4.47229 3.17544 5.96297 4.19978C6.55925 3.99491 7.2549 3.89248 7.95055 3.89248C8.6462 3.89248 9.34185 3.99491 9.93813 4.19978C11.4288 3.17544 12.1244 3.38031 12.1244 3.38031C12.5219 4.50708 12.3232 5.32655 12.2238 5.53142C12.7207 6.14602 13.0188 6.86306 13.0188 7.68253C13.0188 10.858 11.1306 11.4726 9.34185 11.6774C9.63999 12.0872 9.93813 12.5993 9.93813 13.3164V15.5699C9.93813 15.7748 10.0375 16.0821 10.5344 15.9797C13.7145 14.8529 16.0002 11.7799 16.0002 8.19469C15.9008 3.68761 12.3232 0 7.95055 0Z" fill="#0C0D15"/>
</svg>
