<svg fill="none" height="16" viewBox="0 0 16 16" width="16" xmlns="http://www.w3.org/2000/svg"><path clip-rule="evenodd" d="m7.95055 0c-4.37267 0-7.95030586 3.68761-7.95030586 8.19469 0 3.58521 2.28570586 6.65821 5.46583586 7.78501.39751.1024.49689-.2049.49689-.4098 0-.2048 0-.717 0-1.4341-2.18633.5122-2.68323-1.0243-2.68323-1.0243-.39751-.9219-.89441-1.2292-.89441-1.2292-.69565-.5122.09938-.5122.09938-.5122.79503.1025 1.19255.8195 1.19255.8195.69565 1.3316 1.8882.9219 2.28571.717.09938-.5121.29814-.9219.4969-1.1267-1.78882-.2049-3.57764-.9219-3.57764-4.09737 0-.92191.29813-1.63894.79503-2.15111-.09938-.20487-.39752-1.02434.09938-2.15111 0 0 .69565-.20487 2.18633.81947.59628-.20487 1.29193-.3073 1.98758-.3073s1.3913.10243 1.98758.3073c1.49067-1.02434 2.18627-.81947 2.18627-.81947.3975 1.12677.1988 1.94624.0994 2.15111.4969.6146.795 1.33164.795 2.15111 0 3.17547-1.8882 3.79007-3.67695 3.99487.29814.4098.59628.9219.59628 1.639v2.2535c0 .2049.09937.5122.59627.4098 3.1801-1.1268 5.4658-4.1998 5.4658-7.78501-.0994-4.50708-3.677-8.19469-8.04965-8.19469z" fill="#0c0d15" fill-rule="evenodd"/></svg>