<svg fill="none" height="16" viewBox="0 0 16 16" width="16" xmlns="http://www.w3.org/2000/svg"><path clip-rule="evenodd" d="m.695896 0h14.509304c.3975 0 .6957.3.795.7v14.6c0 .4-.2981.7-.6956.7h-14.608704c-.397515 0-.69565186-.3-.69565186-.6v-14.7c0-.4.29813686-.7.69565186-.7zm1.704344 13.6h2.3.1v-7.6h-2.4zm1.2-8.6c-.8 0-1.4-.7-1.4-1.4 0-.8.6-1.4 1.4-1.4s1.4.6 1.4 1.4c-.1.7-.7 1.4-1.4 1.4zm7.59996 8.6h2.3v-4.2c0-2-.4-3.6-2.8-3.6-1.09996 0-1.89996.6-2.19996 1.2v-1h-2.3v7.7h2.4v-3.8c0-1 .2-2 1.39996-2 1.2 0 1.2 1.1 1.2 2z" fill="#0c0d15" fill-rule="evenodd"/></svg>