<svg width="16" height="16" viewBox="0 0 16 16" fill="none" xmlns="http://www.w3.org/2000/svg">
<path fill-rule="evenodd" clip-rule="evenodd" d="M8.00049 16C12.4189 16 16.0005 12.4184 16.0005 8C16.0005 3.5816 12.4189 0 8.00049 0C3.58209 0 0.000488281 3.5816 0.000488281 8C0.000488281 12.4184 3.58209 16 8.00049 16ZM6.80068 8H9.06748C9.38574 8 9.69097 7.87357 9.91601 7.64853C10.1411 7.42348 10.2675 7.11826 10.2675 6.8C10.2675 6.48174 10.1411 6.17652 9.91601 5.95147C9.69097 5.72643 9.38574 5.6 9.06748 5.6H6.80068V8ZM5.20068 4H9.06748C9.81009 4 10.5223 4.295 11.0474 4.8201C11.5725 5.3452 11.8675 6.05739 11.8675 6.8C11.8675 7.54261 11.5725 8.2548 11.0474 8.7799C10.5223 9.305 9.81009 9.6 9.06748 9.6H6.80068V12H5.20068V4Z" fill="#0C0D15"/>
</svg>
