<svg fill="none" height="16" viewBox="0 0 16 16" width="16" xmlns="http://www.w3.org/2000/svg"><path clip-rule="evenodd" d="m8.00049 16c4.41841 0 8.00001-3.5816 8.00001-8s-3.5816-8-8.00001-8c-4.4184 0-8.00000172 3.5816-8.00000172 8s3.58160172 8 8.00000172 8zm-1.19981-8h2.2668c.31826 0 .62349-.12643.84853-.35147.22509-.22505.35149-.53027.35149-.84853s-.1264-.62348-.35149-.84853c-.22504-.22504-.53027-.35147-.84853-.35147h-2.2668zm-1.6-4h3.8668c.74261 0 1.45482.295 1.97992.8201s.8201 1.23729.8201 1.9799-.295 1.4548-.8201 1.9799-1.23731.8201-1.97992.8201h-2.2668v2.4h-1.6z" fill="#0c0d15" fill-rule="evenodd"/></svg>