<svg width="16" height="16" viewBox="0 0 16 16" fill="none" xmlns="http://www.w3.org/2000/svg">
<path fill-rule="evenodd" clip-rule="evenodd" d="M-0.000244141 8.00005C-0.000244141 3.58178 3.58164 0 7.9999 0L7.9998 0.000382128C12.4186 0.000382128 16.0001 3.58207 16.0001 8.00005C16.0001 12.4185 12.4186 16 7.9999 16C3.58164 16 -0.000244141 12.4185 -0.000244141 8.00005ZM10.9828 11.7037C11.2178 11.848 11.5254 11.7735 11.6687 11.5385C11.8129 11.3035 11.7384 10.9968 11.5034 10.8525C9.39465 9.56382 6.7806 9.26404 3.73313 9.96027C3.46411 10.0214 3.29664 10.2889 3.35807 10.5573C3.41921 10.8258 3.6867 10.9939 3.95505 10.9328C6.73981 10.2965 9.10442 10.5564 10.9828 11.7037ZM12.6479 9.35988C12.4674 9.65335 12.0833 9.74602 11.79 9.56546C9.63961 8.24368 6.36162 7.86088 3.81808 8.63297C3.48821 8.73261 3.1398 8.54671 3.03968 8.21741C2.94033 7.88754 3.12633 7.5398 3.45563 7.43949C6.36105 6.55792 9.97302 6.98495 12.4425 8.50248C12.7358 8.68303 12.8285 9.06707 12.6479 9.35997V9.35988ZM3.43774 6.16642C5.89951 5.41927 10.1536 5.56008 12.732 7.09156H12.7323C13.0868 7.30268 13.5472 7.18546 13.7574 6.82989C13.9685 6.4748 13.852 6.01558 13.4956 5.80455C10.5271 4.04227 5.82929 3.87652 3.00336 4.7344C2.60776 4.85458 2.38479 5.27234 2.50458 5.66784C2.62438 6.06315 3.04243 6.28632 3.43774 6.16642Z" fill="#0C0D15"/>
</svg>
