<svg fill="none" height="16" viewBox="0 0 16 16" width="16" xmlns="http://www.w3.org/2000/svg"><path clip-rule="evenodd" d="m-.00024414 8.00005c0-4.41827 3.58188414-8.00005 8.00014414-8.00005l-.0001.00038213c4.4188 0 8.0003 3.58168787 8.0003 7.99966787 0 4.41845-3.5815 7.99995-8.0002 7.99995-4.41826 0-8.00014414-3.5815-8.00014414-7.99995zm10.98304414 3.70365c.235.1443.5426.0698.6859-.1652.1442-.235.0697-.5417-.1653-.686-2.10875-1.28868-4.7228-1.58846-7.77027-.89223-.26902.06113-.43649.32863-.37506.59703.06114.2685.32863.4366.59698.3755 2.78476-.6363 5.14937-.3764 7.02775.7709zm1.6651-2.34382c-.1805.29347-.5646.38614-.8579.20558-2.15039-1.32178-5.42838-1.70458-7.97192-.93249-.32987.09964-.67828-.08626-.7784-.41556-.09935-.32987.08665-.67761.41595-.77792 2.90542-.88157 6.51739-.45454 8.98687 1.06299.2933.18055.386.56459.2054.85749zm-9.21016-3.19346c2.46177-.74715 6.71586-.60634 9.29426.92514h.0003c.3545.21112.8149.0939 1.0251-.26167.2111-.35509.0946-.81431-.2618-1.02534-2.9685-1.76228-7.66631-1.92803-10.49224-1.07015-.3956.12018-.61857.53794-.49878.93344.1198.39531.53785.61848.93316.49858z" fill="#0c0d15" fill-rule="evenodd"/></svg>