<svg fill="none" height="16" viewBox="0 0 16 16" width="16" xmlns="http://www.w3.org/2000/svg" xmlns:xlink="http://www.w3.org/1999/xlink"><clipPath id="a"><path d="m.000244 0h16v16h-16z"/></clipPath><g clip-path="url(#a)"><path d="m16.0002 3c-.6.3-1.2.4-1.9.5.7-.4 1.2-1 1.4-1.8-.6.4-1.3.6-2.1.8-.6-.6-1.5-1-2.4-1-1.69996 0-3.19996 1.5-3.19996 3.3 0 .3 0 .5.1.7-2.7-.1-5.2-1.4-6.8-3.4-.299996.5-.399996 1-.399996 1.7 0 1.1.599996 2.1 1.499996 2.7-.5 0-1-.2-1.499996-.4 0 1.6 1.099996 2.9 2.599996 3.2-.3.1-.6.1-.9.1-.2 0-.4 0-.6-.1.4 1.3 1.6 2.3 3.1 2.3-1.1.9-2.5 1.4-4.099996 1.4-.3 0-.5 0-.79999986 0 1.49999586.9 3.19999586 1.5 4.99999586 1.5 5.99996 0 9.29996-5 9.29996-9.3 0-.1 0-.3 0-.4.7-.5 1.3-1.1 1.7-1.8z" fill="#0c0d15"/></g></svg>