<svg fill="none" height="20" viewBox="0 0 20 20" width="20" xmlns="http://www.w3.org/2000/svg"><g clip-rule="evenodd" fill="#565660" fill-rule="evenodd"><path d="m16.5625 4.375c.5178 0 .9375.41973.9375.9375v9.375c0 .5178-.4197.9375-.9375.9375h-13.125c-.51777 0-.9375-.4197-.9375-.9375v-9.375c0-.51777.41973-.9375.9375-.9375zm2.1875.9375c0-1.20812-.9794-2.1875-2.1875-2.1875h-13.125c-1.20812 0-2.1875.97938-2.1875 2.1875v9.375c0 1.2081.97938 2.1875 2.1875 2.1875h13.125c1.2081 0 2.1875-.9794 2.1875-2.1875z"/><path d="m16.1183 5.86629c-.2119-.27247-.6045-.32155-.877-.10964l-5.2413 4.07656-5.24129-4.07656c-.27246-.21191-.66514-.16283-.87706.10964-.21191.27246-.16283.66514.10964.87706l5.625 4.37495c.22569.1756.54171.1756.76741 0l5.625-4.37495c.2725-.21192.3216-.6046.1096-.87706z"/></g></svg>