<svg width="16" height="16" viewBox="0 0 16 16" fill="none" xmlns="http://www.w3.org/2000/svg">
<path fill-rule="evenodd" clip-rule="evenodd" d="M8.00024 0C3.60024 0 0.000244141 3.6 0.000244141 8C0.000244141 12.4 3.60024 16 8.00024 16C12.4002 16 16.0002 12.4 16.0002 8C16.0002 3.6 12.4002 0 8.00024 0ZM10.2002 7.4C10.2002 7.4 10.0002 6.8 9.90024 6.6C11.6002 5.8 12.7002 4.9 13.1002 4.4C13.8002 5.3 14.2002 6.4 14.3002 7.6C13.5002 7.4 11.7002 7.1 10.2002 7.4ZM7.71202 2.90589C8.12867 3.52843 8.63161 4.2799 9.10024 5.1C10.7002 4.4 11.5002 3.6 11.9002 3.1C10.6002 1.9 8.90024 1.3 7.00024 1.8C7.16593 2.08995 7.4174 2.46569 7.71202 2.90589ZM5.10024 2.5C5.50024 3 6.30024 4.2 7.10024 5.7C4.90024 6.2 2.90024 6.3 2.00024 6.3C2.40024 4.7 3.60024 3.3 5.10024 2.5ZM8.30024 7.8C8.20024 7.7 8.10024 7.5 8.00024 7.3C5.81368 7.86689 3.6927 8.04027 2.4871 8.13883C2.20401 8.16197 1.97139 8.18098 1.80024 8.2C1.80024 9.5 2.30024 10.8 3.10024 11.9C3.70024 11 5.50024 8.7 8.30024 7.8ZM9.00024 9.5C9.70024 11.5 10.1002 13.1 10.2002 13.9C8.10024 14.6 5.70024 14.2 4.40024 13.1C4.80024 12.4 6.10024 10.6 9.00024 9.5ZM11.7931 12.4606C11.8321 12.6222 11.8675 12.7691 11.9002 12.9C13.0002 12 13.8002 10.7 14.1002 9.2C13.5002 9 11.9002 8.8 10.8002 9C11.3021 10.4219 11.594 11.634 11.7931 12.4606Z" fill="#0C0D15"/>
</svg>
