<svg width="16" height="16" viewBox="0 0 16 16" fill="none" xmlns="http://www.w3.org/2000/svg">
<path fill-rule="evenodd" clip-rule="evenodd" d="M8.00022 0C5.82754 0 5.55514 0.00920926 4.70185 0.0481422C3.85031 0.0870116 3.26879 0.222229 2.7599 0.420006C2.23383 0.624451 1.78769 0.897997 1.34295 1.34274C0.89821 1.78748 0.624663 2.23363 0.420218 2.7597C0.222441 3.26859 0.0872239 3.8501 0.0483545 4.70164C0.00942164 5.5549 0.000244141 5.82733 0.000244141 8.00002C0.000244141 10.1727 0.00942164 10.4451 0.0483545 11.2984C0.0872239 12.1499 0.222441 12.7314 0.420218 13.2403C0.624663 13.7664 0.89821 14.2125 1.34295 14.6573C1.78769 15.102 2.23383 15.3756 2.7599 15.58C3.26879 15.7778 3.85031 15.913 4.70185 15.9519C5.55514 15.9908 5.82754 16 8.00022 16C10.1729 16 10.4453 15.9908 11.2986 15.9519C12.1501 15.913 12.7316 15.7778 13.2405 15.58C13.7666 15.3756 14.2127 15.102 14.6575 14.6573C15.1022 14.2125 15.3757 13.7664 15.5802 13.2403C15.778 12.7314 15.9132 12.1499 15.9521 11.2984C15.991 10.4451 16.0002 10.1727 16.0002 8.00002C16.0002 5.82733 15.991 5.5549 15.9521 4.70164C15.9132 3.8501 15.778 3.26859 15.5802 2.7597C15.3757 2.23363 15.1022 1.78748 14.6575 1.34274C14.2127 0.897997 13.7666 0.624451 13.2405 0.420006C12.7316 0.222229 12.1501 0.0870116 11.2986 0.0481422C10.4453 0.00920926 10.1729 0 8.00022 0ZM8.00022 1.44147C10.1363 1.44147 10.3893 1.4496 11.2329 1.48809C12.0128 1.52369 12.4364 1.65401 12.7184 1.76354C13.0918 1.90867 13.3583 2.08205 13.6382 2.36198C13.9181 2.64191 14.0915 2.90844 14.2366 3.28183C14.3462 3.56376 14.4765 3.98735 14.5121 4.76731C14.5506 5.61091 14.5587 5.86391 14.5587 8.00002C14.5587 10.1361 14.5506 10.3891 14.5121 11.2327C14.4765 12.0127 14.3462 12.4363 14.2366 12.7182C14.0915 13.0916 13.9181 13.3581 13.6382 13.638C13.3583 13.918 13.0918 14.0914 12.7184 14.2365C12.4364 14.346 12.0128 14.4763 11.2329 14.5119C10.3894 14.5504 10.1364 14.5586 8.00022 14.5586C5.86399 14.5586 5.61099 14.5504 4.76755 14.5119C3.98756 14.4763 3.56397 14.346 3.28207 14.2365C2.90865 14.0914 2.64212 13.918 2.36219 13.638C2.08226 13.3581 1.90887 13.0916 1.76378 12.7182C1.65422 12.4363 1.5239 12.0127 1.4883 11.2327C1.44981 10.3891 1.44168 10.1361 1.44168 8.00002C1.44168 5.86391 1.44981 5.61091 1.4883 4.76735C1.5239 3.98735 1.65422 3.56376 1.76378 3.28183C1.90887 2.90844 2.08226 2.64191 2.36219 2.36198C2.64212 2.08205 2.90865 1.90867 3.28207 1.76354C3.56397 1.65401 3.98756 1.52369 4.76752 1.48809C5.61112 1.4496 5.86412 1.44147 8.00022 1.44147ZM3.8921 8.00002C3.8921 5.73117 5.73138 3.89189 8.00022 3.89189C10.269 3.89189 12.1083 5.73117 12.1083 8.00002C12.1083 10.2689 10.269 12.1081 8.00022 12.1081C5.73138 12.1081 3.8921 10.2689 3.8921 8.00002ZM8.00022 10.6667C6.52747 10.6667 5.33354 9.47277 5.33354 8.00002C5.33354 6.52727 6.52747 5.33333 8.00022 5.33333C9.47297 5.33333 10.6669 6.52727 10.6669 8.00002C10.6669 9.47277 9.47297 10.6667 8.00022 10.6667ZM12.2706 4.68961C12.8008 4.68961 13.2306 4.25979 13.2306 3.72959C13.2306 3.19939 12.8008 2.7696 12.2706 2.7696C11.7404 2.7696 11.3106 3.19939 11.3106 3.72959C11.3106 4.25979 11.7404 4.68961 12.2706 4.68961Z" fill="#0C0D15"/>
</svg>
