<svg width="16" height="16" viewBox="0 0 16 16" fill="none" xmlns="http://www.w3.org/2000/svg">
<path fill-rule="evenodd" clip-rule="evenodd" d="M0.695896 0H15.2052C15.6027 0 15.9009 0.3 16.0002 0.7V15.3C16.0002 15.7 15.7021 16 15.3046 16H0.695896C0.298381 16 0.000244141 15.7 0.000244141 15.4V0.7C0.000244141 0.3 0.298381 0 0.695896 0ZM2.40024 13.6H4.70024H4.80024V6H2.40024V13.6ZM3.60024 5C2.80024 5 2.20024 4.3 2.20024 3.6C2.20024 2.8 2.80024 2.2 3.60024 2.2C4.40024 2.2 5.00024 2.8 5.00024 3.6C4.90024 4.3 4.30024 5 3.60024 5ZM11.2002 13.6H13.5002V9.4C13.5002 7.4 13.1002 5.8 10.7002 5.8C9.60024 5.8 8.80024 6.4 8.50024 7V6H6.20024V13.7H8.60024V9.9C8.60024 8.9 8.80024 7.9 10.0002 7.9C11.2002 7.9 11.2002 9 11.2002 9.9V13.6Z" fill="#0C0D15"/>
</svg>
