<svg width="16" height="16" viewBox="0 0 16 16" fill="none" xmlns="http://www.w3.org/2000/svg">
<g clip-path="url(#clip0)">
<path d="M16.0002 3C15.4002 3.3 14.8002 3.4 14.1002 3.5C14.8002 3.1 15.3002 2.5 15.5002 1.7C14.9002 2.1 14.2002 2.3 13.4002 2.5C12.8002 1.9 11.9002 1.5 11.0002 1.5C9.30024 1.5 7.80024 3 7.80024 4.8C7.80024 5.1 7.80024 5.3 7.90024 5.5C5.20024 5.4 2.70024 4.1 1.10024 2.1C0.800244 2.6 0.700244 3.1 0.700244 3.8C0.700244 4.9 1.30024 5.9 2.20024 6.5C1.70024 6.5 1.20024 6.3 0.700244 6.1C0.700244 7.7 1.80024 9 3.30024 9.3C3.00024 9.4 2.70024 9.4 2.40024 9.4C2.20024 9.4 2.00024 9.4 1.80024 9.3C2.20024 10.6 3.40024 11.6 4.90024 11.6C3.80024 12.5 2.40024 13 0.800244 13C0.500244 13 0.300244 13 0.000244141 13C1.50024 13.9 3.20024 14.5 5.00024 14.5C11.0002 14.5 14.3002 9.5 14.3002 5.2C14.3002 5.1 14.3002 4.9 14.3002 4.8C15.0002 4.3 15.6002 3.7 16.0002 3Z" fill="#0C0D15"/>
</g>
<defs>
<clipPath id="clip0">
<rect width="16" height="16" fill="white" transform="translate(0.000244141)"/>
</clipPath>
</defs>
</svg>
