<svg fill="none" height="11" viewBox="0 0 16 11" width="16" xmlns="http://www.w3.org/2000/svg"><path clip-rule="evenodd" d="m15.4008 4.192c.2768.26939.4687.61381.5523.99088.0835.37707.055.77034-.082 1.13142l-1.0442 2.83685c-.2741.74481-.8988 1.32095-1.6707 1.47135-.3862.0773-.7861.0482-1.1569-.0843-.3709-.1324-.6987-.3632-.9485-.66761l-6.26192-7.50234c-.01557-.01846-.03571-.03251-.05842-.04075-.0227-.00823-.04717-.01036-.07095-.00617-.02379.00419-.04605.01455-.06458.03004-.01852.0155-.03265.03559-.04097.05826l-2.03732 5.51041c-.04227.1139.06985.22424.18109.17886l2.50003-1.02111c.14095-.05713.29218-.08453.44421-.08047.15204.00406.30159.0395.43928.10408.13769.06459.26055.15693.36087.27123.10033.11431.17595.24811.22212.39302.18465.56639-.12591 1.17816-.67273 1.40152l-3.26575 1.33343c-.60466.2469-1.29919.2033-1.843778-.1602-.371122-.248-.647809-.61386-.7853731-1.0385-.1375645-.42464-.1279753-.88325.0272191-1.30177l2.407052-6.50838c.2852-.771505.93479-1.316094 1.73788-1.4566907.39109-.0700865.79379-.03468588 1.16666.1025577.37287.137244.70242.371373.95475.678288l3.59411 4.306885 3.30582-1.35035c.7346-.29988 1.5434-.13926 2.1107.41956zm-1.9065 2.16323c.0418-.1139-.0703-.22424-.1815-.17841l-1.8264.74569 1.0954 1.31298c.0155.01869.0357.03294.0585.04131s.0474.01057.0714.00637c.0239-.0042.0463-.01465.0649-.03029.0186-.01563.0327-.03591.041-.05877l.6763-1.83888z" fill="#101828" fill-rule="evenodd"/></svg>