<svg fill="none" height="27" viewBox="0 0 32 27" width="32" xmlns="http://www.w3.org/2000/svg"><g fill="#101828"><path d="m12.2389 10.3663c-.5369.4827-1.3856.3275-1.9745-.0862-.60627-.41366-1.66285-1.17211-1.61088-1.93056.05196-.70673.86604-1.8444 1.59348-1.96507.4331-.06895.8661.12067 1.1952.4137.3291.29304.5369.67226.7448 1.06873.2078.39646.4157.81016.4676 1.25833.0347.44817-.0866.94807-.4157 1.24107zm6.1316 4.6024c-.7274-4.2749-2.0958-8.42909-4.0357-12.30752-.2598-.51712-.537-1.03424-.918-1.46518-1.2471-1.413471-3.63742-1.603083-5.09238-.413699-.50231.413699-.90069.965299-1.26443 1.516899-1.10854 1.62032-2.13047 3.30959-3.04848 5.03333-1.54156 2.84417-2.87526 5.80907-3.827912 8.89457-.329097 1.0342-.2598154 2.2064.571588 3.051 1.333704 1.3618 2.321004-.655 2.546174-1.7755.20785-.9997.45034-2.0167.96997-2.8959.15588-.2413.3291-.4826.57159-.6205.27713-.1551.62355-.1724.93533-.1551 1.92262.0861 3.79327 1.0859 4.91915 2.6373.7101.9825 1.1258 2.1547 1.7667 3.1717.4157.655.97 1.2755 1.7321 1.4307.4503.1034.918.0172 1.3684-.1034.7448-.2069 1.4896-.5344 2.0092-1.1032 1.1951-1.2411 1.0739-3.2062.7967-4.8955z"/><path d="m20.9513 3.16106c-1.3338 1.18939-2.2691 2.96485-1.9919 4.7403.2944 1.86165 1.836 3.27514 2.5981 4.99884.7621 1.6893.7448 3.7061-.052 5.3781-.5196 1.086-1.3164 2.0168-1.8533 3.1028-.537 1.0859-.7448 2.4477-.0693 3.4474.7275 1.0515 2.1651 1.2928 3.4469 1.3446 1.9399.0689 3.9318-.1379 5.6639-1.017 1.7147-.8792 3.1177-2.5512 3.2909-4.4645.0347-.3448.0174-.7068-.1212-1.0343-.3637-.8619-1.4376-1.1377-2.373-1.3445-.918-.2241-1.9919-.6723-2.1131-1.6031-.1213-.9308.7794-1.6376 1.5069-2.2409.5889-.4826 1.1259-1.0515 1.3857-1.7582s.1559-1.5858-.3984-2.103c-.6062-.5516-1.5242-.5171-2.3556-.5171s-1.7841-.15512-2.1825-.86185c-.3983-.6895-.0519-1.58585.4504-2.2064.7101-.91358 1.7147-1.58584 2.3903-2.5339.6755-.94806.9353-2.37877.1039-3.18893-1.9746-1.965071-5.8545.53436-7.3267 1.86164z"/></g></svg>