<svg fill="none" height="16" viewBox="0 0 16 16" width="16" xmlns="http://www.w3.org/2000/svg"><g fill="#101828"><path d="m9.11188 14.7675c-.36189.059-.7333.0896-1.11188.0896-3.7871 0-6.85714-3.07-6.85714-6.8571s3.07004-6.85714 6.85714-6.85714 6.8571 3.07004 6.8571 6.85714c0 .37858-.0306.74999-.0896 1.11188.3674.35221.6678.77387.88 1.24392.2292-.74479.3525-1.53589.3525-2.3558 0-4.41828-3.5817-8-8-8-4.41828 0-8 3.58172-8 8 0 4.4183 3.58172 8 8 8 .81991 0 1.61101-.1233 2.3558-.3525-.47005-.2122-.89171-.5126-1.24392-.88z"/><path clip-rule="evenodd" d="m12 16c2.2091 0 4-1.7909 4-4 0-2.20914-1.7909-4-4-4-2.20914 0-4 1.79086-4 4 0 2.2091 1.79086 4 4 4z" fill-rule="evenodd"/></g></svg>