<svg fill="none" height="32" viewBox="0 0 22 32" width="22" xmlns="http://www.w3.org/2000/svg"><g fill="#101828"><path d="m1.02071 7.46506c1.05928-.68521 2.60125-1.24667 4.2541-1.62055 2.76623-.65771 5.56649-1.16348 8.38819-1.51503 2.3808-.28529 2.6599-1.50201 2.6599-1.50201s.4905-2.193735-1.1545-2.657494-5.27553.11594-7.77894.609661c-1.80157.354333-5.61864 1.336563-6.715759 3.138193-1.097116 1.80162.130454 3.33229.130454 3.33229s-.010437-.01042.216555.21494z"/><path d="m4.91244 11.8474c1.6959-.4873 4.7146-1.0422 5.97086-1.222.9575-.1302 4.8581-.69301 6.6858-.89492 1.3045-.1446 2.3925-.1902 3.5483-.78162s1.0241-2.90631-.0952-3.45344-4.352-.05993-7.0445.31525c-2.1995.30613-7.0367 1.1594-9.35878 1.77687-1.65676.44292-3.45703 1.14507-4.297149 2.83336-.840122 1.6883.734459 3.2307.734459 3.2307 1.46238-1.1855 2.9326-1.5385 3.85621-1.8042z"/><path d="m20.8539 11.0956c-.8206-.1967-5.62.5472-7.882.809-2.2621.2619-7.64852 1.2584-9.32224 1.9085-1.6072.6292-2.726488 1.4433-2.82172 3.06-.095231 1.6166.81273 2.5194 1.90463 2.7109 1.09189.1915 1.76243 1.855 1.76243 1.855s1.9568-.1185 2.36251-.1185c.04827-.3087-.03-1.8016-.81533-2.5676-.93666-.9119-3.57183-.0717-3.57183-.0717.17434-.2595.43495-.4492.73576-.5354 1.04363-.4572 11.92739-1.9618 13.56719-2.1989s3.457-.4312 4.4811-1.5242c1.0241-1.0929.664-3.0717-.4005-3.3271z"/><path d="m15.9358 21.3205h3.6527c.068.0008.1271-.0468.1409-.1133.0848-.4169.3704-1.9046.3626-2.9624 0-.766.2022-1.3574-.4279-1.657-.0304-.0147-.065-.0183-.0978-.0104-1.0619.2605-4.5659.7894-7.0106 1.0604-.0676.0082-.1203.0624-.1266.1302-.0063.0677.0356.1306.1005.1512l2.87.9288c.0544.0189.1148.0029.1526-.0404.2177-.2529.4145-.523.5884-.8077-.1868 1.0459-.3036 2.1029-.3496 3.1643-.0025.0401.0115.0795.0389.1091.0273.0295.0656.0466.1059.0472z"/><path d="m4.65842 22.2481c-.98634 0-1.78592.7984-1.78592 1.7834 0 .9849.79958 1.7833 1.78592 1.7833h.50485c.00982.0908.04408.1773.09915.2502l1.51326 2.8802c.0969.1285.24853.2042.40963.2045h9.38219c.1611-.0003.3128-.076.4097-.2045l1.5132-2.8802c.0552-.0729.0894-.1593.0992-.2502h.5022c.9864 0 1.7859-.7984 1.7859-1.7833 0-.985-.7995-1.7834-1.7859-1.7834z"/><path d="m14.6498 29.9691h-5.3121c-.06995-.0001-.13305.042-.15967.1065-.02662.0646-.01147.1389.03835.1879l1.40112 1.3822c.2295.2268.5393.3541.8622.3543h1.1441c.3414.0004.6676-.1412.9002-.3908l1.2523-1.3496c.0477-.05.0608-.1237.0332-.1871s-.0905-.1041-.1597-.1034z"/></g></svg>