<svg fill="none" height="16" viewBox="0 0 12 16" width="12" xmlns="http://www.w3.org/2000/svg"><path d="m6.16901 14.4509c2.57227 0 4.49499-2.5189 5.47749-5.17044.0144-.03874.0674-.03293.0714.0082.0203.21258.0427.62811-.0185 1.13444-.1022.8454-.4041 1.4908-.4041 1.4908-1.1425 2.2002-3.26038 4.0861-5.68507 4.0861-3.55473 0-5.61023-2.512-5.61023-6.67789 0-5.23605 4.08606-9.32211 8.14718-9.32211 2.45712 0 3.84662 1.25226 3.84662 2.96352 0 1.71125-1.2573 2.96601-2.32495 2.96601-.26692 0-.40162-.15965-.40162-.3218 0-.52884.77577-1.17493.77577-2.56439 0-1.14749-.56124-1.89585-1.73617-1.89585-2.45713 0-5.76988 3.68693-5.76988 8.19956 0 3.12565 1.25476 5.10385 3.63206 5.10385z" fill="#101828"/></svg>