<svg fill="none" height="15" viewBox="0 0 16 15" width="16" xmlns="http://www.w3.org/2000/svg"><g fill="#101828"><path d="m11.1618 6.00421-3.0389-1.75447c-.07605-.04392-.16979-.04392-.24584 0l-3.03892 1.75447c-.07598.04392-.12291.12505-.12291.21289v3.50894c0 .08778.04693.16897.12291.21296l3.03892 1.7545c.07605.0439.16979.0439.24584 0l3.0389-1.7545c.076-.04393.1229-.12512.1229-.21296v-3.50894c-.0001-.08784-.047-.16897-.1229-.21289z" opacity=".4"/><path d="m.098939 7.60242 3.630851-6.31664c.13189-.22839.37553-.396864.63924-.396864h7.26187c.2637 0 .5074.168474.6393.396864l3.6309 6.30271c.1319.22845.1319.51676 0 .74522l-3.6309 6.26489c-.1319.2284-.3756.3451-.6393.3451h-7.2618c-.26372 0-.50742-.1132-.63925-.3417l-3.6308479-6.27507c-.1320149-.22833-.1320154-.49612-.0000631-.72451zm3.006541 3.03748c0 .0929.05591.1788.13641.2252l4.62491 2.6684c.08044.0464.18121.0464.26165 0l4.62845-2.6684c.0805-.0464.1368-.1323.1368-.2252v-5.33676c0-.09293-.0555-.17876-.136-.22526l-4.62473-2.66834c-.08044-.0465-.18108-.0465-.26152 0l-4.62881 2.66834c-.0805.0465-.13716.13233-.13716.22526z"/></g></svg>