<svg fill="none" height="32" viewBox="0 0 32 32" width="32" xmlns="http://www.w3.org/2000/svg"><path d="m16.2276 19.0197v-4.3716h14.7318c.144.7619.2183 1.6632.2183 2.6388 0 3.2799-.8966 7.3356-3.7863 10.2253-2.8107 2.9268-6.4019 4.4878-11.1591 4.4878-8.81767 0-16.2323-7.1823-16.2323-16 0-8.81765 7.41463-16 16.2323-16 4.878 0 8.3531 1.91405 10.964 4.40883l-3.0848 3.08478c-1.8722-1.7561-4.4088-3.12195-7.8839-3.12195-6.43898 0-11.47499 5.18932-11.47499 11.62834 0 6.439 5.03601 11.6283 11.47499 11.6283 4.1766 0 6.5552-1.6771 8.079-3.2009 1.2358-1.2358 2.0488-3.0011 2.3694-5.4123z" fill="#101828"/></svg>