<svg fill="none" height="32" viewBox="0 0 32 32" width="32" xmlns="http://www.w3.org/2000/svg" xmlns:xlink="http://www.w3.org/1999/xlink"><linearGradient id="a"><stop offset=".14" stop-color="#101828" stop-opacity=".01"/><stop offset="1" stop-color="#101828" stop-opacity=".5"/></linearGradient><linearGradient id="b" gradientUnits="userSpaceOnUse" x1="27.1199" x2="18.3191" xlink:href="#a" y1="-2.0695" y2="30.7622"/><linearGradient id="c" gradientUnits="userSpaceOnUse" x1="5.02888" x2="13.8295" xlink:href="#a" y1="34.0697" y2="1.23781"/><clipPath id="d"><path d="m0 0h32v32h-32z"/></clipPath><g clip-path="url(#d)"><path d="m16.1555 0c-.0156 0-.0311.0155491-.0311.0310982 0 .015549.0155.0310981.0311.0310981 1.0573 0 2.1146.1088437 3.1564.3420797 6.655 1.710394 10.6667 8.489794 8.9563 15.144824-1.415 5.5199-6.4062 9.3605-12.0972 9.345-1.9592-.0467-3.5918 1.5238-3.6229 3.483-.0467 1.9592 1.5238 3.5918 3.483 3.6229h.1555c8.8318 0 16-7.1681 16-16 0-8.83188-7.1993-16-16.0311-16z" fill="url(#b)"/><path d="m16.0777 32c1.9665 0 3.5607-1.5942 3.5607-3.5607 0-1.9666-1.5942-3.5608-3.5607-3.5608s-3.5607 1.5942-3.5607 3.5608c0 1.9665 1.5942 3.5607 3.5607 3.5607z" fill="#101828"/><path d="m16 32c.0156 0 .0311-.0155.0311-.0311 0-.0155-.0155-.0311-.0311-.0311-1.0573 0-2.1147-.1088-3.1565-.3421-6.65497-1.7104-10.66663-8.4898-8.95623-15.1448 1.41497-5.5199 6.40623-9.36052 12.09723-9.34497 1.9747.04665 3.6073-1.50826 3.6384-3.483.0311-1.97473-1.5082-3.5762828-3.4674-3.62293-.0467 0-.0933 0-.1555 0-8.83187 0-16 7.16812-16 16 0 8.8319 7.16813 16 16 16z" fill="url(#c)"/><path d="m16.0777 7.12148c1.9665 0 3.5607-1.5942 3.5607-3.56074s-1.5942-3.56074-3.5607-3.56074-3.5607 1.5942-3.5607 3.56074 1.5942 3.56074 3.5607 3.56074z" fill="#101828"/></g></svg>