<svg fill="none" height="16" viewBox="0 0 16 16" width="16" xmlns="http://www.w3.org/2000/svg"><g fill="#101828"><path d="m12.1604 12.5217h-8.34784c-1.72605 0-3.130431-1.4043-3.130431-3.1304 0-1.34952.879581-2.54551 2.136211-2.96722-.03329-.17782-.04925-.34494-.04925-.51104 0-1.06725.54738-2.04942 1.44531-2.62381-.03652-.17697-.05401-.34205-.05401-.50662 0-1.53431 1.2483-2.78261 2.78261-2.78261 1.27021 0 2.37703.882814 2.68648 2.09698 1.60902.12856 2.87872 1.47894 2.87872 3.12041 0 .35853-.063.70907-.1877 1.04756 1.6519.08372 2.9703 1.45397 2.9703 3.12635 0 1.7261-1.4044 3.1304-3.1304 3.1304z" opacity=".8"/><path d="m9.47969 8.44975-1.14538 1.14538v-4.0299c0-.19208-.15574-.34782-.34782-.34782-.19209 0-.34783.15574-.34783.34782v2.29077l-1.14538-1.14538c-.13586-.13587-.35598-.13587-.49184 0-.13587.13587-.13587.35598 0 .49185l1.63722 1.63723v6.8125c0 .1921.15574.3478.34783.3478.19208 0 .34782-.1557.34782-.3478v-5.0734l1.63723-1.6372c.13586-.13587.13586-.35598 0-.49185-.13587-.13587-.35598-.13587-.49185 0z"/></g></svg>