<svg fill="none" height="12" viewBox="0 0 32 12" width="32" xmlns="http://www.w3.org/2000/svg"><path d="m3.52984 11.4c-.95347-.0379-1.73355-.2988-2.34351-.7834-.1164-.0925-.393792-.3701-.486851-.4871-.247347-.31107-.415511-.61376-.527676-.9496-.34514-1.03379-.16751057-2.39036.508083-3.87917.578444-1.27461 1.471014-2.53878 3.028234-4.28963.22939-.257633.91249-1.0111.9169-1.0111.00165 0-.03559.064488-.08245.143022-.40489.678201-.75134 1.477058-.94008 2.168648-.30318 1.10971-.26661 2.06204.1071 2.80048.2578.50874.69976.94939 1.19674 1.19298.87004.42629 2.14383.46155 3.69942.10319.1071-.02482 5.41415-1.43363 11.79365-3.13077 6.3794-1.69731 11.5998-3.084898 11.6006-3.083755.0018.001469-14.8212 6.344315-22.51605 9.634925-1.21861.52098-1.54449.65258-2.11738.85368-1.46449.5143-2.77632.7597-3.83673.7176z" fill="#101828"/></svg>