<svg fill="none" height="16" viewBox="0 0 14 16" width="14" xmlns="http://www.w3.org/2000/svg"><path clip-rule="evenodd" d="m3.29787 0c1.34536 0 2.50881.80776 3.00868 1.9644.11371-.00579.23837-.00877.37498-.00877.79701-.00724 1.44186.62291 1.45635 1.4124l-1.57191.02381.00188 1.38859 7.38095-.00724c0 4.11407-3.2605 7.48931-7.36146 7.71391h-.02173v3.5129c-3.59378 0-6.5137301-3.0439-6.5137301-6.79586v-5.95924c0-1.78904 1.4563501-3.2449 3.2459901-3.2449zm.84048 3.10728c.34414 0 .62312-.27888.62312-.6229 0-.34403-.27898-.62291-.62312-.62291-.34413 0-.62311.27888-.62311.62291 0 .34402.27898.6229.62311.6229z" fill="#101828" fill-rule="evenodd"/></svg>