<svg fill="none" height="25" viewBox="0 0 32 25" width="32" xmlns="http://www.w3.org/2000/svg"><g clip-rule="evenodd" fill="#101828" fill-rule="evenodd"><path d="m27.2666 3.23071-27.2666 17.90219s4.45681-1.4157 11.7105-4.5264c3.325-1.4249 6.5194-1.6506 7.7314.5084 1.6759 2.9832-.7811 6.1609-4.166 7.41 5.7781-.9665 10.1861-6.0487 10.1861-12.1781 0-1.9094-.4311-3.71549-1.1956-5.32789 2.2002-2.29448 3.0002-3.7882 3.0002-3.7882z"/><path d="m28.223 2.69902c.4895.76151.8622 1.56511 1.1273 2.38968.0608-.29018.483-2.32617.483-2.32617 1.6782-1.10925 2.1669-2.56192 2.1669-2.56192s-1.5085-.13133-3.1867.97807c-.0129.00833-2.0073-.42538-2.2957-.48859.6387.57798 1.2137 1.24787 1.7052 2.00893z"/><path d="m7.08575 11.9256c3.71965-.6358 12.15255-6.00992 15.72635-7.25407-2.2312-2.84391-5.6694-4.67153-9.5322-4.67153-2.82 0-5.44716.92958-7.47708 2.60252-2.66171 2.19291-3.48544 5.46789-2.80641 7.45078.40754 1.1925 1.4024 2.3318 4.08934 1.8723z"/></g></svg>