<svg fill="none" height="32" viewBox="0 0 32 32" width="32" xmlns="http://www.w3.org/2000/svg"><g clip-rule="evenodd" fill="#101828" fill-rule="evenodd"><path d="m22.8681 25.8593c-2.5692-.0255-9.5602-.6433-13.38747-.6831-2.11188-.0218-4.2228.1005-6.31803.366.31299.4181.64333.8208.99404 1.2051 1.23873.0123 4.73367.1591 11.22506 1.2622 5.3963.9155 8.4009 1.0613 9.8568 1.0471 1.4724-1.0434 2.7587-2.3273 3.8049-3.7978-1.4722.2641-4.2097.6209-6.1753.6005zm-7.6628 2.5652c-5.78482-1.0298-9.18598-1.2826-10.7326-1.3377 1.49116 1.5531 3.28122 2.7883 5.26237 3.6312 1.98113.843 4.11243 1.2763 6.26543 1.2738 3.1259 0 6.0417-.8962 8.507-2.4469-1.6099-.0397-4.5165-.2681-9.3022-1.1204z"/><path d="m9.47654 24.8398c2.10376 0 5.16506.1648 7.92236.3132 2.2591.1216 4.3142.2323 5.4712.2323 2.1767 0 5.2903-.47 6.5933-.7463 1.6605-2.5782 2.5413-5.581 2.5366-8.6477 0-1.4334-.1897-2.8231-.5434-4.1454l-8.5722 2.1879.9216-1.7424c2.0268-.318 4.6114-.9665 7.0389-2.2766-.1858-.45973-.3923-.91082-.6189-1.35186-2.0809 1.03381-3.9323 1.50886-5.4025 1.70566l1.3376-2.53046 3.4593-.24163c-.3028-.48937-.629-.96142-.9818-1.41409h-3.9966l1.5732-2.50396c-.3263-.27017-.6627-.52812-1.0094-.7728l-3.2135 4.47471-.9359-1.85452.1549-.65556 3.0464-2.58349c-.3324-.20085-.6729-.38946-1.0195-.56686l-3.2279 1.73321-1.6588-3.287984c-.4801-.0707198-.9631-.1197121-1.4477-.1468168l1.7628 4.5307908-.5159.46592-2.609-5.01506c-.1529.00407812-.3048.0112114-.4577.0203872l-1.9993 4.2106628-2.0748-3.441932c-.6729.221242-1.32843.484272-1.95952.789112l-.09584 2.77516-2.95459-.84825c-.61172.48937-1.1847 1.02361-1.71894 1.59658l3.57039 4.3799-.99606.07239-3.20643-3.7325c-.38844.47204-.75037.96652-1.08477 1.48138l1.99112 2.4173-3.37871.24571c-.779482 1.9138-1.17907938 3.961-1.17652967 6.0275-.00533191 3.3377 1.03818967 6.5927 2.98313967 9.3052.75445-.1162 3.2992-.4588 6.49338-.4588zm14.00626-16.81609.8707-.06118-1.5191 2.52537c-.2901-.0046-.5799-.0216-.8686-.051zm-1.8851 4.51859-1.2948 2.1491-1.2051.3079 1.513-2.4091c.2498-.0061.5822-.0194.9869-.0479zm-1.5099-4.33814.4608 1.18469-2.6171 3.64275-.1071-3.25226zm-2.4469 8.69044 5.2353-1.3019.7412 1.0827 1.3856-.0713-.362-1.4508 2.0452-.5098c.3568.5098 1.2826 1.7373 2.2521 2.2511l1.093-.5097s-1.0134-1.252-1.3142-2.2471l1.7566-.4363c.1214.7605.1856 1.5405.1856 2.3347 0 2.9566-.8778 5.7114-2.3898 8.0104-3.4113-.0856-6.8339-.5036-10.2534-.992-.7198-3.0535-.3752-6.16-.3752-6.16zm-1.5711-6.1579.0296 1.5354-.7188-.0418-.2508-1.0715zm-8.98101.3038 2.31434-.0765.80237.6831-2.26029 1.8219-2.15631-.8156zm-2.53862.0836-.61477.8289-1.96566-.7433zm-2.33166 1.6506.81663.3905-1.12861 1.5221c.06117-.6504.16618-1.2886.31198-1.9126zm-.37417 3.1422.7626.0296h.53016l1.58946-1.9718 1.83616.8788-.87578 1.2143 2.06252.0795 3.91494-3.2625.99 1.1042-3.94251 2.196 3.28391.1275 2.039-.784.7565.8451-.1926 6.1804c-3.9324-.5791-7.85348-1.1265-11.74095-1.2407-.67231-1.6788-1.017-3.4708-1.01545-5.2792-.00122-.0225-.00026-.0457.00071-.0692.00066-.0159.00133-.032.00133-.048zm8.80666-9.37661 1.3764.44145-1.2387 2.11451zm1.4702 4.33711.7402-1.70775.4068 2.84145zm4.0679-2.43671-1.3478.98079-.7728-3.03514 1.3855-3.19419 1.2092 2.54882zm-5.691-4.73877.7524 1.32437-.6861-.08564zm-4.1556 1.45792 2.3959.76771.12131 1.72199z"/></g></svg>