<svg fill="none" height="29" viewBox="0 0 32 29" width="32" xmlns="http://www.w3.org/2000/svg"><path d="m28.8969 12.107c-1.8602 1.8756-5.5963 5.6059-5.5963 5.6059s.0493 2.9105-.5999 4.1862c-1.3693 2.7171-6.2374 6.5072-6.2374 6.5072l-.8352-.9086s2.5311-2.8275 2.2358-4.7046l-1.4365-9.4162c-1.4557 1.5157-2.9618 3.1875-4.5496 4.9782.0889 1.1496.042 2.3149-.4814 3.3446-1.3371 2.6247-6.06782 6.4748-6.06782 6.4748l-.80651-.8761s1.51451-1.5029 1.90341-2.5013c.17998-.4488.22433-.9433.25211-1.3693.13096-1.859-1.57684-10.5696-2.83948-17.06114-.41878-2.13755-1.30699-2.19147-1.955-2.01266-.57005.162-1.724609.57378-1.724609.57378l-.158501-.82449 9.13051-3.738434 2.43029 15.333044 4.5272-4.4658-.719-4.57132c-.1139-.75492-.3973-1.5759-1.3777-1.71853-.8735-.11882-2.4158.60949-2.4158.60949l-.3973-.98649 9.3394-4.234008 2.4662 14.950258s3.16-3.2391 3.3808-3.4889c.5773-.6361.4849-1.90577-.0564-4.59632-.1585-1.26871-.3684-2.6476-1.212-2.91278-.9375-.28922-2.53.42485-2.53.42485l-.3382-.95288 8.493-3.75547s1.2771 5.32018 1.1403 5.32018c.3756 2.72323-.0647 3.32805-.6863 4.24965-.6314.95167-2.2781 2.53717-2.2781 2.53717z" fill="#101828"/></svg>