<svg width="20" height="20" viewBox="0 0 20 20" fill="none" xmlns="http://www.w3.org/2000/svg">
<path fill-rule="evenodd" clip-rule="evenodd" d="M16.5625 4.375C17.0803 4.375 17.5 4.79473 17.5 5.3125V14.6875C17.5 15.2053 17.0803 15.625 16.5625 15.625H3.4375C2.91973 15.625 2.5 15.2053 2.5 14.6875V5.3125C2.5 4.79473 2.91973 4.375 3.4375 4.375H16.5625ZM18.75 5.3125C18.75 4.10438 17.7706 3.125 16.5625 3.125H3.4375C2.22938 3.125 1.25 4.10438 1.25 5.3125V14.6875C1.25 15.8956 2.22938 16.875 3.4375 16.875H16.5625C17.7706 16.875 18.75 15.8956 18.75 14.6875V5.3125Z" fill="#565660"/>
<path fill-rule="evenodd" clip-rule="evenodd" d="M16.1183 5.86629C15.9064 5.59382 15.5138 5.54474 15.2413 5.75665L10 9.83321L4.75871 5.75665C4.48625 5.54474 4.09357 5.59382 3.88165 5.86629C3.66974 6.13875 3.71882 6.53143 3.99129 6.74335L9.61629 11.1183C9.84198 11.2939 10.158 11.2939 10.3837 11.1183L16.0087 6.74335C16.2812 6.53143 16.3303 6.13875 16.1183 5.86629Z" fill="#565660"/>
</svg>
