<?xml version="1.0" standalone="no"?>
<!DOCTYPE svg PUBLIC "-//W3C//DTD SVG 20010904//EN"
 "http://www.w3.org/TR/2001/REC-SVG-20010904/DTD/svg10.dtd">
<svg version="1.0" xmlns="http://www.w3.org/2000/svg"
 width="602.000000pt" height="602.000000pt" viewBox="0 0 602.000000 602.000000"
 preserveAspectRatio="xMidYMid meet">
<metadata>
Created by potrace 1.11, written by Peter Selinger 2001-2013
</metadata>
<g transform="translate(0.000000,602.000000) scale(0.100000,-0.100000)"
fill="#000000" stroke="none">
<path d="M1866 5744 c-232 -42 -442 -152 -603 -316 -55 -56 -126 -173 -634
-1053 -545 -945 -572 -994 -596 -1085 -34 -128 -42 -326 -19 -459 19 -106 54
-218 98 -304 55 -110 1019 -1769 1061 -1826 127 -173 335 -321 540 -386 166
-53 164 -53 1307 -57 993 -3 1071 -2 1153 15 226 46 443 162 593 319 41 42
171 259 620 1038 313 542 576 1010 587 1040 77 235 57 553 -51 782 -43 92
-1004 1753 -1060 1833 -177 252 -457 421 -766 464 -52 7 -426 11 -1114 10
-852 -1 -1051 -3 -1116 -15z m2224 -134 c72 -11 240 -60 240 -69 0 -3 -505
-296 -1123 -651 -617 -355 -1229 -706 -1359 -782 l-238 -136 0 773 0 773 73
30 c64 27 166 55 237 65 61 10 2109 6 2170 -3z m586 -313 c25 -28 59 -70 74
-92 40 -58 993 -1702 1035 -1784 44 -88 82 -217 90 -307 l6 -69 -668 -382
c-594 -339 -668 -379 -670 -360 -1 12 -4 720 -5 1573 l-3 1552 47 -40 c26 -21
68 -63 94 -91z m-3208 -643 l-3 -766 -659 -379 c-362 -208 -660 -379 -662
-379 -15 0 42 204 80 284 55 119 1004 1756 1063 1834 51 67 158 172 176 172 4
0 6 -345 5 -766z m2929 -994 l-2 -1464 -1384 -794 c-761 -436 -1385 -791
-1386 -790 -1 2 -5 723 -9 1603 l-6 1600 1387 797 1388 797 7 -142 c4 -78 7
-801 5 -1607z m-2918 -1929 l1 -1144 -52 45 c-121 103 -158 161 -675 1056
-276 477 -513 890 -527 919 -39 78 -77 220 -79 295 l-2 67 660 380 660 380 6
-427 c3 -235 7 -942 8 -1571z m4386 1082 c-15 -77 -48 -179 -78 -238 -46 -92
-993 -1725 -1032 -1780 -24 -33 -78 -94 -121 -135 l-79 -75 -6 765 c-4 421 -4
768 0 772 8 9 1314 757 1322 758 4 0 1 -30 -6 -67z m-1455 -1555 l0 -758 -37
-19 c-66 -33 -195 -69 -293 -81 -114 -14 -2076 -4 -2178 11 -34 5 -99 21 -145
35 -82 26 -82 27 -58 43 14 9 626 361 1360 782 854 489 1339 762 1343 755 4
-6 8 -352 8 -768z"/>
</g>
</svg>
