<svg height="602pt" preserveAspectRatio="xMidYMid meet" viewBox="0 0 602 602" width="602pt" xmlns="http://www.w3.org/2000/svg"><path d="m1866 5744c-232-42-442-152-603-316-55-56-126-173-634-1053-545-945-572-994-596-1085-34-128-42-326-19-459 19-106 54-218 98-304 55-110 1019-1769 1061-1826 127-173 335-321 540-386 166-53 164-53 1307-57 993-3 1071-2 1153 15 226 46 443 162 593 319 41 42 171 259 620 1038 313 542 576 1010 587 1040 77 235 57 553-51 782-43 92-1004 1753-1060 1833-177 252-457 421-766 464-52 7-426 11-1114 10-852-1-1051-3-1116-15zm2224-134c72-11 240-60 240-69 0-3-505-296-1123-651-617-355-1229-706-1359-782l-238-136v773 773l73 30c64 27 166 55 237 65 61 10 2109 6 2170-3zm586-313c25-28 59-70 74-92 40-58 993-1702 1035-1784 44-88 82-217 90-307l6-69-668-382c-594-339-668-379-670-360-1 12-4 720-5 1573l-3 1552 47-40c26-21 68-63 94-91zm-3208-643-3-766-659-379c-362-208-660-379-662-379-15 0 42 204 80 284 55 119 1004 1756 1063 1834 51 67 158 172 176 172 4 0 6-345 5-766zm2929-994-2-1464-1384-794c-761-436-1385-791-1386-790-1 2-5 723-9 1603l-6 1600 1387 797 1388 797 7-142c4-78 7-801 5-1607zm-2918-1929 1-1144-52 45c-121 103-158 161-675 1056-276 477-513 890-527 919-39 78-77 220-79 295l-2 67 660 380 660 380 6-427c3-235 7-942 8-1571zm4386 1082c-15-77-48-179-78-238-46-92-993-1725-1032-1780-24-33-78-94-121-135l-79-75-6 765c-4 421-4 768 0 772 8 9 1314 757 1322 758 4 0 1-30-6-67zm-1455-1555v-758l-37-19c-66-33-195-69-293-81-114-14-2076-4-2178 11-34 5-99 21-145 35-82 26-82 27-58 43 14 9 626 361 1360 782 854 489 1339 762 1343 755 4-6 8-352 8-768z" transform="matrix(.1 0 0 -.1 0 602)"/></svg>