<svg width="32" height="32" viewBox="0 0 32 32" fill="none" xmlns="http://www.w3.org/2000/svg">
<path fill-rule="evenodd" clip-rule="evenodd" d="M30.8016 13.7141C31.3551 14.2529 31.7391 14.9417 31.9062 15.6958C32.0733 16.45 32.0163 17.2365 31.7422 17.9587L29.6537 23.6324C29.1056 25.122 27.8562 26.2743 26.3123 26.5751C25.5401 26.7297 24.7403 26.6714 23.9986 26.4065C23.2569 26.1416 22.6012 25.6801 22.1015 25.0713L9.57776 10.0666C9.54662 10.0297 9.50633 10.0016 9.46093 9.98508C9.41552 9.96861 9.36659 9.96436 9.31902 9.97273C9.27145 9.98111 9.22691 10.0018 9.18987 10.0328C9.15282 10.0638 9.12456 10.104 9.10791 10.1493L5.03328 21.1702C4.94874 21.398 5.17299 21.6186 5.39545 21.5279L10.3955 19.4857C10.6774 19.3714 10.9799 19.3166 11.2839 19.3247C11.588 19.3328 11.8871 19.4037 12.1625 19.5329C12.4379 19.6621 12.6836 19.8467 12.8842 20.0753C13.0849 20.304 13.2361 20.5716 13.3285 20.8614C13.6978 21.9942 13.0767 23.2177 11.983 23.6644L5.45151 26.3313C4.2422 26.8252 2.85314 26.738 1.76396 26.011C1.02172 25.5149 0.468347 24.7832 0.193218 23.9339C-0.0819111 23.0846 -0.0627329 22.1674 0.247655 21.3303L5.06176 8.31357C5.63215 6.77057 6.93134 5.68139 8.53752 5.4002C9.3197 5.26002 10.1251 5.33082 10.8708 5.60531C11.6166 5.8798 12.2757 6.34806 12.7803 6.96189L19.9686 15.5757L26.5802 12.875C28.0493 12.2752 29.6671 12.5964 30.8016 13.7141ZM26.9886 18.0405C27.0722 17.8127 26.848 17.5921 26.6255 17.6837L22.9727 19.1751L25.1635 21.8011C25.1946 21.8384 25.235 21.8669 25.2806 21.8837C25.3262 21.9004 25.3755 21.9048 25.4233 21.8964C25.4712 21.888 25.516 21.8671 25.5532 21.8358C25.5904 21.8046 25.6187 21.764 25.6351 21.7183L26.9877 18.0405H26.9886Z" fill="url(#paint0_linear)"/>
<defs>
<linearGradient id="paint0_linear" x1="0" y1="5.33008" x2="19.6874" y2="34.8665" gradientUnits="userSpaceOnUse">
<stop stop-color="#FF4244"/>
<stop offset="1" stop-color="#FF8E3C"/>
</linearGradient>
</defs>
</svg>
