<svg fill="none" height="32" viewBox="0 0 32 32" width="32" xmlns="http://www.w3.org/2000/svg"><g fill="#23272a"><path d="m16 .00000043c-8.83658 0-16 7.16343957-16 15.99999957 0 8.8366 7.16342 16 16 16 8.8366 0 16-7.1634 16-16 0-8.83656-7.1634-15.99999957-16-15.99999957zm0 1.27718957c8.1181 0 14.7228 6.60467 14.7228 14.72281 0 8.1182-6.6047 14.7228-14.7228 14.7228-8.11822 0-14.72281-6.6046-14.72281-14.7228 0-8.11814 6.60459-14.72281 14.72281-14.72281z"/><path d="m12.8998 18.3909c-.4744-.6772-.7538-1.5012-.7538-2.3909 0-2.3049 1.8685-4.1732 4.1733-4.1732.8899 0 1.7127.2803 2.389.7558l.9204-.9204c-.9182-.7022-2.0643-1.1206-3.3094-1.1206-3.0146 0-5.4584 2.4438-5.4584 5.4584 0 1.2451.4177 2.392 1.1194 3.3105z"/><path d="m15.9867 17.1215h3.0278v2.0595c-.7266.6178-1.6663.9922-2.6952.9922-.9512 0-1.8276-.3188-2.5295-.8548l-.9151.9152c.9396.7653 2.1383 1.2248 3.4446 1.2248 1.5698 0 2.9846-.6629 3.9804-1.7237v-.5486-3.3498h-3.0278z"/></g></svg>