<svg width="32" height="32" viewBox="0 0 32 32" fill="none" xmlns="http://www.w3.org/2000/svg">
<path d="M16 4.31286e-07C7.16342 4.31286e-07 0 7.16344 0 16C0 24.8366 7.16342 32 16 32C24.8366 32 32 24.8366 32 16C32 7.16344 24.8366 4.31286e-07 16 4.31286e-07ZM16 1.27719C24.1181 1.27719 30.7228 7.88186 30.7228 16C30.7228 24.1182 24.1181 30.7228 16 30.7228C7.88178 30.7228 1.27719 24.1182 1.27719 16C1.27719 7.88186 7.88178 1.27719 16 1.27719Z" fill="#23272A"/>
<path d="M12.8998 18.3909C12.4254 17.7137 12.146 16.8897 12.146 16C12.146 13.6951 14.0145 11.8268 16.3193 11.8268C17.2092 11.8268 18.032 12.1071 18.7083 12.5826L19.6287 11.6622C18.7105 10.96 17.5644 10.5416 16.3193 10.5416C13.3047 10.5416 10.8609 12.9854 10.8609 16C10.8609 17.2451 11.2786 18.392 11.9803 19.3105L12.8998 18.3909" fill="#23272A"/>
<path d="M15.9867 17.1215H19.0145V19.181C18.2879 19.7988 17.3482 20.1732 16.3193 20.1732C15.3681 20.1732 14.4917 19.8544 13.7898 19.3184L12.8747 20.2336C13.8143 20.9989 15.013 21.4584 16.3193 21.4584C17.8891 21.4584 19.3039 20.7955 20.2997 19.7347V19.1861V15.8363H17.2719L15.9867 17.1215" fill="#23272A"/>
</svg>
