<svg width="32" height="32" viewBox="0 0 32 32" fill="none" xmlns="http://www.w3.org/2000/svg">
<path fill-rule="evenodd" clip-rule="evenodd" d="M16 30.8C24.1738 30.8 30.8 24.1738 30.8 16C30.8 7.82619 24.1738 1.2 16 1.2C7.82619 1.2 1.2 7.82619 1.2 16C1.2 24.1738 7.82619 30.8 16 30.8ZM16 32C24.8366 32 32 24.8366 32 16C32 7.16344 24.8366 0 16 0C7.16344 0 0 7.16344 0 16C0 24.8366 7.16344 32 16 32Z" fill="black"/>
<path fill-rule="evenodd" clip-rule="evenodd" d="M15.8962 8.39607C15.5128 8.43375 15.3842 8.44977 15.3757 8.46096C15.3703 8.46813 15.2687 8.49011 15.15 8.50983C15.0311 8.52948 14.9295 8.55194 14.9241 8.55975C14.9188 8.56748 14.8441 8.58905 14.7584 8.60757C14.6726 8.62617 14.5931 8.64847 14.5816 8.65725C14.5702 8.66594 14.5167 8.68486 14.4627 8.69928C14.4086 8.71369 14.3601 8.73092 14.3546 8.73768C14.3422 8.75322 14.1432 8.81666 14.107 8.81666C14.092 8.81666 14.0797 8.82431 14.0797 8.83365C14.0797 8.84299 14.0311 8.86585 13.9717 8.88453C13.9124 8.90321 13.8636 8.92431 13.8636 8.93139C13.8635 8.93856 13.8104 8.96086 13.7457 8.98099C13.681 9.00119 13.6281 9.02462 13.6281 9.03316C13.6281 9.04169 13.5794 9.06399 13.5201 9.08267C13.4607 9.10135 13.4121 9.12285 13.4121 9.13041C13.4121 9.13798 13.3756 9.15626 13.3309 9.17099C13.2863 9.18573 13.2399 9.20706 13.2278 9.21833C13.2158 9.22961 13.1749 9.25408 13.1372 9.2726C13.0144 9.33274 12.7349 9.48805 12.7248 9.50165C12.7194 9.5089 12.6774 9.53144 12.6315 9.55165C12.5856 9.57194 12.548 9.59432 12.548 9.60149C12.548 9.60866 12.5169 9.62669 12.4789 9.64159C12.4408 9.65656 12.3953 9.68466 12.3776 9.70422C12.36 9.72371 12.3353 9.73965 12.3226 9.73965C12.3101 9.73965 12.265 9.7659 12.2227 9.79802C12.1802 9.83006 12.1385 9.85663 12.1299 9.85687C12.1214 9.8572 12.1037 9.86629 12.0906 9.87716C12.0346 9.9237 11.8601 10.0342 11.8426 10.0342C11.832 10.0342 11.8164 10.0454 11.8077 10.059C11.7991 10.0726 11.7589 10.1011 11.7184 10.1223C11.6779 10.1436 11.6447 10.1664 11.6447 10.173C11.6447 10.1796 11.6138 10.2018 11.576 10.2221C11.5382 10.2424 11.5073 10.2662 11.5073 10.2748C11.5073 10.2834 11.4852 10.2988 11.4582 10.3091C11.4312 10.3193 11.4091 10.3368 11.4091 10.3479C11.4091 10.3589 11.3993 10.368 11.3873 10.368C11.3754 10.368 11.3322 10.3945 11.2913 10.4269C11.2504 10.4593 11.2072 10.4858 11.1953 10.4858C11.1835 10.4858 11.1627 10.5035 11.1493 10.5251C11.1357 10.5467 11.1167 10.5644 11.1069 10.5644C11.0971 10.5644 11.0514 10.5953 11.0052 10.6331C10.9591 10.6709 10.9122 10.7018 10.9008 10.7018C10.8895 10.7018 10.8708 10.7195 10.8593 10.7411C10.8477 10.7627 10.8254 10.7804 10.8097 10.7804C10.7939 10.7804 10.77 10.7981 10.7565 10.8196C10.743 10.8413 10.7214 10.8589 10.7084 10.8589C10.6953 10.8589 10.673 10.8744 10.6588 10.8933C10.6329 10.9275 10.5814 10.965 10.5255 10.9903C10.5092 10.9976 10.4844 11.0197 10.4703 11.0393C10.4562 11.0589 10.4348 11.0749 10.4229 11.0749C10.4109 11.0749 10.3871 11.0886 10.37 11.1054C10.3432 11.1315 10.2599 11.1954 9.96671 11.4145C9.85303 11.4995 9.78927 11.5628 9.80336 11.5769C9.81769 11.5913 9.99642 11.5321 10.0149 11.507C10.0203 11.4996 10.0689 11.4771 10.1229 11.457C10.1768 11.437 10.2255 11.4149 10.2309 11.408C10.2363 11.401 10.2826 11.3795 10.3339 11.3601C10.3853 11.3407 10.4272 11.3186 10.4272 11.3111C10.4272 11.3034 10.4648 11.285 10.5107 11.2701C10.5566 11.2552 10.6428 11.2186 10.7022 11.1887C10.7615 11.1588 10.8212 11.1343 10.8347 11.1341C10.8482 11.134 10.8593 11.1252 10.8593 11.1146C10.8593 11.104 10.8826 11.0894 10.9113 11.0823C10.9399 11.0751 11.0127 11.0441 11.0733 11.0134C11.1337 10.9827 11.1987 10.9575 11.2176 10.9574C11.2365 10.9572 11.252 10.9493 11.252 10.9397C11.252 10.9301 11.3117 10.9063 11.3845 10.8869C11.4575 10.8675 11.5215 10.8458 11.527 10.8389C11.5323 10.8319 11.603 10.8096 11.684 10.7891C11.765 10.7687 11.8357 10.7464 11.8411 10.7394C11.8465 10.7324 11.9349 10.7109 12.0375 10.6916C12.14 10.6723 12.2329 10.6499 12.2437 10.6419C12.2545 10.6337 12.3782 10.6114 12.5186 10.5922C12.659 10.573 12.7783 10.5511 12.7837 10.5436C12.8346 10.4724 14.5186 10.473 14.6787 10.5443C14.7002 10.5539 14.824 10.577 14.9536 10.5955C15.0832 10.6141 15.1936 10.6351 15.199 10.6423C15.2044 10.6495 15.2884 10.6717 15.3856 10.6916C15.4828 10.7115 15.5667 10.7338 15.5721 10.7411C15.5776 10.7485 15.6438 10.7708 15.7194 10.7908C15.795 10.8107 15.8613 10.8324 15.8667 10.8389C15.8721 10.8454 15.9163 10.8629 15.9648 10.8776C16.0135 10.8923 16.071 10.9148 16.0925 10.9274C16.1141 10.9402 16.1804 10.9674 16.2398 10.988C16.2992 11.0087 16.3522 11.031 16.3577 11.0377C16.3631 11.0443 16.4006 11.0617 16.4411 11.0761C16.4816 11.0906 16.5147 11.1087 16.5147 11.1162C16.5147 11.1237 16.5589 11.1458 16.6129 11.1652C16.6669 11.1847 16.7111 11.2063 16.7111 11.2133C16.7111 11.2203 16.7486 11.2427 16.7945 11.2631C16.8404 11.2835 16.8907 11.3123 16.9063 11.3273C16.9218 11.3422 16.9594 11.3632 16.9898 11.3737C17.0201 11.3843 17.0449 11.3996 17.0449 11.4077C17.0449 11.4158 17.0803 11.4384 17.1235 11.4578C17.1666 11.4773 17.202 11.5004 17.202 11.5091C17.202 11.5177 17.2348 11.5404 17.275 11.5594C17.3151 11.5785 17.3628 11.6076 17.381 11.6241C17.4121 11.6526 17.4575 11.6888 17.5599 11.7668C17.6529 11.8376 17.8215 11.9687 17.8441 11.9878C18.1149 12.2159 18.598 12.7047 18.8053 12.9601C18.836 12.9979 18.8699 13.0388 18.8808 13.051C18.8917 13.0632 18.9227 13.1016 18.9497 13.1363C18.9767 13.171 19.0187 13.2194 19.043 13.244C19.0673 13.2686 19.0872 13.2981 19.0872 13.3098C19.0872 13.3215 19.1027 13.3425 19.1216 13.3566C19.1405 13.3707 19.1736 13.4154 19.1948 13.4559C19.2161 13.4964 19.2399 13.5296 19.2476 13.5296C19.2554 13.5296 19.2733 13.55 19.2874 13.575C19.3468 13.6804 19.4063 13.7652 19.4208 13.7652C19.4293 13.7652 19.4505 13.8006 19.4678 13.8437C19.4851 13.887 19.506 13.9223 19.5142 13.9223C19.5225 13.9223 19.5405 13.9478 19.5543 13.979C19.5681 14.0102 19.5967 14.0556 19.618 14.0801C19.6392 14.1047 19.6566 14.1349 19.6566 14.1474C19.6566 14.16 19.6739 14.1886 19.6948 14.2112C19.7318 14.251 19.7697 14.3166 19.8521 14.4843C19.8739 14.5287 19.9052 14.5762 19.9215 14.5898C19.9379 14.6034 19.9512 14.626 19.9512 14.6401C19.9512 14.6542 19.9629 14.6774 19.9771 14.6917C19.9914 14.7059 20.0192 14.7596 20.0387 14.8109C20.0583 14.8622 20.0812 14.9042 20.0897 14.9042C20.0982 14.9042 20.1202 14.9439 20.1388 14.9926C20.1573 15.0411 20.1784 15.0809 20.1856 15.0809C20.1928 15.0809 20.2146 15.1251 20.2341 15.1791C20.2535 15.233 20.2773 15.2772 20.287 15.2772C20.2967 15.2772 20.3047 15.2926 20.3047 15.3115C20.3047 15.3302 20.3346 15.4076 20.3712 15.4833C20.4962 15.7421 20.5403 15.8443 20.5403 15.875C20.5403 15.8919 20.5489 15.9056 20.5594 15.9056C20.5699 15.9056 20.5926 15.9543 20.6099 16.0137C20.6271 16.073 20.6474 16.1217 20.6549 16.1217C20.6623 16.1217 20.6849 16.1791 20.705 16.2493C20.7251 16.3195 20.7473 16.377 20.7545 16.377C20.7616 16.377 20.7793 16.4189 20.7938 16.4702C20.8083 16.5215 20.8317 16.5822 20.8459 16.605C20.86 16.6278 20.8848 16.6976 20.9012 16.7603C20.9175 16.8228 20.9385 16.8793 20.9479 16.8857C20.9572 16.8921 20.9767 16.9481 20.9914 17.0103C21.0059 17.0723 21.0242 17.1231 21.0319 17.1231C21.0397 17.1231 21.0515 17.1508 21.0583 17.1847C21.0704 17.2454 21.0719 17.2461 21.1605 17.234C21.3838 17.2034 21.4285 17.1239 21.3376 16.9203C21.3196 16.8801 21.3057 16.7504 21.2982 16.5537C21.2802 16.0823 21.2424 15.5238 21.2277 15.5129C21.2203 15.5075 21.2032 15.3706 21.1895 15.2086C21.1758 15.0465 21.158 14.9051 21.1499 14.8943C21.1417 14.8835 21.1192 14.7399 21.0999 14.5753C21.0805 14.4105 21.0571 14.2758 21.048 14.2758C21.0388 14.2758 21.0313 14.2559 21.0314 14.2316C21.0318 14.1615 20.9657 13.7565 20.9521 13.7456C20.9454 13.7402 20.9239 13.6429 20.9043 13.5296C20.8848 13.4161 20.8626 13.319 20.8551 13.3136C20.8476 13.3082 20.8258 13.2242 20.8068 13.127C20.7878 13.0298 20.7654 12.9414 20.757 12.9307C20.7486 12.9199 20.7264 12.8403 20.7076 12.7539C20.6889 12.6675 20.6666 12.588 20.6582 12.5772C20.6497 12.5663 20.6316 12.5068 20.6179 12.4446C20.6042 12.3825 20.5865 12.3317 20.5786 12.3317C20.5707 12.3317 20.5486 12.2676 20.5296 12.1894C20.5106 12.111 20.4885 12.0425 20.4803 12.0371C20.4723 12.0317 20.4502 11.9743 20.4315 11.9095C20.4126 11.8447 20.3864 11.774 20.3731 11.7524C20.3597 11.7308 20.337 11.6712 20.3225 11.6198C20.308 11.5686 20.2892 11.5266 20.2808 11.5266C20.2723 11.5266 20.2654 11.5172 20.2654 11.5058C20.2654 11.4727 20.0335 10.9751 20.0097 10.9571C20.0025 10.9518 19.9808 10.9053 19.9614 10.854C19.942 10.8027 19.9193 10.7608 19.9109 10.7608C19.9024 10.7608 19.8805 10.7216 19.8623 10.6737C19.844 10.6258 19.8168 10.5818 19.8017 10.5761C19.7867 10.5703 19.7745 10.5538 19.7745 10.5394C19.7745 10.5249 19.7516 10.4827 19.7237 10.4455C19.6958 10.4083 19.665 10.358 19.6554 10.3337C19.6458 10.3093 19.6289 10.2895 19.6178 10.2895C19.6068 10.2895 19.5977 10.2804 19.5977 10.2693C19.5977 10.2371 19.466 10.0509 19.367 9.94302C19.3427 9.91661 19.3228 9.88988 19.3228 9.88376C19.3228 9.84311 18.9401 9.44828 18.7239 9.26592C18.6483 9.20207 18.5725 9.13678 18.5553 9.12075C18.5382 9.10473 18.5184 9.09161 18.5113 9.09161C18.5042 9.09161 18.4579 9.06069 18.4084 9.02285C18.3589 8.98509 18.3057 8.95417 18.2903 8.95417C18.275 8.95417 18.2624 8.94508 18.2624 8.93405C18.2624 8.92294 18.242 8.90611 18.2169 8.89661C18.1919 8.88711 18.1386 8.857 18.0985 8.82978C18.0583 8.80257 17.9992 8.77447 17.9672 8.76747C17.9351 8.76038 17.909 8.74718 17.909 8.73808C17.909 8.72898 17.8758 8.71071 17.8353 8.69742C17.7948 8.68414 17.744 8.66256 17.7224 8.64944C17.7008 8.63631 17.6389 8.61401 17.5849 8.59984C17.531 8.58575 17.4822 8.56748 17.4767 8.55935C17.4711 8.55129 17.3872 8.52867 17.2901 8.50911C17.193 8.48954 17.1092 8.46837 17.1038 8.46193C17.0689 8.42038 16.1557 8.37063 15.8962 8.39607ZM20.1476 8.82648C20.1476 8.85764 20.3493 9.07148 20.3796 9.07237C20.3954 9.07285 21.1579 9.84729 21.2231 9.92909C21.2476 9.95993 21.2855 10.0072 21.3071 10.0342C21.3288 10.0612 21.3815 10.1319 21.4243 10.1912C21.4672 10.2507 21.5156 10.3133 21.5318 10.3304C21.5481 10.3475 21.5615 10.3713 21.5615 10.3834C21.5615 10.3955 21.5733 10.4124 21.5878 10.421C21.6023 10.4296 21.6305 10.4743 21.6505 10.5202C21.6705 10.5661 21.6938 10.6036 21.7024 10.6036C21.711 10.6036 21.7317 10.6365 21.7485 10.6766C21.7652 10.7167 21.7862 10.7543 21.795 10.7601C21.8039 10.7659 21.8296 10.8104 21.852 10.8589C21.8745 10.9076 21.9057 10.9694 21.9213 10.9964C21.937 11.0234 21.9746 11.0985 22.0051 11.1633C22.0356 11.2281 22.0661 11.2856 22.073 11.2909C22.08 11.2963 22.102 11.3538 22.1221 11.4186C22.1421 11.4834 22.1683 11.5464 22.1803 11.5587C22.1923 11.5709 22.214 11.6305 22.2286 11.6913C22.2431 11.7519 22.2615 11.8015 22.2694 11.8015C22.2773 11.8015 22.2992 11.8656 22.318 11.9439C22.3369 12.0222 22.3588 12.0951 22.3667 12.1059C22.3746 12.1167 22.3964 12.1962 22.4153 12.2826C22.434 12.369 22.4559 12.4485 22.464 12.4593C22.4721 12.4701 22.4947 12.5762 22.5142 12.695C22.5336 12.8138 22.5562 12.9199 22.5642 12.9307C22.5724 12.9414 22.5903 13.0563 22.6042 13.186C22.6181 13.3155 22.6355 13.426 22.6428 13.4314C22.7205 13.4888 22.72 16.0068 22.6422 16.0627C22.6348 16.0681 22.6172 16.2007 22.6033 16.3573C22.5893 16.5139 22.5719 16.6464 22.5646 16.6518C22.5572 16.6572 22.5351 16.7943 22.5154 16.9562C22.4956 17.1182 22.4729 17.2596 22.4649 17.2704C22.4568 17.2812 22.4341 17.3961 22.4144 17.5257C22.3947 17.6553 22.3729 17.7658 22.3662 17.7712C22.3593 17.7766 22.3378 17.8738 22.3184 17.9872C22.299 18.1006 22.2765 18.2022 22.2683 18.213C22.2602 18.2238 22.2379 18.3232 22.2187 18.434C22.1995 18.5447 22.1779 18.6352 22.1705 18.6352C22.1632 18.6352 22.1407 18.7191 22.1206 18.8218C22.1004 18.9243 22.0776 19.0083 22.0699 19.0083C22.0622 19.0083 22.0448 19.0702 22.0313 19.1458C22.0179 19.2214 22 19.2832 21.9916 19.2832C21.9833 19.2832 21.9615 19.3517 21.9432 19.4354C21.9248 19.5191 21.9033 19.5965 21.8953 19.6073C21.8873 19.618 21.8697 19.6754 21.856 19.7349C21.8425 19.7943 21.8156 19.8783 21.7965 19.9214C21.7772 19.9646 21.7507 20.0552 21.7375 20.1227C21.7242 20.1902 21.7074 20.2455 21.7001 20.2455C21.6928 20.2455 21.6708 20.3073 21.6511 20.3829C21.6316 20.4585 21.6094 20.5203 21.602 20.5203C21.5945 20.5203 21.5768 20.5667 21.5626 20.6235C21.5484 20.6802 21.5302 20.7354 21.5223 20.7462C21.5144 20.757 21.4918 20.8188 21.4721 20.8836C21.4524 20.9484 21.4309 21.0059 21.4243 21.0113C21.4177 21.0167 21.3954 21.0785 21.3749 21.1487C21.3543 21.2189 21.3323 21.2808 21.3259 21.2862C21.3195 21.2916 21.3023 21.3358 21.2875 21.3844C21.2727 21.433 21.2502 21.4904 21.2373 21.512C21.2245 21.5337 21.1981 21.5999 21.1786 21.6593C21.1591 21.7187 21.1372 21.7717 21.1297 21.7771C21.1223 21.7825 21.0998 21.8422 21.0798 21.9096C21.0598 21.9772 21.0376 22.0324 21.0306 22.0324C21.0236 22.0324 21.0067 22.0693 20.9932 22.1145C20.9797 22.1596 20.957 22.2148 20.9426 22.2372C20.9283 22.2596 20.9067 22.3154 20.8946 22.3613C20.8825 22.4072 20.8653 22.4448 20.8564 22.4448C20.8476 22.4448 20.8249 22.4934 20.8063 22.5528C20.7876 22.6122 20.7657 22.6608 20.7576 22.6608C20.7495 22.6608 20.7269 22.7138 20.7072 22.7786C20.6876 22.8434 20.665 22.8964 20.657 22.8964C20.649 22.8964 20.6266 22.9406 20.6071 22.9946C20.5877 23.0486 20.5659 23.0928 20.5588 23.0928C20.5516 23.0928 20.5304 23.1414 20.5117 23.2008C20.4931 23.2602 20.4719 23.3088 20.4647 23.3088C20.4576 23.3088 20.4394 23.3375 20.4244 23.3726C20.4094 23.4077 20.3862 23.4497 20.3729 23.4659C20.3597 23.4821 20.337 23.5285 20.3228 23.569C20.3084 23.6095 20.2906 23.6427 20.2831 23.6427C20.2755 23.6427 20.2535 23.6868 20.2341 23.7408C20.2146 23.7948 20.1925 23.839 20.1849 23.839C20.1774 23.839 20.1552 23.8832 20.1358 23.9372C20.1164 23.9912 20.0934 24.0354 20.0848 24.0354C20.0761 24.0354 20.069 24.0442 20.069 24.055C20.069 24.0911 20.1371 24.0751 20.1966 24.025C20.2961 23.9413 20.5567 23.6993 20.709 23.5493C20.7885 23.4711 20.8596 23.407 20.867 23.407C20.8955 23.407 22.4058 21.8691 22.4058 21.8402C22.4058 21.8319 22.4301 21.8029 22.4598 21.7757C22.4895 21.7485 22.5841 21.6427 22.67 21.5406C22.877 21.2945 22.88 21.2911 22.9311 21.2387C22.9554 21.2137 22.9753 21.1849 22.9753 21.1746C22.9753 21.1643 22.9952 21.1371 23.0194 21.1143C23.0438 21.0914 23.0901 21.036 23.1226 20.9911C23.1549 20.9462 23.2014 20.8894 23.2256 20.8648C23.2499 20.8403 23.2698 20.8105 23.2698 20.7986C23.2698 20.7867 23.2875 20.7676 23.3091 20.756C23.3307 20.7444 23.3484 20.7257 23.3484 20.7144C23.3484 20.7031 23.3793 20.6562 23.4171 20.61C23.4549 20.5639 23.4858 20.5204 23.4858 20.5134C23.4858 20.5064 23.5036 20.4808 23.5251 20.4565C23.5968 20.3759 23.6132 20.3531 23.6523 20.2793C23.6737 20.2391 23.6978 20.2062 23.7058 20.2062C23.7139 20.2062 23.7352 20.1774 23.7532 20.1423C23.7712 20.1072 23.7914 20.0741 23.7982 20.0687C23.8049 20.0633 23.8457 20.0059 23.8886 19.9411C23.9317 19.8762 23.9723 19.8188 23.9788 19.8134C23.9853 19.808 24.0069 19.7683 24.0269 19.725C24.0468 19.6819 24.0719 19.6405 24.0826 19.6333C24.0933 19.6259 24.1159 19.594 24.1327 19.5622C24.2211 19.3955 24.2585 19.3313 24.2728 19.3221C24.2814 19.3164 24.2986 19.29 24.3109 19.2631C24.3232 19.2364 24.3633 19.1615 24.3999 19.0966C24.4365 19.0318 24.4814 18.9457 24.4995 18.9052C24.5177 18.8647 24.5401 18.8316 24.5492 18.8316C24.5584 18.8316 24.5659 18.8205 24.566 18.807C24.5661 18.7935 24.5955 18.725 24.6314 18.6548C24.6674 18.5846 24.7032 18.5018 24.7109 18.4708C24.7186 18.4398 24.7366 18.4027 24.7509 18.3885C24.7653 18.3741 24.7888 18.3222 24.8033 18.273C24.8178 18.2238 24.8352 18.1836 24.842 18.1836C24.8488 18.1836 24.8654 18.146 24.8792 18.1001C24.8929 18.0542 24.9102 18.0122 24.9176 18.0068C24.9318 17.9965 24.9979 17.7997 24.9979 17.7675C24.9979 17.7572 25.0098 17.7368 25.0243 17.7223C25.0388 17.7077 25.0622 17.6421 25.0761 17.5764C25.09 17.5107 25.1078 17.4569 25.1157 17.4569C25.1235 17.4569 25.1464 17.3818 25.1665 17.29C25.1867 17.1983 25.2091 17.1231 25.2165 17.1231C25.2239 17.1231 25.2452 17.037 25.2638 16.9317C25.2825 16.8264 25.3044 16.7314 25.3126 16.7206C25.3208 16.7098 25.338 16.617 25.3509 16.5144C25.3637 16.4118 25.3821 16.3101 25.3917 16.2886C25.4627 16.1288 25.4622 14.618 25.3911 14.5212C25.3832 14.5105 25.3652 14.4176 25.3511 14.3151C25.3369 14.2125 25.3193 14.1241 25.3119 14.1187C25.3046 14.1133 25.2829 14.0271 25.2636 13.9272C25.2444 13.8273 25.2222 13.7456 25.2141 13.7456C25.2061 13.7456 25.1841 13.6815 25.1652 13.6032C25.1462 13.5249 25.1247 13.4564 25.1173 13.451C25.11 13.4456 25.0925 13.4014 25.0784 13.3529C25.0643 13.3042 25.0322 13.2203 25.007 13.1663C24.9818 13.1123 24.9553 13.0438 24.9479 13.0141C24.9407 12.9844 24.9286 12.9601 24.9212 12.9601C24.9137 12.9601 24.8958 12.9269 24.8813 12.8865C24.8668 12.846 24.8486 12.8084 24.8409 12.803C24.833 12.7976 24.8081 12.7534 24.7852 12.7048C24.7624 12.6562 24.7158 12.5679 24.6817 12.5084C24.6476 12.449 24.6069 12.3762 24.5914 12.3465C24.5757 12.3167 24.5548 12.2924 24.5448 12.2924C24.5348 12.2924 24.5266 12.2805 24.5266 12.2659C24.5266 12.2514 24.5001 12.2028 24.4677 12.1581C24.4353 12.1134 24.4088 12.0727 24.4088 12.0676C24.4088 12.0526 24.2186 11.7948 24.1747 11.7503C24.1522 11.7276 24.1339 11.699 24.1339 11.6867C24.1339 11.6744 24.1162 11.6533 24.0946 11.6399C24.073 11.6264 24.0553 11.6049 24.0553 11.5921C24.0553 11.5792 24.0349 11.5526 24.0099 11.533C23.9849 11.5132 23.9562 11.4828 23.9461 11.4652C23.8738 11.3397 23.038 10.5003 22.955 10.4698C22.9457 10.4664 22.9032 10.4311 22.8605 10.3912C22.7161 10.2565 22.6851 10.2305 22.6688 10.2305C22.66 10.2305 22.6347 10.2127 22.6127 10.1908C22.5476 10.1261 22.4189 10.0313 22.3715 10.0129C22.3472 10.0036 22.3273 9.98722 22.3273 9.97667C22.3273 9.96613 22.2941 9.94197 22.2536 9.92305C22.2131 9.90413 22.1684 9.87281 22.1543 9.85341C22.1403 9.83401 22.1159 9.81815 22.1003 9.81815C22.0848 9.81815 22.072 9.80921 22.072 9.79818C22.072 9.78723 22.0411 9.76348 22.0032 9.74553C21.9655 9.72749 21.9345 9.70688 21.9345 9.69971C21.9345 9.69255 21.8992 9.67073 21.856 9.65125C21.8128 9.63176 21.7775 9.6097 21.7775 9.60213C21.7775 9.59465 21.7399 9.57194 21.694 9.55173C21.6481 9.53144 21.6038 9.50431 21.5957 9.49127C21.5875 9.47831 21.5499 9.45745 21.5122 9.44506C21.4745 9.43258 21.4436 9.41494 21.4436 9.40593C21.4436 9.39683 21.4038 9.3742 21.3553 9.35569C21.3066 9.33709 21.2669 9.31567 21.2669 9.3081C21.2669 9.30046 21.2315 9.28258 21.1884 9.26833C21.1451 9.25408 21.1098 9.23589 21.1098 9.22792C21.1098 9.21995 21.0656 9.19748 21.0116 9.17808C20.9576 9.15868 20.9134 9.13589 20.9134 9.12752C20.9134 9.11914 20.8648 9.09821 20.8054 9.08098C20.746 9.06367 20.6974 9.04274 20.6974 9.03453C20.6974 9.02623 20.6466 9.00256 20.5845 8.98195C20.5224 8.96134 20.4671 8.93864 20.4617 8.93147C20.4563 8.92431 20.4121 8.90281 20.3635 8.88365C20.315 8.86449 20.2707 8.84234 20.2652 8.83429C20.2406 8.79863 20.1476 8.79243 20.1476 8.82648ZM12.2584 12.6002C12.1801 12.6047 12.1161 12.6168 12.1161 12.6271C12.1161 12.6374 12.0873 12.6459 12.0522 12.6459C11.951 12.6457 11.4799 12.708 11.4582 12.7245C11.4474 12.7326 11.3458 12.7551 11.2324 12.7745C11.1189 12.7939 11.0217 12.8162 11.0163 12.8239C11.011 12.8315 10.9314 12.8531 10.8396 12.8717C10.7478 12.8903 10.6683 12.9117 10.6629 12.9193C10.6575 12.9269 10.6 12.9445 10.5352 12.9586C10.4705 12.9726 10.3821 13 10.3388 13.0194C10.2957 13.0388 10.2272 13.0609 10.1867 13.0685C10.1462 13.0761 10.1131 13.0885 10.1131 13.0959C10.1131 13.1035 10.0512 13.1257 9.97557 13.1453C9.89997 13.1649 9.83814 13.1868 9.83814 13.1938C9.83814 13.201 9.79619 13.2188 9.74482 13.2335C9.69354 13.2481 9.60739 13.2804 9.55337 13.3052C9.49942 13.33 9.43091 13.3562 9.4012 13.3635C9.37149 13.3708 9.34718 13.3826 9.34718 13.39C9.34718 13.3972 9.30692 13.4151 9.25773 13.4296C9.20853 13.4441 9.1562 13.4681 9.14131 13.483C9.12649 13.4978 9.10274 13.5099 9.08857 13.5099C9.05492 13.5099 8.76983 13.6499 8.76137 13.6707C8.75775 13.6795 8.74052 13.6867 8.72297 13.6867C8.6877 13.6867 8.44029 13.8077 8.1395 13.9721C8.03153 14.0311 7.91004 14.094 7.86954 14.1118C7.82905 14.1297 7.79588 14.1501 7.79588 14.1572C7.79588 14.1644 7.76496 14.1824 7.72712 14.1973C7.68936 14.2121 7.65844 14.2297 7.65844 14.2364C7.65844 14.2431 7.62084 14.2651 7.57495 14.2853C7.52906 14.3056 7.47987 14.3338 7.46554 14.3481C7.45128 14.3623 7.42866 14.374 7.4153 14.374C7.40185 14.374 7.37359 14.3901 7.35242 14.4098C7.33124 14.4296 7.27649 14.4622 7.23084 14.4824C7.18519 14.5025 7.14784 14.5247 7.14784 14.5317C7.14784 14.5386 7.11265 14.5613 7.0695 14.5819C7.02642 14.6026 6.99108 14.6249 6.991 14.6318C6.99084 14.6385 6.96427 14.6551 6.93182 14.6685C6.89946 14.6819 6.87297 14.7008 6.87297 14.7104C6.87297 14.7199 6.83762 14.7419 6.79439 14.7592C6.75115 14.7765 6.71581 14.7974 6.71581 14.8057C6.71581 14.8141 6.68916 14.8319 6.65647 14.8455C6.62378 14.859 6.59069 14.8804 6.5828 14.893C6.575 14.9058 6.53546 14.9315 6.49497 14.9503C6.45439 14.9691 6.4213 14.9919 6.4213 15.0009C6.4213 15.0099 6.39457 15.0283 6.36188 15.0418C6.32927 15.0554 6.2961 15.0768 6.28829 15.0894C6.2804 15.1021 6.24087 15.1279 6.20037 15.1467C6.15988 15.1655 6.12671 15.1893 6.12671 15.1996C6.12671 15.2099 6.11567 15.2184 6.10215 15.2184C6.0887 15.2184 6.05199 15.2405 6.02059 15.2675C5.98919 15.2945 5.95827 15.3165 5.95183 15.3166C5.94547 15.3166 5.90924 15.3431 5.87148 15.3755C5.83364 15.4078 5.7921 15.4343 5.77914 15.4343C5.76617 15.4343 5.74854 15.4454 5.73985 15.4589C5.72439 15.4832 5.67198 15.5205 5.61771 15.5459C5.5913 15.5582 5.57423 15.5717 5.47875 15.6553C5.45709 15.6742 5.43447 15.6896 5.42843 15.6896C5.41844 15.6896 5.298 15.7765 5.18995 15.8617C5.12731 15.9111 5.15533 16.0591 5.23657 16.1079C5.25098 16.1165 5.26273 16.1359 5.26273 16.151C5.26273 16.1659 5.27248 16.1843 5.28447 16.1917C5.30959 16.2072 5.4591 16.1622 5.4591 16.1391C5.4591 16.1307 5.50765 16.1084 5.56707 16.0896C5.62649 16.0709 5.67511 16.0495 5.67511 16.0421C5.67511 16.0346 5.71489 16.0175 5.76344 16.0039C5.81206 15.9903 5.85184 15.9732 5.85184 15.9659C5.85184 15.9586 5.90924 15.9363 5.97945 15.9162C6.04966 15.8961 6.10706 15.8734 6.10706 15.8658C6.10706 15.8581 6.16229 15.8366 6.22984 15.8177C6.29731 15.799 6.3614 15.7766 6.37219 15.768C6.38297 15.7594 6.44489 15.737 6.50962 15.7184C6.57443 15.6997 6.63192 15.6782 6.63731 15.6706C6.64271 15.6631 6.70881 15.6415 6.78416 15.6228C6.8596 15.604 6.93029 15.5821 6.94132 15.5739C6.95227 15.5657 7.02981 15.5425 7.11346 15.5222C7.19719 15.502 7.26571 15.4797 7.26571 15.4729C7.26571 15.466 7.32754 15.4487 7.40314 15.4343C7.47874 15.4201 7.54057 15.4025 7.54057 15.3953C7.54057 15.3881 7.62455 15.3656 7.72712 15.3455C7.82977 15.3253 7.91366 15.303 7.91366 15.2958C7.91366 15.2888 8.01092 15.2668 8.12968 15.2469C8.24851 15.2271 8.34569 15.2053 8.34569 15.1983C8.34569 15.1914 8.45398 15.1696 8.58626 15.1498C8.71854 15.13 8.83568 15.1074 8.84647 15.0995C8.85726 15.0917 9.00307 15.0693 9.17045 15.0497C9.33792 15.0302 9.4793 15.0085 9.48469 15.0014C9.5528 14.912 12.1189 14.9129 12.3222 15.0024C12.3438 15.0119 12.4763 15.0343 12.6168 15.0523C12.7572 15.0703 12.8809 15.0917 12.8917 15.1C12.9025 15.1082 12.9997 15.1305 13.1077 15.1496C13.2157 15.1686 13.3085 15.1903 13.3139 15.1979C13.3193 15.2054 13.39 15.2273 13.471 15.2466C13.552 15.2658 13.6271 15.2883 13.6379 15.2965C13.6487 15.3047 13.7062 15.3227 13.7655 15.3366C13.8249 15.3505 13.9045 15.3776 13.9423 15.3969C13.9801 15.4161 14.0442 15.4378 14.0846 15.4451C14.1251 15.4524 14.1582 15.4659 14.1582 15.4751C14.1582 15.4842 14.1935 15.5012 14.2366 15.5128C14.2796 15.5244 14.357 15.555 14.4084 15.5808C14.4598 15.6066 14.5263 15.6338 14.5559 15.6412C14.5856 15.6486 14.6099 15.6606 14.6099 15.6681C14.6099 15.6755 14.6585 15.698 14.718 15.7182C14.7773 15.7384 14.8259 15.7611 14.8259 15.7687C14.8259 15.7763 14.8657 15.7977 14.9143 15.8163C14.9629 15.8348 15.0026 15.8569 15.0026 15.8653C15.0026 15.8738 15.0447 15.8965 15.096 15.9159C15.1472 15.9352 15.1963 15.9629 15.2049 15.9775C15.2136 15.9919 15.2328 16.0039 15.2477 16.0039C15.2626 16.0039 15.2869 16.0159 15.3017 16.0308C15.3165 16.0456 15.3583 16.073 15.3945 16.0917C15.4308 16.1105 15.4701 16.1337 15.4819 16.1435C15.5287 16.1818 15.7017 16.2919 15.7342 16.304C15.753 16.311 15.7685 16.3254 15.7685 16.3357C15.7685 16.3461 15.7847 16.3598 15.8043 16.366C15.824 16.3723 15.8572 16.3927 15.878 16.4115C15.8987 16.4303 15.9586 16.4766 16.0108 16.5144C16.0631 16.5522 16.1243 16.603 16.147 16.6273C16.1695 16.6516 16.1953 16.6715 16.2043 16.6715C16.2192 16.6715 16.2976 16.7379 16.4361 16.8678C16.4649 16.8949 16.5533 16.9744 16.6325 17.0446C16.8104 17.202 16.8587 17.2503 16.9494 17.3604C16.9887 17.4082 17.0638 17.4932 17.1163 17.5494C17.1689 17.6056 17.2472 17.6924 17.2904 17.7424C17.3335 17.7924 17.3888 17.8551 17.4131 17.8817C17.4374 17.9083 17.4573 17.9378 17.4573 17.9473C17.4573 17.9569 17.4772 17.9812 17.5015 18.0013C17.5445 18.0369 17.5815 18.086 17.6081 18.1427C17.6205 18.1692 17.6339 18.1862 17.7175 18.2817C17.7364 18.3034 17.7519 18.328 17.7519 18.3365C17.7519 18.345 17.778 18.3825 17.8099 18.4199C17.8419 18.4573 17.8685 18.4985 17.8689 18.5115C17.8693 18.5244 17.8817 18.5422 17.8965 18.5508C17.9112 18.5594 17.9379 18.5952 17.9559 18.6303C17.9738 18.6654 17.9953 18.6941 18.0037 18.6941C18.012 18.6941 18.03 18.7249 18.0437 18.7626C18.0573 18.8003 18.08 18.8427 18.0941 18.8569C18.1083 18.871 18.1355 18.9131 18.1546 18.9504C18.1737 18.9876 18.1954 19.0226 18.2029 19.028C18.2156 19.0372 18.2315 19.0656 18.3283 19.2537C18.3506 19.297 18.3795 19.3433 18.3926 19.3567C18.4056 19.3701 18.4266 19.4121 18.439 19.4499C18.4516 19.4879 18.4682 19.5189 18.4761 19.5189C18.4839 19.5189 18.5062 19.563 18.5256 19.6171C18.545 19.671 18.5671 19.7152 18.5747 19.7152C18.5823 19.7152 18.6043 19.7594 18.6238 19.8134C18.6432 19.8674 18.6653 19.9116 18.6729 19.9116C18.6805 19.9116 18.7026 19.9558 18.722 20.0098C18.7414 20.0638 18.7638 20.108 18.7718 20.108C18.7798 20.108 18.7982 20.1456 18.8127 20.1914C18.8273 20.2373 18.8551 20.308 18.8748 20.3485C18.8944 20.389 18.9265 20.4553 18.9461 20.4958C18.9657 20.5363 18.994 20.6092 19.0091 20.6578C19.0241 20.7064 19.0421 20.7506 19.0491 20.756C19.056 20.7614 19.0777 20.8144 19.0971 20.8738C19.1166 20.9332 19.1433 20.9995 19.1565 21.0211C19.1696 21.0427 19.1907 21.1032 19.2033 21.1555C19.2158 21.2077 19.2381 21.2697 19.2529 21.2929C19.2676 21.3162 19.286 21.3662 19.2937 21.404C19.3013 21.4418 19.3235 21.5081 19.3429 21.5513C19.3623 21.5945 19.3843 21.663 19.3919 21.7035C19.3996 21.744 19.4121 21.7771 19.4199 21.7771C19.4277 21.7771 19.4508 21.8456 19.4712 21.9293C19.4917 22.013 19.5139 22.0859 19.5206 22.0913C19.5273 22.0967 19.5487 22.1667 19.5682 22.247C19.5877 22.3272 19.6148 22.4143 19.6284 22.4406C19.6421 22.4669 19.6644 22.5448 19.6782 22.6139C19.6919 22.6829 19.7089 22.7393 19.716 22.7393C19.723 22.7393 19.7449 22.81 19.7647 22.8964C19.7844 22.9829 19.8071 23.0536 19.8152 23.0536C19.8233 23.0536 19.8359 23.0889 19.8432 23.1321C19.8607 23.2358 19.8922 23.2327 19.8926 23.1271C19.8936 22.9075 19.8251 21.7665 19.8106 21.7608C19.8015 21.7572 19.7941 21.7174 19.7941 21.6724C19.7942 21.5367 19.7348 20.9846 19.7156 20.9425C19.7058 20.921 19.6832 20.784 19.6654 20.6382C19.6476 20.4924 19.626 20.3642 19.6175 20.3534C19.609 20.3426 19.5909 20.2521 19.5774 20.1522C19.564 20.0522 19.5467 19.9705 19.5392 19.9705C19.5317 19.9705 19.5096 19.8689 19.4901 19.7447C19.4706 19.6205 19.4491 19.5189 19.4421 19.5189C19.4352 19.5189 19.4131 19.4261 19.393 19.3127C19.3727 19.1993 19.3499 19.1065 19.342 19.1065C19.3341 19.1065 19.3122 19.0269 19.2934 18.9297C19.2744 18.8326 19.2529 18.753 19.2455 18.753C19.238 18.753 19.2203 18.6934 19.2061 18.6205C19.192 18.5476 19.1648 18.4526 19.1457 18.4094C19.1266 18.3662 19.1006 18.2802 19.088 18.2183C19.0752 18.1563 19.0582 18.1015 19.0499 18.0964C19.0417 18.0914 19.0232 18.0382 19.0088 17.9783C18.9945 17.9184 18.9764 17.8693 18.9687 17.8693C18.9608 17.8693 18.9385 17.8075 18.9189 17.7319C18.8993 17.6563 18.8773 17.5945 18.8699 17.5945C18.8627 17.5945 18.8413 17.5392 18.8224 17.4717C18.8035 17.4042 18.7819 17.3445 18.7744 17.3392C18.7669 17.3338 18.745 17.2785 18.7257 17.2165C18.7065 17.1543 18.6844 17.1035 18.6766 17.1035C18.6689 17.1035 18.6467 17.0505 18.6273 16.9857C18.6079 16.9209 18.5853 16.8678 18.577 16.8678C18.5688 16.8678 18.551 16.8281 18.5374 16.7795C18.5237 16.7309 18.5058 16.6911 18.4975 16.6911C18.4891 16.6911 18.4665 16.6469 18.447 16.593C18.4276 16.5389 18.4056 16.4947 18.398 16.4947C18.3904 16.4947 18.3683 16.4505 18.3489 16.3966C18.3295 16.3426 18.3073 16.2984 18.2998 16.2984C18.2922 16.2984 18.2701 16.2542 18.2507 16.2002C18.2312 16.1462 18.2095 16.102 18.2023 16.102C18.1951 16.102 18.174 16.0622 18.1555 16.0137C18.1369 15.9651 18.1144 15.9253 18.1056 15.9253C18.0968 15.9253 18.081 15.901 18.0707 15.8713C18.0536 15.8223 17.9757 15.6927 17.9309 15.6387C17.9211 15.6269 17.8988 15.5896 17.8813 15.5558C17.8386 15.4731 17.7596 15.3531 17.7229 15.3149C17.7064 15.2978 17.6929 15.2754 17.6929 15.2651C17.6929 15.2548 17.6668 15.2157 17.6348 15.1783C17.6029 15.1409 17.5764 15.0996 17.5759 15.0865C17.5755 15.0734 17.5574 15.0532 17.5359 15.0416C17.5142 15.0301 17.4966 15.0079 17.4966 14.9926C17.4966 14.9771 17.4789 14.955 17.4573 14.9434C17.4357 14.9319 17.418 14.91 17.418 14.8947C17.418 14.8795 17.4024 14.8556 17.3833 14.8414C17.3642 14.8273 17.3327 14.7909 17.3133 14.7604C17.2717 14.6954 17.2509 14.6704 17.1332 14.5447C17.0847 14.4927 17.0449 14.4449 17.0449 14.4385C17.0449 14.4229 16.6189 14.0009 16.6032 14.0009C16.5965 14.0009 16.5518 13.9611 16.5039 13.9125C16.456 13.8639 16.4084 13.8241 16.3982 13.8241C16.3878 13.8241 16.368 13.8078 16.3538 13.7879C16.3397 13.7681 16.3089 13.7416 16.2855 13.7292C16.2621 13.7168 16.2309 13.6954 16.2163 13.6819C16.1647 13.634 16.0259 13.5296 16.0138 13.5296C16.007 13.5296 15.9726 13.5075 15.9371 13.4805C15.9018 13.4535 15.8631 13.4314 15.8511 13.4314C15.8392 13.4314 15.8223 13.4194 15.8136 13.4048C15.805 13.3901 15.7626 13.3619 15.7194 13.342C15.6762 13.3221 15.6361 13.2991 15.6304 13.2909C15.6141 13.2675 15.3147 13.1172 15.2847 13.1172C15.2699 13.1172 15.2579 13.1087 15.2579 13.0983C15.2579 13.0879 15.223 13.07 15.1803 13.0585C15.1375 13.047 15.0977 13.0298 15.0919 13.0203C15.086 13.0108 15.0303 12.9873 14.9683 12.968C14.9062 12.9488 14.8506 12.9261 14.8448 12.9177C14.8389 12.9092 14.7726 12.8865 14.6974 12.8674C14.6223 12.8481 14.5563 12.8265 14.5507 12.8191C14.5452 12.8118 14.4612 12.7899 14.3642 12.7704C14.2672 12.7508 14.1832 12.7287 14.1776 12.7213C14.1654 12.7048 13.7775 12.6459 13.6812 12.6459C13.643 12.6459 13.6083 12.6357 13.6042 12.6232C13.5964 12.6 12.5709 12.5825 12.2584 12.6002ZM10.9771 16.7108C10.9771 16.7215 10.9286 16.7304 10.8693 16.7304C10.7153 16.7304 10.1695 16.7873 10.1229 16.8083C10.1012 16.818 9.97782 16.8405 9.84852 16.8583C9.7193 16.8761 9.59998 16.8979 9.58348 16.9066C9.56689 16.9154 9.48493 16.9336 9.4012 16.947C9.31747 16.9604 9.24903 16.9776 9.24903 16.9851C9.24903 16.9926 9.16063 17.0149 9.05266 17.0347C8.94462 17.0546 8.8563 17.0764 8.8563 17.0834C8.8563 17.0904 8.77675 17.1122 8.67957 17.1319C8.58231 17.1516 8.50285 17.1737 8.50285 17.181C8.50285 17.1884 8.43216 17.2103 8.34569 17.23C8.2593 17.2495 8.18861 17.2717 8.18861 17.2792C8.18861 17.2866 8.12235 17.3083 8.04136 17.3274C7.96036 17.3465 7.8941 17.369 7.8941 17.3774C7.8941 17.3859 7.84104 17.404 7.77623 17.4177C7.71142 17.4314 7.65844 17.4492 7.65844 17.4573C7.65844 17.4652 7.59653 17.4879 7.52093 17.5074C7.44533 17.5271 7.38349 17.5492 7.38349 17.5568C7.38349 17.5643 7.32609 17.586 7.25588 17.605C7.18568 17.624 7.12819 17.6457 7.12819 17.6531C7.12819 17.6606 7.07079 17.6831 7.00058 17.7031C6.93037 17.7233 6.87297 17.7458 6.87297 17.7533C6.87297 17.7608 6.84865 17.7729 6.81894 17.7801C6.78924 17.7874 6.72072 17.8139 6.66678 17.8391C6.61275 17.8643 6.53104 17.8961 6.48514 17.9097C6.43917 17.9233 6.40165 17.9407 6.40165 17.9485C6.40165 17.9561 6.36188 17.9736 6.31325 17.9872C6.2647 18.0008 6.22493 18.0193 6.22493 18.0284C6.22493 18.0375 6.1763 18.0591 6.11688 18.0764C6.05755 18.0936 6.00892 18.1146 6.00892 18.1229C6.00892 18.1311 5.97132 18.1502 5.92543 18.1651C5.87953 18.18 5.79339 18.2167 5.73397 18.2465C5.67463 18.2764 5.61497 18.3009 5.60145 18.3011C5.58792 18.3013 5.57689 18.3095 5.57689 18.3195C5.57689 18.3294 5.5438 18.3481 5.50322 18.3609C5.46273 18.3738 5.41192 18.3951 5.39035 18.4083C5.36877 18.4216 5.30911 18.4484 5.25782 18.4678C5.20646 18.4872 5.16451 18.5093 5.16451 18.5169C5.16451 18.5245 5.12916 18.5424 5.08601 18.5567C5.04278 18.5709 5.00743 18.5888 5.00743 18.5964C5.00743 18.604 4.96548 18.6261 4.91412 18.6455C4.86283 18.6649 4.81646 18.686 4.81106 18.6924C4.80567 18.6989 4.72169 18.7439 4.62452 18.7924C4.52734 18.8409 4.44337 18.8855 4.43797 18.8914C4.43258 18.8973 4.37735 18.9267 4.31519 18.9566C4.17848 19.0227 4.17309 19.1066 4.29241 19.3092C4.31334 19.3448 4.52001 19.3137 4.58523 19.2651C4.59602 19.257 4.65745 19.2391 4.72169 19.2252C4.78594 19.2115 4.85228 19.1929 4.86895 19.184C4.8857 19.1751 4.97015 19.1524 5.05654 19.1336C5.14293 19.1148 5.21805 19.0937 5.22344 19.0868C5.22884 19.0799 5.32827 19.0582 5.44437 19.0386C5.56047 19.019 5.65547 18.9963 5.65547 18.9883C5.65547 18.9803 5.75708 18.9578 5.88131 18.9383C6.00545 18.9188 6.10706 18.897 6.10706 18.8897C6.10706 18.8825 6.21978 18.8604 6.35745 18.8408C6.49521 18.8211 6.61227 18.7984 6.61775 18.7905C6.62322 18.7826 6.7204 18.765 6.83376 18.7515C6.94712 18.738 7.0443 18.7204 7.04969 18.7125C7.05509 18.7046 7.20532 18.6824 7.38349 18.6633C7.56175 18.6441 7.7119 18.6223 7.7173 18.6148C7.72752 18.6006 8.43168 18.5367 8.57483 18.5368C8.61983 18.5369 8.65961 18.5286 8.66315 18.5183C8.68585 18.4536 11.1427 18.4517 11.2683 18.5162C11.2863 18.5255 11.469 18.5484 11.6742 18.567C11.8794 18.5857 12.0517 18.6073 12.0571 18.6149C12.0625 18.6225 12.1796 18.645 12.3173 18.6647C12.455 18.6844 12.5676 18.7066 12.5676 18.7138C12.5676 18.7211 12.6317 18.7384 12.7101 18.7521C12.7883 18.766 12.8613 18.7842 12.8721 18.7927C12.8828 18.8012 12.969 18.8235 13.0635 18.8422C13.158 18.8609 13.2353 18.8824 13.2353 18.8901C13.2353 18.8976 13.2861 18.9151 13.3482 18.9288C13.4104 18.9425 13.4965 18.9694 13.5397 18.9886C13.5829 19.0078 13.6492 19.0297 13.687 19.0375C13.7248 19.0451 13.7734 19.0624 13.795 19.0759C13.8166 19.0893 13.8851 19.1161 13.9472 19.1355C14.0093 19.1549 14.0601 19.1764 14.0601 19.1834C14.0601 19.1904 14.0999 19.2078 14.1485 19.2222C14.197 19.2366 14.2368 19.2549 14.2368 19.2631C14.2368 19.2712 14.2788 19.2936 14.3301 19.3127C14.3814 19.3318 14.4366 19.3585 14.4528 19.3718C14.469 19.3853 14.5154 19.4079 14.5559 19.4222C14.5965 19.4365 14.6296 19.4546 14.6296 19.4624C14.6296 19.4701 14.6596 19.4865 14.6963 19.4986C14.7329 19.5106 14.7829 19.5379 14.8073 19.559C14.8316 19.5801 14.8618 19.5974 14.8743 19.5974C14.8869 19.5974 14.9142 19.6131 14.9352 19.6325C14.9561 19.6517 15.0063 19.683 15.0468 19.7021C15.0873 19.7211 15.1205 19.7452 15.1205 19.7554C15.1205 19.7657 15.1315 19.7742 15.1451 19.7742C15.1585 19.7742 15.2005 19.8007 15.2383 19.8331C15.2761 19.8654 15.3123 19.8919 15.3187 19.8919C15.3252 19.8919 15.3488 19.9074 15.3713 19.9263C15.4162 19.9642 15.4693 20.0061 15.631 20.1315C15.6905 20.1776 15.7506 20.2309 15.7647 20.25C15.7789 20.2691 15.7987 20.2847 15.809 20.2847C15.8247 20.2847 15.9699 20.4303 16.2659 20.7428C16.2965 20.775 16.3361 20.8243 16.354 20.8524C16.3717 20.8804 16.402 20.9148 16.4211 20.9289C16.4402 20.943 16.4558 20.9641 16.4558 20.9758C16.4558 20.9874 16.4757 21.0171 16.5 21.0416C16.5243 21.0663 16.5593 21.107 16.5779 21.1323C16.7767 21.4032 16.8485 21.4692 16.8485 21.3806C16.8485 21.2647 16.8014 20.8934 16.7868 20.8934C16.7775 20.8934 16.77 20.8691 16.77 20.8395C16.7701 20.7658 16.7088 20.4343 16.6928 20.4222C16.6858 20.4168 16.6638 20.3417 16.6439 20.2552C16.6239 20.1688 16.6018 20.0937 16.5946 20.0883C16.5874 20.0829 16.565 20.0229 16.5448 19.9548C16.5245 19.8868 16.5015 19.8271 16.4935 19.8223C16.4856 19.8174 16.4638 19.7647 16.4451 19.7054C16.4264 19.646 16.4036 19.5974 16.3942 19.5974C16.3849 19.5974 16.3772 19.5849 16.3772 19.5695C16.3772 19.5401 16.2416 19.2607 16.2192 19.244C16.212 19.2385 16.1872 19.1944 16.1642 19.1458C16.1184 19.0491 16.0462 18.9256 16.0265 18.9101C16.0069 18.8948 15.9649 18.8254 15.9522 18.7874C15.9458 18.7685 15.9326 18.753 15.9227 18.753C15.9128 18.753 15.8991 18.7376 15.8924 18.7186C15.8795 18.683 15.8631 18.6613 15.7817 18.5725C15.755 18.5434 15.7301 18.5115 15.7264 18.5016C15.687 18.399 15.0964 17.817 14.9163 17.7032C14.8828 17.6821 14.8483 17.6533 14.8397 17.6394C14.8311 17.6255 14.8134 17.6137 14.8004 17.6133C14.7874 17.6128 14.7462 17.5863 14.7089 17.5544C14.6715 17.5224 14.6301 17.4962 14.617 17.4962C14.6039 17.4962 14.5783 17.4814 14.5601 17.4632C14.5228 17.4259 14.4384 17.3759 14.3301 17.3272C14.2896 17.3089 14.2565 17.2864 14.2565 17.2772C14.2565 17.2681 14.2454 17.2603 14.2319 17.26C14.2184 17.2597 14.1631 17.2372 14.1092 17.2101C14.0552 17.183 13.9712 17.1469 13.9227 17.1298C13.874 17.1128 13.8298 17.0929 13.8244 17.0855C13.819 17.0782 13.7572 17.0553 13.687 17.0347C13.6168 17.0142 13.555 16.9922 13.5495 16.9859C13.5441 16.9797 13.4911 16.9627 13.4317 16.9481C13.3723 16.9336 13.3149 16.915 13.3041 16.9067C13.2802 16.8885 12.9936 16.8286 12.9305 16.8286C12.9056 16.8286 12.8822 16.8205 12.8786 16.8105C12.8718 16.7918 12.394 16.7304 12.2556 16.7304C12.2125 16.7304 12.1718 16.7215 12.1651 16.7108C12.1574 16.6984 11.9358 16.6911 11.565 16.6911C11.1861 16.6911 10.9771 16.6981 10.9771 16.7108Z" fill="black"/>
</svg>
