<svg fill="none" height="32" viewBox="0 0 32 32" width="32" xmlns="http://www.w3.org/2000/svg"><g clip-rule="evenodd" fill="#000" fill-rule="evenodd"><path d="m16 30.8c8.1738 0 14.8-6.6262 14.8-14.8 0-8.17381-6.6262-14.8-14.8-14.8-8.17381 0-14.8 6.62619-14.8 14.8 0 8.1738 6.62619 14.8 14.8 14.8zm0 1.2c8.8366 0 16-7.1634 16-16 0-8.83656-7.1634-16-16-16-8.83656 0-16 7.16344-16 16 0 8.8366 7.16344 16 16 16z"/><path d="m15.8962 8.39607c-.3834.03768-.512.0537-.5205.06489-.0054.00717-.107.02915-.2257.04887-.1189.01965-.2205.04211-.2259.04992-.0053.00773-.08.0293-.1657.04782-.0858.0186-.1653.0409-.1768.04968-.0114.00869-.0649.02761-.1189.04203-.0541.01441-.1026.03164-.1081.0384-.0124.01554-.2114.07898-.2476.07898-.015 0-.0273.00765-.0273.01699s-.0486.0322-.108.05088c-.0593.01868-.1081.03978-.1081.04686-.0001.00717-.0532.02947-.1179.0496-.0647.0202-.1176.04363-.1176.05217 0 .00853-.0487.03083-.108.04951-.0594.01868-.108.04018-.108.04774 0 .00757-.0365.02585-.0812.04058-.0446.01474-.091.03607-.1031.04734-.012.01128-.0529.03575-.0906.05427-.1228.06014-.4023.21545-.4124.22905-.0054.00725-.0474.02979-.0933.05-.0459.02029-.0835.04267-.0835.04984s-.0311.0252-.0691.0401c-.0381.01497-.0836.04307-.1013.06263-.0176.01949-.0423.03543-.055.03543-.0125 0-.0576.02625-.0999.05837-.0425.03204-.0842.05861-.0928.05885-.0085.00033-.0262.00942-.0393.02029-.056.04654-.2305.15704-.248.15704-.0106 0-.0262.0112-.0349.0248-.0086.0136-.0488.0421-.0893.0633-.0405.0213-.0737.0441-.0737.0507s-.0309.0288-.0687.0491-.0687.0441-.0687.0527-.0221.024-.0491.0343c-.027.0102-.0491.0277-.0491.0388 0 .011-.0098.0201-.0218.0201-.0119 0-.0551.0265-.096.0589s-.0841.0589-.096.0589c-.0118 0-.0326.0177-.046.0393-.0136.0216-.0326.0393-.0424.0393s-.0555.0309-.1017.0687c-.0461.0378-.093.0687-.1044.0687-.0113 0-.03.0177-.0415.0393-.0116.0216-.0339.0393-.0496.0393-.0158 0-.0397.0177-.0532.0392-.0135.0217-.0351.0393-.0481.0393-.0131 0-.0354.0155-.0496.0344-.0259.0342-.0774.0717-.1333.097-.0163.0073-.0411.0294-.0552.049s-.0355.0356-.0474.0356c-.012 0-.0358.0137-.0529.0305-.0268.0261-.1101.09-.40329.3091-.11368.085-.17744.1483-.16335.1624.01433.0144.19306-.0448.21154-.0699.0054-.0074.054-.0299.108-.05.0539-.02.1026-.0421.108-.049.0054-.007.0517-.0285.103-.0479.0514-.0194.0933-.0415.0933-.049 0-.0077.0376-.0261.0835-.041s.1321-.0515.1915-.0814c.0593-.0299.119-.0544.1325-.0546.0135-.0001.0246-.0089.0246-.0195s.0233-.0252.052-.0323c.0286-.0072.1014-.0382.162-.0689.0604-.0307.1254-.0559.1443-.056.0189-.0002.0344-.0081.0344-.0177s.0597-.0334.1325-.0528c.073-.0194.137-.0411.1425-.048.0053-.007.076-.0293.157-.0498.081-.0204.1517-.0427.1571-.0497s.0938-.0285.1964-.0478c.1025-.0193.1954-.0417.2062-.0497.0108-.0082.1345-.0305.2749-.0497s.2597-.0411.2651-.0486c.0509-.0712 1.7349-.0706 1.895.0007.0215.0096.1453.0327.2749.0512.1296.0186.24.0396.2454.0468s.0894.0294.1866.0493.1811.0422.1865.0495c.0055.0074.0717.0297.1473.0497.0756.0199.1419.0416.1473.0481s.0496.024.0981.0387c.0487.0147.1062.0372.1277.0498.0216.0128.0879.04.1473.0606.0594.0207.1124.043.1179.0497.0054.0066.0429.024.0834.0384.0405.0145.0736.0326.0736.0401s.0442.0296.0982.049c.054.0195.0982.0411.0982.0481s.0375.0294.0834.0498.0962.0492.1118.0642c.0155.0149.0531.0359.0835.0464.0303.0106.0551.0259.0551.034s.0354.0307.0786.0501c.0431.0195.0785.0426.0785.0513 0 .0086.0328.0313.073.0503.0401.0191.0878.0482.106.0647.0311.0285.0765.0647.1789.1427.093.0708.2616.2019.2842.221.2708.2281.7539.7169.9612.9723.0307.0378.0646.0787.0755.0909s.0419.0506.0689.0853.069.0831.0933.1077.0442.0541.0442.0658.0155.0327.0344.0468.052.0588.0732.0993c.0213.0405.0451.0737.0528.0737.0078 0 .0257.0204.0398.0454.0594.1054.1189.1902.1334.1902.0085 0 .0297.0354.047.0785.0173.0433.0382.0786.0464.0786.0083 0 .0263.0255.0401.0567s.0424.0766.0637.1011c.0212.0246.0386.0548.0386.0673 0 .0126.0173.0412.0382.0638.037.0398.0749.1054.1573.2731.0218.0444.0531.0919.0694.1055.0164.0136.0297.0362.0297.0503s.0117.0373.0259.0516c.0143.0142.0421.0679.0616.1192.0196.0513.0425.0933.051.0933s.0305.0397.0491.0884c.0185.0485.0396.0883.0468.0883s.029.0442.0485.0982c.0194.0539.0432.0981.0529.0981s.0177.0154.0177.0343c0 .0187.0299.0961.0665.1718.125.2588.1691.361.1691.3917 0 .0169.0086.0306.0191.0306s.0332.0487.0505.1081c.0172.0593.0375.108.045.108.0074 0 .03.0574.0501.1276s.0423.1277.0495.1277c.0071 0 .0248.0419.0393.0932s.0379.112.0521.1348c.0141.0228.0389.0926.0553.1553.0163.0625.0373.119.0467.1254.0093.0064.0288.0624.0435.1246.0145.062.0328.1128.0405.1128.0078 0 .0196.0277.0264.0616.0121.0607.0136.0614.1022.0493.2233-.0306.268-.1101.1771-.3137-.018-.0402-.0319-.1699-.0394-.3666-.018-.4714-.0558-1.0299-.0705-1.0408-.0074-.0054-.0245-.1423-.0382-.3043-.0137-.1621-.0315-.3035-.0396-.3143-.0082-.0108-.0307-.1544-.05-.319-.0194-.1648-.0428-.2995-.0519-.2995-.0092 0-.0167-.0199-.0166-.0442.0004-.0701-.0657-.4751-.0793-.486-.0067-.0054-.0282-.1027-.0478-.216-.0195-.1135-.0417-.2106-.0492-.216s-.0293-.0894-.0483-.1866-.0414-.1856-.0498-.1963c-.0084-.0108-.0306-.0904-.0494-.1768-.0187-.0864-.041-.1659-.0494-.1767-.0085-.0109-.0266-.0704-.0403-.1326-.0137-.0621-.0314-.1129-.0393-.1129s-.03-.0641-.049-.1423c-.019-.0784-.0411-.1469-.0493-.1523-.008-.0054-.0301-.0628-.0488-.1276-.0189-.0648-.0451-.1355-.0584-.1571-.0134-.0216-.0361-.0812-.0506-.1326-.0145-.0512-.0333-.0932-.0417-.0932-.0085 0-.0154-.0094-.0154-.0208 0-.0331-.2319-.5307-.2557-.5487-.0072-.0053-.0289-.0518-.0483-.1031s-.0421-.0932-.0505-.0932c-.0085 0-.0304-.0392-.0486-.0871-.0183-.0479-.0455-.0919-.0606-.0976-.015-.0058-.0272-.0223-.0272-.0367 0-.0145-.0229-.0567-.0508-.0939s-.0587-.0875-.0683-.1118c-.0096-.0244-.0265-.0442-.0376-.0442-.011 0-.0201-.0091-.0201-.0202 0-.0322-.1317-.2184-.2307-.32628-.0243-.02641-.0442-.05314-.0442-.05926 0-.04065-.3827-.43548-.5989-.61784-.0756-.06385-.1514-.12914-.1686-.14517-.0171-.01602-.0369-.02914-.044-.02914s-.0534-.03092-.1029-.06876c-.0495-.03776-.1027-.06868-.1181-.06868-.0153 0-.0279-.00909-.0279-.02012 0-.01111-.0204-.02794-.0455-.03744-.025-.0095-.0783-.03961-.1184-.06683-.0402-.02721-.0993-.05531-.1313-.06231-.0321-.00709-.0582-.02029-.0582-.02939s-.0332-.02737-.0737-.04066c-.0405-.01328-.0913-.03486-.1129-.04798-.0216-.01313-.0835-.03543-.1375-.0496-.0539-.01409-.1027-.03236-.1082-.04049-.0056-.00806-.0895-.03068-.1866-.05024-.0971-.01957-.1809-.04074-.1863-.04718-.0349-.04155-.9481-.0913-1.2076-.06586zm4.2514.43041c0 .03116.2017.245.232.24589.0158.00048.7783.77492.8435.85672.0245.03084.0624.07811.084.10511.0217.027.0744.0977.1172.157.0429.0595.0913.1221.1075.1392.0163.0171.0297.0409.0297.053s.0118.029.0263.0376.0427.0533.0627.0992.0433.0834.0519.0834.0293.0329.0461.073c.0167.0401.0377.0777.0465.0835.0089.0058.0346.0503.057.0988.0225.0487.0537.1105.0693.1375.0157.027.0533.1021.0838.1669s.061.1223.0679.1276c.007.0054.029.0629.0491.1277.02.0648.0462.1278.0582.1401.012.0122.0337.0718.0483.1326.0145.0606.0329.1102.0408.1102s.0298.0641.0486.1424c.0189.0783.0408.1512.0487.162s.0297.0903.0486.1767c.0187.0864.0406.1659.0487.1767s.0307.1169.0502.2357c.0194.1188.042.2249.05.2357.0082.0107.0261.1256.04.2553.0139.1295.0313.24.0386.2454.0777.0574.0772 2.5754-.0006 2.6313-.0074.0054-.025.138-.0389.2946-.014.1566-.0314.2891-.0387.2945-.0074.0054-.0295.1425-.0492.3044-.0198.162-.0425.3034-.0505.3142-.0081.0108-.0308.1257-.0505.2553s-.0415.2401-.0482.2455c-.0069.0054-.0284.1026-.0478.216s-.0419.215-.0501.2258c-.0081.0108-.0304.1102-.0496.221-.0192.1107-.0408.2012-.0482.2012-.0073 0-.0298.0839-.0499.1866-.0202.1025-.043.1865-.0507.1865s-.0251.0619-.0386.1375c-.0134.0756-.0313.1374-.0397.1374-.0083 0-.0301.0685-.0484.1522-.0184.0837-.0399.1611-.0479.1719-.008.0107-.0256.0681-.0393.1276-.0135.0594-.0404.1434-.0595.1865-.0193.0432-.0458.1338-.059.2013-.0133.0675-.0301.1228-.0374.1228s-.0293.0618-.049.1374c-.0195.0756-.0417.1374-.0491.1374-.0075 0-.0252.0464-.0394.1032-.0142.0567-.0324.1119-.0403.1227s-.0305.0726-.0502.1374-.0412.1223-.0478.1277-.0289.0672-.0494.1374c-.0206.0702-.0426.1321-.049.1375s-.0236.0496-.0384.0982-.0373.106-.0502.1276c-.0128.0217-.0392.0879-.0587.1473s-.0414.1124-.0489.1178c-.0074.0054-.0299.0651-.0499.1325-.02.0676-.0422.1228-.0492.1228s-.0239.0369-.0374.0821c-.0135.0451-.0362.1003-.0506.1227-.0143.0224-.0359.0782-.048.1241s-.0293.0835-.0382.0835c-.0088 0-.0315.0486-.0501.108-.0187.0594-.0406.108-.0487.108s-.0307.053-.0504.1178c-.0196.0648-.0422.1178-.0502.1178s-.0304.0442-.0499.0982c-.0194.054-.0412.0982-.0483.0982-.0072 0-.0284.0486-.0471.108-.0186.0594-.0398.108-.047.108-.0071 0-.0253.0287-.0403.0638s-.0382.0771-.0515.0933c-.0132.0162-.0359.0626-.0501.1031-.0144.0405-.0322.0737-.0397.0737-.0076 0-.0296.0441-.049.0981-.0195.054-.0416.0982-.0492.0982-.0075 0-.0297.0442-.0491.0982s-.0424.0982-.051.0982c-.0087 0-.0158.0088-.0158.0196 0 .0361.0681.0201.1276-.03.0995-.0837.3601-.3257.5124-.4757.0795-.0782.1506-.1423.158-.1423.0285 0 1.5388-1.5379 1.5388-1.5668 0-.0083.0243-.0373.054-.0645s.1243-.133.2102-.2351c.207-.2461.21-.2495.2611-.3019.0243-.025.0442-.0538.0442-.0641s.0199-.0375.0441-.0603c.0244-.0229.0707-.0783.1032-.1232.0323-.0449.0788-.1017.103-.1263.0243-.0245.0442-.0543.0442-.0662s.0177-.031.0393-.0426.0393-.0303.0393-.0416.0309-.0582.0687-.1044c.0378-.0461.0687-.0896.0687-.0966s.0178-.0326.0393-.0569c.0717-.0806.0881-.1034.1272-.1772.0214-.0402.0455-.0731.0535-.0731.0081 0 .0294-.0288.0474-.0639s.0382-.0682.045-.0736c.0067-.0054.0475-.0628.0904-.1276.0431-.0649.0837-.1223.0902-.1277s.0281-.0451.0481-.0884c.0199-.0431.045-.0845.0557-.0917.0107-.0074.0333-.0393.0501-.0711.0884-.1667.1258-.2309.1401-.2401.0086-.0057.0258-.0321.0381-.059.0123-.0267.0524-.1016.089-.1665.0366-.0648.0815-.1509.0996-.1914.0182-.0405.0406-.0736.0497-.0736.0092 0 .0167-.0111.0168-.0246s.0295-.082.0654-.1522c.036-.0702.0718-.153.0795-.184s.0257-.0681.04-.0823c.0144-.0144.0379-.0663.0524-.1155s.0319-.0894.0387-.0894.0234-.0376.0372-.0835c.0137-.0459.031-.0879.0384-.0933.0142-.0103.0803-.2071.0803-.2393 0-.0103.0119-.0307.0264-.0452.0145-.0146.0379-.0802.0518-.1459s.0317-.1195.0396-.1195c.0078 0 .0307-.0751.0508-.1669.0202-.0917.0426-.1669.05-.1669s.0287-.0861.0473-.1914c.0187-.1053.0406-.2003.0488-.2111s.0254-.1036.0383-.2062c.0128-.1026.0312-.2043.0408-.2258.071-.1598.0705-1.6706-.0006-1.7674-.0079-.0107-.0259-.1036-.04-.2061-.0142-.1026-.0318-.191-.0392-.1964-.0073-.0054-.029-.0916-.0483-.1915-.0192-.0999-.0414-.1816-.0495-.1816-.008 0-.03-.0641-.0489-.1424-.019-.0783-.0405-.1468-.0479-.1522-.0073-.0054-.0248-.0496-.0389-.0981-.0141-.0487-.0462-.1326-.0714-.1866s-.0517-.1225-.0591-.1522c-.0072-.0297-.0193-.054-.0267-.054-.0075 0-.0254-.0332-.0399-.0736-.0145-.0405-.0327-.0781-.0404-.0835-.0079-.0054-.0328-.0496-.0557-.0982-.0228-.0486-.0694-.1369-.1035-.1964-.0341-.0594-.0748-.1322-.0903-.1619-.0157-.0298-.0366-.0541-.0466-.0541s-.0182-.0119-.0182-.0265c0-.0145-.0265-.0631-.0589-.1078s-.0589-.0854-.0589-.0905c0-.015-.1902-.2728-.2341-.3173-.0225-.0227-.0408-.0513-.0408-.0636s-.0177-.0334-.0393-.0468c-.0216-.0135-.0393-.035-.0393-.0478 0-.0129-.0204-.0395-.0454-.0591-.025-.0198-.0537-.0502-.0638-.0678-.0723-.1255-.9081-.9649-.9911-.9954-.0093-.0034-.0518-.0387-.0945-.0786-.1444-.1347-.1754-.1607-.1917-.1607-.0088 0-.0341-.0178-.0561-.0397-.0651-.0647-.1938-.1595-.2412-.1779-.0243-.0093-.0442-.02568-.0442-.03623 0-.01054-.0332-.0347-.0737-.05362s-.0852-.05024-.0993-.06964c-.014-.0194-.0384-.03526-.054-.03526-.0155 0-.0283-.00894-.0283-.01997 0-.01095-.0309-.0347-.0688-.05265-.0377-.01804-.0687-.03865-.0687-.04582 0-.00716-.0353-.02898-.0785-.04846-.0432-.01949-.0785-.04155-.0785-.04912 0-.00748-.0376-.03019-.0835-.0504-.0459-.02029-.0902-.04742-.0983-.06046-.0082-.01296-.0458-.03382-.0835-.04621-.0377-.01248-.0686-.03012-.0686-.03913 0-.0091-.0398-.03173-.0883-.05024-.0487-.0186-.0884-.04002-.0884-.04759 0-.00764-.0354-.02552-.0785-.03977-.0433-.01425-.0786-.03244-.0786-.04041s-.0442-.03044-.0982-.04984-.0982-.04219-.0982-.05056c0-.00838-.0486-.02931-.108-.04654-.0594-.01731-.108-.03824-.108-.04645 0-.0083-.0508-.03197-.1129-.05258s-.1174-.04331-.1228-.05048c-.0054-.00716-.0496-.02866-.0982-.04782-.0485-.01916-.0928-.04131-.0983-.04936-.0246-.03566-.1176-.04186-.1176-.00781zm-7.8892 3.77372c-.0783.0045-.1423.0166-.1423.0269s-.0288.0188-.0639.0188c-.1012-.0002-.5723.0621-.594.0786-.0108.0081-.1124.0306-.2258.05-.1135.0194-.2107.0417-.2161.0494-.0053.0076-.0849.0292-.1767.0478s-.1713.04-.1767.0476-.0629.0252-.1277.0393c-.0647.014-.1531.0414-.1964.0608-.0431.0194-.1116.0415-.1521.0491s-.0736.02-.0736.0274c0 .0076-.0619.0298-.13753.0494-.0756.0196-.13743.0415-.13743.0485 0 .0072-.04195.025-.09332.0397-.05128.0146-.13743.0469-.19145.0717-.05395.0248-.12246.051-.15217.0583s-.05402.0191-.05402.0265c0 .0072-.04026.0251-.08945.0396-.0492.0145-.10153.0385-.11642.0534-.01482.0148-.03857.0269-.05274.0269-.03365 0-.31874.14-.3272.1608-.00362.0088-.02085.016-.0384.016-.03527 0-.28268.121-.58347.2854-.10797.059-.22946.1219-.26996.1397-.04049.0179-.07366.0383-.07366.0454 0 .0072-.03092.0252-.06876.0401-.03776.0148-.06868.0324-.06868.0391s-.0376.0287-.08349.0489c-.04589.0203-.09508.0485-.10941.0628-.01426.0142-.03688.0259-.05024.0259-.01345 0-.04171.0161-.06288.0358-.02118.0198-.07593.0524-.12158.0726-.04565.0201-.083.0423-.083.0493 0 .0069-.03519.0296-.07834.0502-.04308.0207-.07842.043-.0785.0499-.00016.0067-.02673.0233-.05918.0367-.03236.0134-.05885.0323-.05885.0419 0 .0095-.03535.0315-.07858.0488-.04324.0173-.07858.0382-.07858.0465 0 .0084-.02665.0262-.05934.0398-.03269.0135-.06578.0349-.07367.0475-.0078.0128-.04734.0385-.08783.0573-.04058.0188-.07367.0416-.07367.0506s-.02673.0274-.05942.0409c-.03261.0136-.06578.035-.07359.0476-.00789.0127-.04742.0385-.08792.0573-.04049.0188-.07366.0426-.07366.0529s-.01104.0188-.02456.0188c-.01345 0-.05016.0221-.08156.0491s-.06232.049-.06876.0491c-.00636 0-.04259.0265-.08035.0589-.03784.0323-.07938.0588-.09234.0588-.01297 0-.0306.0111-.03929.0246-.01546.0243-.06787.0616-.12214.087-.02641.0123-.04348.0258-.13896.1094-.02166.0189-.04428.0343-.05032.0343-.00999 0-.13043.0869-.23848.1721-.06264.0494-.03462.1974.04662.2462.01441.0086.02616.028.02616.0431 0 .0149.00975.0333.02174.0407.02512.0155.17463-.0295.17463-.0526 0-.0084.04855-.0307.10797-.0495.05942-.0187.10804-.0401.10804-.0475 0-.0075.03978-.0246.08833-.0382.04862-.0136.0884-.0307.0884-.038s.0574-.0296.12761-.0497.12761-.0428.12761-.0504c0-.0077.05523-.0292.12278-.0481.06747-.0187.13156-.0411.14235-.0497.01078-.0086.0727-.031.13743-.0496.06481-.0187.1223-.0402.12769-.0478.0054-.0075.0715-.0291.14685-.0478.07544-.0188.14613-.0407.15716-.0489.01095-.0082.08849-.0314.17214-.0517.08373-.0202.15225-.0425.15225-.0493 0-.0069.06183-.0242.13743-.0386.0756-.0142.13743-.0318.13743-.039s.08398-.0297.18655-.0498c.10265-.0202.18654-.0425.18654-.0497 0-.007.09726-.029.21602-.0489.11883-.0198.21601-.0416.21601-.0486 0-.0069.10829-.0287.24057-.0485s.24942-.0424.26021-.0503c.01079-.0078.1566-.0302.32398-.0498.16747-.0195.30885-.0412.31424-.0483.06811-.0894 2.63421-.0885 2.83751.001.0216.0095.1541.0319.2946.0499.1404.018.2641.0394.2749.0477.0108.0082.108.0305.216.0496.108.019.2008.0407.2062.0483.0054.0075.0761.0294.1571.0487.081.0192.1561.0417.1669.0499s.0683.0262.1276.0401c.0594.0139.139.041.1768.0603.0378.0192.1019.0409.1423.0482.0405.0073.0736.0208.0736.03 0 .0091.0353.0261.0784.0377.043.0116.1204.0422.1718.068s.1179.053.1475.0604c.0297.0074.054.0194.054.0269 0 .0074.0486.0299.1081.0501.0593.0202.1079.0429.1079.0505s.0398.029.0884.0476c.0486.0185.0883.0406.0883.049 0 .0085.0421.0312.0934.0506.0512.0193.1003.047.1089.0616.0087.0144.0279.0264.0428.0264s.0392.012.054.0269c.0148.0148.0566.0422.0928.0609.0363.0188.0756.042.0874.0518.0468.0383.2198.1484.2523.1605.0188.007.0343.0214.0343.0317 0 .0104.0162.0241.0358.0303.0197.0063.0529.0267.0737.0455.0207.0188.0806.0651.1328.1029.0523.0378.1135.0886.1362.1129.0225.0243.0483.0442.0573.0442.0149 0 .0933.0664.2318.1963.0288.0271.1172.1066.1964.1768.1779.1574.2262.2057.3169.3158.0393.0478.1144.1328.1669.189.0526.0562.1309.143.1741.193.0431.05.0984.1127.1227.1393s.0442.0561.0442.0656c0 .0096.0199.0339.0442.054.043.0356.08.0847.1066.1414.0124.0265.0258.0435.1094.139.0189.0217.0344.0463.0344.0548s.0261.046.058.0834c.032.0374.0586.0786.059.0916.0004.0129.0128.0307.0276.0393.0147.0086.0414.0444.0594.0795.0179.0351.0394.0638.0478.0638.0083 0 .0263.0308.04.0685.0136.0377.0363.0801.0504.0943.0142.0141.0414.0562.0605.0935.0191.0372.0408.0722.0483.0776.0127.0092.0286.0376.1254.2257.0223.0433.0512.0896.0643.103.013.0134.034.0554.0464.0932.0126.038.0292.069.0371.069.0078 0 .0301.0441.0495.0982.0194.0539.0415.0981.0491.0981s.0296.0442.0491.0982c.0194.054.0415.0982.0491.0982s.0297.0442.0491.0982.0418.0982.0498.0982.0264.0376.0409.0834c.0146.0459.0424.1166.0621.1571.0196.0405.0517.1068.0713.1473s.0479.1134.063.162c.015.0486.033.0928.04.0982.0069.0054.0286.0584.048.1178.0195.0594.0462.1257.0594.1473.0131.0216.0342.0821.0468.1344.0125.0522.0348.1142.0496.1374.0147.0233.0331.0733.0408.1111.0076.0378.0298.1041.0492.1473s.0414.1117.049.1522c.0077.0405.0202.0736.028.0736s.0309.0685.0513.1522c.0205.0837.0427.1566.0494.162s.0281.0754.0476.1557c.0195.0802.0466.1673.0602.1936.0137.0263.036.1042.0498.1733.0137.069.0307.1254.0378.1254.007 0 .0289.0707.0487.1571.0197.0865.0424.1572.0505.1572s.0207.0353.028.0785c.0175.1037.049.1006.0494-.005.001-.2196-.0675-1.3606-.082-1.3663-.0091-.0036-.0165-.0434-.0165-.0884.0001-.1357-.0593-.6878-.0785-.7299-.0098-.0215-.0324-.1585-.0502-.3043s-.0394-.274-.0479-.2848-.0266-.1013-.0401-.2012c-.0134-.1-.0307-.1817-.0382-.1817s-.0296-.1016-.0491-.2258-.041-.2258-.048-.2258c-.0069 0-.029-.0928-.0491-.2062-.0203-.1134-.0431-.2062-.051-.2062s-.0298-.0796-.0486-.1768c-.019-.0971-.0405-.1767-.0479-.1767-.0075 0-.0252-.0596-.0394-.1325-.0141-.0729-.0413-.1679-.0604-.2111s-.0451-.1292-.0577-.1911c-.0128-.062-.0298-.1168-.0381-.1219-.0082-.005-.0267-.0582-.0411-.1181-.0143-.0599-.0324-.109-.0401-.109-.0079 0-.0302-.0618-.0498-.1374s-.0416-.1374-.049-.1374c-.0072 0-.0286-.0553-.0475-.1228s-.0405-.1272-.048-.1325c-.0075-.0054-.0294-.0607-.0487-.1227-.0192-.0622-.0413-.113-.0491-.113-.0077 0-.0299-.053-.0493-.1178s-.042-.1179-.0503-.1179c-.0082 0-.026-.0397-.0396-.0883-.0137-.0486-.0316-.0884-.0399-.0884-.0084 0-.031-.0442-.0505-.0981-.0194-.0541-.0414-.0983-.049-.0983s-.0297-.0442-.0491-.0981c-.0194-.054-.0416-.0982-.0491-.0982-.0076 0-.0297-.0442-.0491-.0982-.0195-.054-.0412-.0982-.0484-.0982s-.0283-.0398-.0468-.0883c-.0186-.0486-.0411-.0884-.0499-.0884s-.0246-.0243-.0349-.054c-.0171-.049-.095-.1786-.1398-.2326-.0098-.0118-.0321-.0491-.0496-.0829-.0427-.0827-.1217-.2027-.1584-.2409-.0165-.0171-.03-.0395-.03-.0498s-.0261-.0494-.0581-.0868c-.0319-.0374-.0584-.0787-.0589-.0918-.0004-.0131-.0185-.0333-.04-.0449-.0217-.0115-.0393-.0337-.0393-.049 0-.0155-.0177-.0376-.0393-.0492-.0216-.0115-.0393-.0334-.0393-.0487 0-.0152-.0156-.0391-.0347-.0533-.0191-.0141-.0506-.0505-.07-.081-.0416-.065-.0624-.09-.1801-.2157-.0485-.052-.0883-.0998-.0883-.1062 0-.0156-.426-.4376-.4417-.4376-.0067 0-.0514-.0398-.0993-.0884s-.0955-.0884-.1057-.0884c-.0104 0-.0302-.0163-.0444-.0362-.0141-.0198-.0449-.0463-.0683-.0587s-.0546-.0338-.0692-.0473c-.0516-.0479-.1904-.1523-.2025-.1523-.0068 0-.0412-.0221-.0767-.0491-.0353-.027-.074-.0491-.086-.0491-.0119 0-.0288-.012-.0375-.0266-.0086-.0147-.051-.0429-.0942-.0628s-.0833-.0429-.089-.0511c-.0163-.0234-.3157-.1737-.3457-.1737-.0148 0-.0268-.0085-.0268-.0189s-.0349-.0283-.0776-.0398c-.0428-.0115-.0826-.0287-.0884-.0382-.0059-.0095-.0616-.033-.1236-.0523-.0621-.0192-.1177-.0419-.1235-.0503-.0059-.0085-.0722-.0312-.1474-.0503-.0751-.0193-.1411-.0409-.1467-.0483-.0055-.0073-.0895-.0292-.1865-.0487-.097-.0196-.181-.0417-.1866-.0491-.0122-.0165-.4001-.0754-.4964-.0754-.0382 0-.0729-.0102-.077-.0227-.0078-.0232-1.0333-.0407-1.3458-.023zm-1.2813 4.1106c0 .0107-.0485.0196-.1078.0196-.154 0-.6998.0569-.7464.0779-.0217.0097-.14508.0322-.27438.05-.12922.0178-.24854.0396-.26504.0483-.01659.0088-.09855.027-.18228.0404s-.15217.0306-.15217.0381-.0884.0298-.19637.0496c-.10804.0199-.19636.0417-.19636.0487s-.07955.0288-.17673.0485c-.09726.0197-.17672.0418-.17672.0491 0 .0074-.07069.0293-.15716.049-.08639.0195-.15708.0417-.15708.0492 0 .0074-.06626.0291-.14725.0482-.081.0191-.14726.0416-.14726.05 0 .0085-.05306.0266-.11787.0403s-.11779.0315-.11779.0396c0 .0079-.06191.0306-.13751.0501-.0756.0197-.13744.0418-.13744.0494 0 .0075-.0574.0292-.12761.0482-.0702.019-.12769.0407-.12769.0481 0 .0075-.0574.03-.12761.05-.07021.0202-.12761.0427-.12761.0502s-.02432.0196-.05403.0268c-.0297.0073-.09822.0338-.15216.059-.05403.0252-.13574.057-.18164.0706-.04597.0136-.08349.031-.08349.0388 0 .0076-.03977.0251-.0884.0387-.04855.0136-.08832.0321-.08832.0412s-.04863.0307-.10805.048c-.05933.0172-.10796.0382-.10796.0465 0 .0082-.0376.0273-.08349.0422-.0459.0149-.13204.0516-.19146.0814-.05934.0299-.119.0544-.13252.0546-.01353.0002-.02456.0084-.02456.0184 0 .0099-.03309.0286-.07367.0414-.04049.0129-.0913.0342-.11287.0474-.02158.0133-.08124.0401-.13253.0595-.05136.0194-.09331.0415-.09331.0491s-.03535.0255-.0785.0398c-.04323.0142-.07858.0321-.07858.0397s-.04195.0297-.09331.0491c-.05129.0194-.09766.0405-.10306.0469-.00539.0065-.08937.0515-.18654.1-.09718.0485-.18115.0931-.18655.099-.00539.0059-.06062.0353-.12278.0652-.13671.0661-.1421.15-.02278.3526.02093.0356.2276.0045.29282-.0441.01079-.0081.07222-.026.13646-.0399.06425-.0137.13059-.0323.14726-.0412.01675-.0089.1012-.0316.18759-.0504s.16151-.0399.1669-.0468c.0054-.0069.10483-.0286.22093-.0482s.2111-.0423.2111-.0503.10161-.0305.22584-.05c.12414-.0195.22575-.0413.22575-.0486 0-.0072.11272-.0293.25039-.0489.13776-.0197.25482-.0424.2603-.0503.00547-.0079.10265-.0255.21601-.039s.21054-.0311.21593-.039c.0054-.0079.15563-.0301.3338-.0492.17826-.0192.32841-.041.33381-.0485.01022-.0142.71438-.0781.85753-.078.045.0001.08478-.0082.08832-.0185.0227-.0647 2.47955-.0666 2.60515-.0021.018.0093.2007.0322.4059.0508.2052.0187.3775.0403.3829.0479s.1225.0301.2602.0498.2503.0419.2503.0491c0 .0073.0641.0246.1425.0383.0782.0139.1512.0321.162.0406.0107.0085.0969.0308.1914.0495s.1718.0402.1718.0479c0 .0075.0508.025.1129.0387.0622.0137.1483.0406.1915.0598s.1095.0411.1473.0489c.0378.0076.0864.0249.108.0384.0216.0134.0901.0402.1522.0596s.1129.0409.1129.0479.0398.0244.0884.0388c.0485.0144.0883.0327.0883.0409 0 .0081.042.0305.0933.0496s.1065.0458.1227.0591c.0162.0135.0626.0361.1031.0504.0406.0143.0737.0324.0737.0402 0 .0077.03.0241.0667.0362.0366.012.0866.0393.111.0604.0243.0211.0545.0384.067.0384.0126 0 .0399.0157.0609.0351.0209.0192.0711.0505.1116.0696.0405.019.0737.0431.0737.0533 0 .0103.011.0188.0246.0188.0134 0 .0554.0265.0932.0589.0378.0323.074.0588.0804.0588.0065 0 .0301.0155.0526.0344.0449.0379.098.0798.2597.2052.0595.0461.1196.0994.1337.1185.0142.0191.034.0347.0443.0347.0157 0 .1609.1456.4569.4581.0306.0322.0702.0815.0881.1096.0177.028.048.0624.0671.0765s.0347.0352.0347.0469c0 .0116.0199.0413.0442.0658.0243.0247.0593.0654.0779.0907.1988.2709.2706.3369.2706.2483 0-.1159-.0471-.4872-.0617-.4872-.0093 0-.0168-.0243-.0168-.0539.0001-.0737-.0612-.4052-.0772-.4173-.007-.0054-.029-.0805-.0489-.167-.02-.0864-.0421-.1615-.0493-.1669s-.0296-.0654-.0498-.1335c-.0203-.068-.0433-.1277-.0513-.1325-.0079-.0049-.0297-.0576-.0484-.1169-.0187-.0594-.0415-.108-.0509-.108-.0093 0-.017-.0125-.017-.0279 0-.0294-.1356-.3088-.158-.3255-.0072-.0055-.032-.0496-.055-.0982-.0458-.0967-.118-.2202-.1377-.2357-.0196-.0153-.0616-.0847-.0743-.1227-.0064-.0189-.0196-.0344-.0295-.0344s-.0236-.0154-.0303-.0344c-.0129-.0356-.0293-.0573-.1107-.1461-.0267-.0291-.0516-.061-.0553-.0709-.0394-.1026-.63-.6846-.8101-.7984-.0335-.0211-.068-.0499-.0766-.0638s-.0263-.0257-.0393-.0261c-.013-.0005-.0542-.027-.0915-.0589-.0374-.032-.0788-.0582-.0919-.0582s-.0387-.0148-.0569-.033c-.0373-.0373-.1217-.0873-.23-.136-.0405-.0183-.0736-.0408-.0736-.05 0-.0091-.0111-.0169-.0246-.0172s-.0688-.0228-.1227-.0499c-.054-.0271-.138-.0632-.1865-.0803-.0487-.017-.0929-.0369-.0983-.0443-.0054-.0073-.0672-.0302-.1374-.0508-.0702-.0205-.132-.0425-.1375-.0488-.0054-.0062-.0584-.0232-.1178-.0378-.0594-.0145-.1168-.0331-.1276-.0414-.0239-.0182-.3105-.0781-.3736-.0781-.0249 0-.0483-.0081-.0519-.0181-.0068-.0187-.4846-.0801-.623-.0801-.0431 0-.0838-.0089-.0905-.0196-.0077-.0124-.2293-.0197-.6001-.0197-.3789 0-.5879.007-.5879.0197z"/></g></svg>