<svg fill="none" height="32" viewBox="0 0 32 32" width="32" xmlns="http://www.w3.org/2000/svg" xmlns:xlink="http://www.w3.org/1999/xlink"><clipPath id="a"><path d="m0 0h32v32h-32z"/></clipPath><g clip-path="url(#a)"><path d="m15.9997 0c-6.6946 0-12.18414 5.48954-12.18414 12.1841 0 6.6946 5.48954 12.1841 12.18414 12.1841 6.6945 0 12.1841-5.4895 12.1841-12.1841 0-6.69456-5.4896-12.1841-12.1841-12.1841zm0 20.6192c-4.6862 0-8.43518-3.7489-8.43518-8.4351 0-4.68619 3.74898-8.43515 8.43518-8.43515s8.4351 3.74896 8.4351 8.43515c-.1339 4.6862-3.8828 8.4351-8.4351 8.4351zm10.8452 2.6779-10.8452 4.6862-10.84522-4.6862-1.87448 3.3473 12.7197 5.3556 12.7196-5.3556z" fill="#000"/></g></svg>