<svg width="32" height="32" viewBox="0 0 32 32" fill="none" xmlns="http://www.w3.org/2000/svg">
<g clip-path="url(#clip0)">
<path d="M15.9997 0C9.3051 0 3.81556 5.48954 3.81556 12.1841C3.81556 18.8787 9.3051 24.3682 15.9997 24.3682C22.6942 24.3682 28.1838 18.8787 28.1838 12.1841C28.1838 5.48954 22.6942 0 15.9997 0ZM15.9997 20.6192C11.3135 20.6192 7.56452 16.8703 7.56452 12.1841C7.56452 7.49791 11.3135 3.74895 15.9997 3.74895C20.6859 3.74895 24.4348 7.49791 24.4348 12.1841C24.3009 16.8703 20.552 20.6192 15.9997 20.6192ZM26.8449 23.2971L15.9997 27.9833L5.15448 23.2971L3.28 26.6444L15.9997 32L28.7193 26.6444L26.8449 23.2971Z" fill="black"/>
</g>
<defs>
<clipPath id="clip0">
<rect width="32" height="32" fill="white"/>
</clipPath>
</defs>
</svg>
