<svg width="32" height="32" viewBox="0 0 32 32" fill="none" xmlns="http://www.w3.org/2000/svg">
<g clip-path="url(#clip0)">
<path fill-rule="evenodd" clip-rule="evenodd" d="M27.2666 6.97078L0 24.8729C0 24.8729 4.45681 23.4573 11.7105 20.3466C15.0355 18.9217 18.2299 18.6959 19.4419 20.8549C21.1178 23.8382 18.6608 27.0159 15.2759 28.2649C21.054 27.2985 25.462 22.2163 25.462 16.0869C25.462 14.1774 25.0309 12.3714 24.2664 10.759C26.4666 8.46449 27.2666 6.97078 27.2666 6.97078" fill="#1A2234"/>
<path fill-rule="evenodd" clip-rule="evenodd" d="M28.223 6.43904C28.7126 7.20054 29.0852 8.00415 29.3504 8.82872C29.4111 8.53854 29.8331 6.50329 29.8333 6.50254C31.5115 5.3933 32.0002 3.94063 32.0002 3.94063C32.0002 3.94063 30.4917 3.8093 28.8135 4.91869C28.8006 4.92702 26.8062 4.49332 26.5179 4.43011C27.1565 5.00808 27.7315 5.67797 28.223 6.43904" fill="#1A2234"/>
<path fill-rule="evenodd" clip-rule="evenodd" d="M7.08573 15.6657C10.8054 15.0298 19.2382 9.65568 22.812 8.41153C20.5809 5.56762 17.1427 3.74 13.2798 3.74C10.4599 3.74 7.83271 4.66958 5.80279 6.34252C3.14109 8.53543 2.31735 11.8104 2.99639 13.7933C3.40393 14.9858 4.39878 16.1251 7.08573 15.6657" fill="#1A2234"/>
</g>
<defs>
<clipPath id="clip0">
<rect width="32" height="32" fill="white"/>
</clipPath>
</defs>
</svg>
