<svg fill="none" height="32" viewBox="0 0 32 32" width="32" xmlns="http://www.w3.org/2000/svg"><path clip-rule="evenodd" d="m12.1316 8.95291c0-1.37396 1.5674-1.95014 3.3961-1.95014 2.6123 0 6.8792 1.41828 9.2738 2.52632l3.7009-6.11635c-3.4832-1.81717-8.7079-3.41274-13.5408-3.41274-7.70643 0-11.66851 4.21053-11.66851 9.48476 0 5.40724 4.13624 7.84484 7.40171 9.04154 5.3989 2.1718 9.8399 2.1274 9.8399 4.4765 0 1.3739-1.5239 1.9944-3.3961 1.9944-3.0477 0-8.18539-1.9058-10.84129-3.457l-3.65731 6.0277c3.17838 2.0831 9.0562 4.4321 14.8905 4.4321 7.7064 0 11.8427-4.2105 11.8427-9.6177 0-5.6288-4.4846-7.8449-7.5759-9.0859-5.1812-2.0831-9.6657-1.9501-9.6657-4.34349z" fill="#00bd9c" fill-rule="evenodd"/></svg>