<svg width="32" height="32" viewBox="0 0 32 32" fill="none" xmlns="http://www.w3.org/2000/svg">
<path fill-rule="evenodd" clip-rule="evenodd" d="M12.1316 8.95291C12.1316 7.57895 13.699 7.00277 15.5277 7.00277C18.14 7.00277 22.4069 8.42105 24.8015 9.52909L28.5024 3.41274C25.0192 1.59557 19.7945 0 14.9616 0C7.25517 0 3.29309 4.21053 3.29309 9.48476C3.29309 14.892 7.42933 17.3296 10.6948 18.5263C16.0937 20.6981 20.5347 20.6537 20.5347 23.0028C20.5347 24.3767 19.0108 24.9972 17.1386 24.9972C14.0909 24.9972 8.95321 23.0914 6.29731 21.5402L2.64 27.5679C5.81838 29.651 11.6962 32 17.5305 32C25.2369 32 29.3732 27.7895 29.3732 22.3823C29.3732 16.7535 24.8886 14.5374 21.7973 13.2964C16.6161 11.2133 12.1316 11.3463 12.1316 8.95291V8.95291Z" fill="#00BD9C"/>
</svg>
