<svg width="32" height="32" viewBox="0 0 32 32" fill="none" xmlns="http://www.w3.org/2000/svg">
<path d="M9.31032 17.9921L11.3667 15.9357L9.31032 13.8794L7.25396 15.9357L9.31032 17.9921Z" fill="black"/>
<path d="M15.9926 16.4192L17.5627 17.9893L19.6144 15.9374L17.509 13.8322C16.6705 12.9935 15.2966 12.9935 14.458 13.8322L7.25 21.0403L9.30186 23.0922L15.9926 16.4192Z" fill="black"/>
<path d="M15.493 25.1618L13.4412 23.1101L11.8711 24.6801L10.301 23.1101L8.24916 25.1618L10.3546 27.2673C11.1931 28.1059 12.5671 28.1059 13.4056 27.2673L15.493 25.1618Z" fill="black"/>
<path d="M15.9926 28.7838L14.4225 27.2137L12.3707 29.2656L14.4581 31.371C15.2966 32.2097 16.6705 32.2097 17.5092 31.371L19.6146 29.2656L17.5629 27.2137L15.9926 28.7838Z" fill="black"/>
<path d="M20.1142 24.6623L18.5441 23.0924L16.4922 25.1442L18.5976 27.2495C19.4361 28.0881 20.8101 28.0881 21.6486 27.2495L23.7541 25.1442L21.6844 23.0924L20.1142 24.6623Z" fill="black"/>
<path d="M22.6557 23.0935L24.7121 21.0371L22.6557 18.9808L20.5994 21.0371L22.6557 23.0935Z" fill="black"/>
<path d="M15.9926 20.5409L14.4225 18.9708L12.3707 21.0227L14.4761 23.1279C15.3146 23.9666 16.6884 23.9666 17.5271 23.1279L24.7353 15.9198L22.6834 13.8679L15.9926 20.5409Z" fill="black"/>
<path d="M15.994 5.5012L18.7451 2.75118L15.9951 0L13.244 2.75001L15.994 5.5012Z" fill="black"/>
<path d="M12.5669 8.99706H14.5295V12.9044C15.4215 12.369 16.5456 12.369 17.4376 12.9044V8.99706H19.4004L20.6851 10.2816L23.4328 7.53407L20.6851 4.78639L19.4004 6.07093H12.5669L11.2822 4.78639L8.51674 7.55187L11.2644 10.2996L12.5669 8.99706Z" fill="black"/>
</svg>
