<svg fill="none" height="32" viewBox="0 0 32 32" width="32" xmlns="http://www.w3.org/2000/svg"><g fill="#000"><path d="m9.31032 17.9921 2.05638-2.0564-2.05638-2.0563-2.05636 2.0563z"/><path d="m15.9926 16.4192 1.5701 1.5701 2.0517-2.0519-2.1054-2.1052c-.8385-.8387-2.2124-.8387-3.051 0l-7.208 7.2081 2.05186 2.0519z"/><path d="m15.493 25.1618-2.0518-2.0517-1.5701 1.57-1.5701-1.57-2.05184 2.0517 2.10544 2.1055c.8385.8386 2.2125.8386 3.051 0z"/><path d="m15.9926 28.7838-1.5701-1.5701-2.0518 2.0519 2.0874 2.1054c.8385.8387 2.2124.8387 3.0511 0l2.1054-2.1054-2.0517-2.0519z"/><path d="m20.1142 24.6623-1.5701-1.5699-2.0519 2.0518 2.1054 2.1053c.8385.8386 2.2125.8386 3.051 0l2.1055-2.1053-2.0697-2.0518z"/><path d="m22.6557 23.0935 2.0564-2.0564-2.0564-2.0563-2.0563 2.0563z"/><path d="m15.9926 20.5409-1.5701-1.5701-2.0518 2.0519 2.1054 2.1052c.8385.8387 2.2123.8387 3.051 0l7.2082-7.2081-2.0519-2.0519z"/><path d="m15.994 5.5012 2.7511-2.75002-2.75-2.75118-2.7511 2.75001z"/><path d="m12.5669 8.99706h1.9626v3.90734c.892-.5354 2.0161-.5354 2.9081 0v-3.90734h1.9628l1.2847 1.28454 2.7477-2.74753-2.7477-2.74768-1.2847 1.28454h-6.8335l-1.2847-1.28454-2.76546 2.76548 2.74766 2.74773z"/></g></svg>