<svg fill="none" height="32" viewBox="0 0 32 32" width="32" xmlns="http://www.w3.org/2000/svg"><g fill="#1d1d1d"><path d="m3.55556 0h-3.55556v11.2593h3.55556z"/><path d="m31.9999 20.7408h-3.5556v11.2592h3.5556z"/><path d="m16 22.5185c-1.7413 0-3.3781-.6779-4.6094-1.9092-1.2312-1.2311-1.90915-2.868-1.90915-4.6093s.67795-3.3782 1.90915-4.6093c1.2313-1.2313 2.8681-1.90922 4.6094-1.90922s3.378.67792 4.6093 1.90922l-2.5142 2.5142c-.5597-.5596-1.3037-.8679-2.0951-.8679-.7915 0-1.5355.3083-2.0952.8679-.5595.5596-.8678 1.3037-.8678 2.0951s.3083 1.5355.8678 2.0951c.5597.5596 1.3037.8679 2.0952.8679.7914 0 1.5354-.3083 2.0951-.8679l2.5142 2.5142c-1.2313 1.2313-2.868 1.9092-4.6093 1.9092z"/><path d="m16 0h-16v3.55556h16z"/><path d="m32 28.4445h-16v3.5555h15.9999z"/></g></svg>