<svg fill="none" height="21" viewBox="0 0 32 21" width="32" xmlns="http://www.w3.org/2000/svg"><path clip-rule="evenodd" d="m14.9975 19.7856c-1.6775-1.0509-2.9138-4.6774-2.9138-8.987 0-.1582.0006-.3143.0046-.4698l.0014.002c-4.66669-.73327-8.03824-2.74232-8.12498-5.11902l-.01334.02803c-1.14165 1.41921-1.79354 3.05995-1.79354 4.80809 0 5.1444 5.64683 9.3593 12.80966 9.7323zm-14.9975-9.3627c0-5.75558 7.16345-10.4229 15.9997-10.4229 8.8368 0 16.0003 4.66732 16.0003 10.4229 0 5.7562-7.1635 10.4236-16.0003 10.4236-8.83625 0-15.9997-4.6674-15.9997-10.4236zm16.0003-8.91895c1.7062 0 3.1574 2.58821 3.6952 6.1993l.0013-.00601c3.3195-.51644 5.6428-1.70813 5.6428-3.09531 0-1.86093-4.1815-3.36821-9.3393-3.36821-5.157 0-9.33861 1.50728-9.33861 3.36821 0 1.38718 2.32332 2.5782 5.64211 3.09531l.002.00601c.5378-3.61109 1.9891-6.1993 3.6945-6.1993zm1.0329 18.27565c7.1628-.373 12.8103-4.588 12.8103-9.7324 0-1.74811-.6526-3.38885-1.7935-4.80806l-.0141-.02802c-.086 2.37669-3.4576 4.38574-8.1249 5.11908l.002-.002c.0033.1554.0047.3116.0047.4697 0 4.3097-1.2371 7.9361-2.9138 8.987zm-1.0329-11.80879c.7406.00088 1.4808-.03074 2.2186-.09475-.3536-2.31398-1.2137-3.94738-2.2179-3.94738s-1.8629 1.63407-2.2172 3.94804c.7373.0637 1.4764.09465 2.2165.09409zm0 8.57129c1.2845 0 2.3327-2.6729 2.3881-6.0245l.0066.0021c-1.5928.1467-3.1958.1467-4.7887 0l.0067-.0021c.0553 3.3516 1.1029 6.0245 2.3873 6.0245z" fill="#1d1d1d" fill-rule="evenodd"/></svg>