<svg fill="none" height="32" viewBox="0 0 22 32" width="22" xmlns="http://www.w3.org/2000/svg"><g clip-rule="evenodd" fill="#1d1d1d" fill-rule="evenodd"><path d="m.00140636 11.9791c.000134.0057.00024743.0105.00024743.0144v8.0076c.03198371-.4343.60652821-2.6582 10.81364621-3.2626 10.8428-.6421 10.7712-2.9774 10.7623-3.2667-.0002-.0067-.0004-.0123-.0004-.0168v-8.01701c0 .29969-.4096 2.7387-10.5684 3.27191-11.0707868.58112-11.01401015 2.9887-11.00739364 3.2692zm-.00000021 13.1275c.00013401.0056.00024746.0105.00024746.0144v6.238c0 .5058.55961839.8123.98480839.5381 1.205208-.7772 3.882338-1.679 9.828838-2.0311 10.8428-.6421 10.7712-2.9775 10.7623-3.2668-.0002-.0067-.0004-.0123-.0004-.0168v-8.0171c0 .2997-.4096 2.7387-10.5684 3.272-11.0707673.5812-11.01401053 2.9886-11.00739385 3.2693z" opacity=".8"/><path d="m.00042965 6.89347c.00013399-.00568.0002474-.01048.0002474-.01439v-6.238118c0-.505786.55961895-.812358.98480895-.538148 1.205204.777282 3.882344 1.679076 9.828814 2.031186 10.8428.64208 10.7712 2.97744 10.7623 3.26679-.0002.00674-.0004.01237-.0004.01684v8.01697c0-.2996-.4096-2.7387-10.5684-3.272-11.0707821-.5811-11.0139867-2.98866-11.00737035-3.26913zm.00097635 13.12833c.00013401-.0057.00024743-.0105.00024743-.0144v-8.0075c.03198377.4343.60652757 2.658 10.81364657 3.2625 10.8428.6421 10.7712 2.9774 10.7623 3.2667-.0002.0067-.0004.0124-.0004.0168v8.017c0-.2996-.4096-2.7386-10.5684-3.2719-11.070787-.5811-11.01401051-2.9887-11.007394-3.2692z"/></g></svg>