<svg fill="none" height="32" viewBox="0 0 32 32" width="32" xmlns="http://www.w3.org/2000/svg"><path clip-rule="evenodd" d="m16 0c-8.83275 0-16 7.16725-16 16 0 8.8327 7.16725 16 16 16 8.8327 0 16-7.1673 16-16 0-8.83275-7.1673-16-16-16zm10.4986 15.9626c-.0375-.262-.3182-.3555-.5614-.3555-.3182 0-.6176.1497-.8609.4304-.3742.4304-.5988 1.1228-.5239 1.7029.0374.3555.2058.7485.5614.7485.2807 0 .6924-.4117.8421-.9731.1123-.4117.5052-.6924.7859-.6924.1685 0 .2807.0936.2995.2433.0167.0672-.0117.1946-.1258.7066l-.0427.1916c-.0561.2433-.0748.4866-.0561.6737.0561.4117.2433.655.393.786.0748.0561.1123.131.1123.1684 0 .0562-.0188.1123-.0562.1497-.0374.0562-.1123.0749-.1871.0749-.0374 0-.0936 0-.1497-.0375-.7299-.2994-.9918-.7859-1.0667-1.1602-.262.3181-.6175.5053-.9731.5053-.655 0-1.2538-.5614-1.3287-1.2538-.0374-.262 0-.5614.0749-.8608-.2433.131-.5053.2245-.7298.2245-.0749 0-.1497 0-.2246-.0187-.5614.8234-1.1976 1.4597-1.7216 1.7404-.1872.1122-.393.1684-.5427.1684s-.262-.0562-.2994-.131c-.1123-.1871-.2059-.4866-.2433-.8983-.655.6924-1.5345 1.0293-1.9462 1.0293-.4678 0-.7673-.2807-.8234-.7673-.0187-.1497-.0187-.3368.0187-.5239.0936-.5989.262-1.0667.393-1.3848l.009-.0248c.0703-.1931.1212-.3331.1033-.3869 0-.0188-.0187-.0562-.0562-.0562-.1497 0-.4865.262-.8233.6363-.3743.4304-.655.8795-.7299 1.1976l-.131.5989c-.0748.4117-.4865.7111-.8046.7111-.1498 0-.262-.0936-.2807-.2433 0-.0561 0-.131.0187-.2058l.0561-.262c-.5614.4117-1.1789.6924-1.4784.6924-.3742 0-.6175-.1872-.7298-.5053-.262.3368-.6175.5053-.9918.5053-.4678 0-.9357-.2995-1.1789-.7673-.3556.393-.72986.7111-1.12285.9731-.82339.524-1.5345.7673-2.28304.7673-.95438 0-1.68421-.5989-1.89006-.786-.50526-.4678-.86081-1.2164-.95438-2.0398-.2807-2.3204 1.17895-5.2397 3.23742-6.4935.46784-.2807 1.02924-.4492 1.55322-.4492.97309 0 1.79649.6924 1.92749 1.6281.1123.8421-.2807 1.5158-1.1041 1.9275-.24327.1123-.43041.1871-.58011.1871-.11228 0-.16842-.0374-.18714-.0748-.05614-.0936-.01871-.2246.07486-.2994.82339-.6924.82339-1.2538.72982-2.0211-.05614-.4865-.37427-.8234-.74854-.8234-.52397 0-1.14152.3743-1.74035 1.0667-1.08538 1.2164-2.05848 3.3684-1.83392 5.1462.131 1.0854.80468 2.1895 2.02106 2.1895.41169 0 .86081-.1123 1.29122-.3182.71112-.3742 1.1228-.6549 1.4971-1.1041-.0562-.6549.2245-1.4035.7298-1.9462.4866-.5239 1.1228-.8046 1.7965-.8046.7485 0 1.2538.3181 1.3287.8234.0374.2432-.0188.4304-.1498.5801-.1684.1871-.4491.2432-.5801.2432-.1871 0-.5052-.0561-.5427-.2432-.0172-.0865.0613-.125.1324-.1599l.0173-.0086.0113-.0056c.1095-.0544.2308-.1147.1946-.3499-.0374-.3181-.4304-.3368-.5614-.3368-.3181 0-.5988.1497-.8421.4116-.4304.4866-.5988 1.2538-.5427 1.7404.0374.3368.2246.7298.5614.7298.2807 0 .6737-.393.8234-.9731.0936-.4117.4865-.6924.786-.6924.1684 0 .2807.0749.2994.2433 0 .0561 0 .131-.0187.2058 0 .0445-.0118.1006-.0259.1685-.0038.0179-.0077.0366-.0116.0561-.0561.2433-.1123.5614-.1123.655 0 .0374.0188.2245.2246.2245.131 0 .6737-.2807 1.1602-.7111.1685-.8234.3556-1.7777.3556-1.8526.0561-.3368.1871-.6737.8608-.6737.1684 0 .262.0936.2807.2433 0 .0561 0 .131-.0187.2058l-.1684.7299c.5614-.7111 1.4222-1.2538 1.9649-1.2538.262 0 .4304.1497.4678.3929.0187.1498-.0187.3743-.1122.6363-.1872.5053-.4117 1.2912-.5427 1.9836-.0188.0749-.0188.1684.0561.2433.0374.0561.1123.0936.2059.0936.1871 0 .8608-.2246 1.4222-.9731v-.2994c0-.6176.0561-1.048.1497-1.3661.1123-.3369.5614-.7111.8795-.7111.1684 0 .2807.0935.2807.2619 0 .0562-.0187.131-.0374.2059-.2059.5988-.2994 1.1602-.2994 1.6842 0 .3181.0748.8234.131 1.0667.0041.0123.0073.0237.0102.034.0103.0367.0167.0595.0459.0595.0749 0 .6924-.5801 1.1602-1.3473-.3929-.262-.6175-.7486-.6175-1.31 0-.9731.5801-1.497 1.1602-1.497.4304 0 .8796.2994.8796.9918 0 .3555-.131.7859-.3743 1.2912h.0936c.2994 0 .5801-.131.7485-.3368.0749-.0749.131-.131.1871-.1685.5053-.6175 1.179-.9356 1.9088-.9356.7485 0 1.2538.3181 1.3287.8234.0374.2432-.0188.4491-.1497.5988-.1685.2058-.4492.2433-.5802.2433-.2432 0-.5239-.0562-.5427-.2433-.0169-.0849.043-.1082.1241-.1397l.0257-.01c.0097-.0194.0256-.0376.0437-.058.0515-.0585.1198-.1361.106-.3163zm-4.399-.7673c0-.2058.0749-.4304.2246-.4304.1123 0 .2994.1871.2994.6737 0 .2433-.0374.4678-.131.7298-.2433-.262-.393-.6363-.393-.9731z" fill="#1d1d1d" fill-rule="evenodd"/></svg>