<svg fill="none" height="32" viewBox="0 0 20 32" width="20" xmlns="http://www.w3.org/2000/svg"><g fill="#1d1d1d"><path d="m7.83863 7.15422 3.21727-1.93672-8.20546-4.945865c-.29127-.1773146-.62561-.27127326-.9666-.271635-.24785.00046283-.49318.0497385-.72198.145014-.228807.095275-.436606.234683-.611533.410266-.174927.175582-.313558.3839-.407977.61306-.0944195.22916-.14277772.47467-.14231402.72252v14.60834c-.00285302.6544.16399802 1.2983.48426902 1.869s.783025 1.0486 1.343095 1.387l3.57005 2.152v-10.4245c.00143-.8703.22674-1.72556.65426-2.48362.42753-.75805 1.04289-1.39337 1.78692-1.84486z"/><path d="m8.55123 32c.34348.0016.68064-.0924.97365-.2717l8.64642-5.2175c.5565-.3355 1.017-.8088 1.3371-1.3742.3201-.5655.489-1.2039.4903-1.8536v-19.04974c.0014-.21799-.0404-.43411-.123-.63587-.0825-.20176-.2042-.38517-.3581-.53964-.1538-.15448-.3367-.27696-.5381-.36038-.2014-.08343-.4173-.12613-.6353-.12566-.2965.00466-.5859.09135-.8361.25046l-4.2086 2.52585c.8344.92834 1.2978 2.13137 1.3018 3.37956v14.60832c.0027.5589-.1435 1.1084-.4235 1.5921-.28.4836-.6838.884-1.1699 1.1599-.486.2759-1.0368.4173-1.5956.4098s-1.1056-.1637-1.58404-.4525l-3.17495-1.9085v5.9689c-.00093.2493.04754.4964.14263.7268.0951.2305.23492.4399.41139.616.17647.1762.38609.3156.61676.4103.23067.0946.4778.1427.72714.1413z"/><path d="m6.66742 22.6586v-11.1759c-.0011-.6521.16661-1.2934.48683-1.86155.32023-.56811.78204-1.04366 1.34053-1.38039l3.69002-2.22247c.363.35181.6519.77283.8494 1.23818s.2997.96558.3006 1.47111v14.60832c.0005.2483-.048.4943-.1426.7239-.0946.2295-.2335.4382-.4087.6142-.1753.1759-.3835.3155-.6127.411-.2292.0954-.475.1448-.7233.1453-.3398-.0009-.6729-.0948-.9631-.2717z"/></g></svg>