<svg fill="none" height="32" viewBox="0 0 23 32" width="23" xmlns="http://www.w3.org/2000/svg"><g fill="#1d1d1d"><path d="m4.52794 22.8564c0 2.4949 2.03822 4.5718 4.52536 4.5718l.00257-10.6658-3.45722-4.6776c-.62179-.8282-1.07071-1.8318-1.07071-2.94121v-9.14359h-4.52794v9.14359c0 3.39271 1.83181 6.30301 4.52794 7.93101z"/><path d="m13.6148 27.4282v4.5718h-4.52538v-4.5718h4.52538v-10.769l3.5939-4.7472c.5883-.7586.934-1.6951.934-2.76841v-9.14359l4.5279.00258003v9.13843997c0 3.39268-1.8318 6.33648-4.5279 7.93098v5.7818c0 2.5284-2.0047 4.5744-4.5279 4.5744z"/></g></svg>