<svg fill="none" height="20" viewBox="0 0 20 20" width="20" xmlns="http://www.w3.org/2000/svg"><g fill="#1d1d1d"><path d="m11.3899 18.4593c-.4524.0738-.9167.1121-1.3899.1121-4.73387 0-8.57143-3.8375-8.57143-8.5714 0-4.73387 3.83756-8.57143 8.57143-8.57143 4.7339 0 8.5714 3.83756 8.5714 8.57143 0 .4732-.0383.9375-.1121 1.3899.4594.4402.8348.9673 1.1001 1.5548.2864-.9309.4406-1.9198.4406-2.9447 0-5.52285-4.4772-10-10-10-5.52285 0-10 4.47715-10 10 0 5.5228 4.47715 10 10 10 1.0249 0 2.0138-.1542 2.9447-.4406-.5875-.2653-1.1146-.6407-1.5548-1.1001z"/><path clip-rule="evenodd" d="m15 20c2.7614 0 5-2.2386 5-5s-2.2386-5-5-5-5 2.2386-5 5 2.2386 5 5 5z" fill-rule="evenodd"/></g></svg>