<svg fill="none" height="32" viewBox="0 0 33 32" width="33" xmlns="http://www.w3.org/2000/svg"><g fill="#1d1d1d"><path d="m18.6668 29.5349c-.7238.118-1.4666.1794-2.2237.1794-7.57424 0-13.71433-6.1401-13.71433-13.7143 0-7.57419 6.14009-13.71429 13.71433-13.71429 7.5741 0 13.7142 6.1401 13.7142 13.71429 0 .7572-.0613 1.5-.1793 2.2238.7349.7044 1.3357 1.5477 1.7601 2.4877.4583-1.4895.705-3.0717.705-4.7115 0-8.83656-7.1635-16-16-16-8.8366 0-16.000046 7.16344-16.000046 16 0 8.8366 7.163446 16 16.000046 16 1.6398 0 3.222-.2467 4.7115-.705-.94-.4244-1.7834-1.0251-2.4878-1.7601z"/><path clip-rule="evenodd" d="m24.4431 32c4.4182 0 8-3.5817 8-8s-3.5818-8-8-8c-4.4183 0-8 3.5817-8 8s3.5817 8 8 8z" fill-rule="evenodd"/></g></svg>