<svg fill="none" height="32" viewBox="0 0 25 32" width="25" xmlns="http://www.w3.org/2000/svg"><g fill="#1d1d1d"><path d="m16.0916 14.8781c-.6063-.4324-1.2872-.6362-2.0377-.4971-.1938-1.3171-1.3319-2.0478-2.3558-2.0279-.5019.01-.6312-.1292-.661-.6312-.0348-.5666.0448-1.1183.164-1.6701.3877-1.75449.9443-3.47424 1.004-5.2934.0248-.70579-.0199-1.3917-.3231-2.03288-.5864-1.24756-1.8339-1.48614-2.85277-.56662-.48706.44236-.8449.96425-1.0934 1.57561-.31312.7704-.51192 1.57063-.71072 2.37086-.44233 1.8291-.99897 3.63334-1.2773 5.49723-.0497.338-.10934.6859-.41748.999-.23856-1.0189-.48706-1.9931-.62125-2.98715-.33299-2.40566-.55167-4.82125-.63617-7.25176-.01988-.49704-.09443-.98414-.35287-1.4265-.43239-.725674-1.21765-1.103423-1.9234-.8648451-.90454.3031921-1.535738.8896981-1.769329 1.8440051-.1491009.61136-.21868135 1.23265-.22365138 1.86389-.01988012 1.98815.04473048 3.97132.10934038 5.95947.029821.81019.054671 1.62039.109341 2.42559.119281 1.6451.248501 3.2903.397602 4.9355.099401 1.1184.119281 2.2417.178921 3.365.01988.3628-.03479.7207-.01988 1.0885.03479.8499.228626 1.6651.387666 2.4901.29323 1.511.51688 3.022.53676 4.5678.01491.9444.06461 1.8838.08946 2.8281.00497.1939.04473.3579.22365.4673.18389.1093.37275.1292.56658.0248.20378-.1093.24851-.2932.24354-.502-.03976-1.0438-.05467-2.0826-.08449-3.1264-.03976-1.5457-.27833-3.0567-.57653-4.5628-.20377-1.0388-.37772-2.0726-.33796-3.1412.03976-.9941-.02485-1.9832-.10934-2.9723-.15904-1.9235-.3479-3.8471-.47215-5.7706-.08946-1.4215-.12425-2.84306-.13419-4.26956-.01491-1.50602-.178925-3.00707-.00994-4.51309.05964-.51195.0994-1.02887.38766-1.46626.24353-.36284.59143-.710762 1.03873-.626265.47216.089465.61132.566625.65605 1.008985.03479.31313.01491.63124.03976.94437.12425 1.59549.20874 3.19595.39263 4.78646.0994.84994.17395 1.70484.3479 2.54486.21868 1.0487.42743 2.1024.65605 3.1512.0497.2237.15407.4374.23359.6511.0994.2684.30814.3927.57652.3927.2485 0 .43239-.1342.5467-.3629.22366-.4423.45725-.8797.68587-1.3221.04473-.0895.07455-.1839.09443-.2833.45724-2.1472 1.01389-4.27452 1.55562-6.40184.17892-.70579.3479-1.41158.63616-2.08258.21868-.51195.50695-.96922.96419-1.29727.4274-.30816.5815-.21869.8698.13917.2485.30816.323.68591.3479 1.06366.0646.97916-.0398 1.94838-.2436 2.9027-.2435 1.12827-.5516 2.2466-.7852 3.37486-.17896.8698-.31315 1.7595.1938 2.5448-1.12821 1.1432-1.6103 2.4703-1.32701 4.0012.10437.5567.09443.9792-.36281 1.332-.03479.0299-.07455.0498-.12425.0746-.09443-.0795-.18389-.1541-.26838-.2286-.75545-.676-1.58047-1.2575-2.49993-1.685-.32802-.1541-.65604-.3181-1.02382-.3678-.25844-.0398-.4821.0994-.54671.3231-.06461.2286.0497.3926.22365.502.15408.0944.333.1491.50198.2137 1.15304.4573 2.1222 1.173 2.99196 2.0379-.12922.1739-.26839.2882-.41252.4026-.71568.5616-1.4413.9443-2.34088.3429-.2982-.1988-.5964-.0944-.73556.1541-.1342.2386-.06461.4324.26341.6511.75544.502 1.55065.6064 2.39555.2436.83-.3529 1.48604-.9146 2.03771-1.6154.26838-.338.51192-.6909.84491-.9742.7554-.6412 1.7147-.4424 2.1471.4473.0695.1491.1292.3082.164.4673.2932 1.3221-.1094 2.4802-.9692 3.4444-1.43633 1.6054-3.34979 2.0031-5.40739 1.9136-.1491-.005-.28826-.0447-.43736.005-.18389.0646-.32305.164-.33796.3777-.01491.2088.08449.343.25844.4424.16401.0895.3479.1093.52682.1193 1.7246.0894 3.35477-.2138 4.85575-1.1034.1242-.0746.2236-.1939.4075-.1889.0895.4225-.0397.8151-.1441 1.2078-.2435.9046-.671 1.7197-1.25246 2.4553-.21371.2684-.1988.4673 0 .6611.1988.1889.49206.1988.72566.0149.0646-.0497.1242-.1143.1739-.1789 1.0288-1.3172 1.6352-2.7934 1.5954-4.4833-.0099-.4722-.0149-.9096.3479-1.2674.1342-.1342.1392-.3828.3628-.4474.2535-.0745.3976-.2833.5666-.4672.656-.7207 1.317-1.4464 2.0476-2.0925.0746-.0646.1243-.2137.2883-.1392v1.2824c-.005 1.6004-.2485 3.1562-.7704 4.6672-.3976 1.1531-.815 2.3012-1.0735 3.4991-.1242.5666-.2336 1.1332-.2733 1.7098-.0249.343.154.5517.4622.5964.2982.0448.497-.1192.5616-.4721.0497-.2933.0795-.5865.1292-.8798.2038-1.2078.5666-2.3758.9891-3.524.5814-1.5756.9592-3.2009 1.0188-4.8759.0398-1.1382.1243-2.2764.1093-3.4196-.0049-.2684.0249-.5269.0497-.7903.1044-.9195-.1789-1.6999-.9443-2.2466zm-4.2096 1.9732c-.0745.1193-.1342.1591-.2733.1094-.4324-.1492-.8747-.1889-1.3121-.0497-.2187.0646-.2684-.0696-.2932-.2187-.03483-.2287-.04477-.4623-.06465-.6561.03479-.8152.26835-1.5309.71565-2.1671.497-.7108 1.5755-.7605 2.0924-.0696.2684.3579.338 1.2078.0895 1.6054-.3131.4822-.6461.9543-.9543 1.4464zm3.986.6213c-.1491.3181-.3479.6014-.5865.8499-.5914.6164-1.2574 1.1631-1.9134 1.8987.0546-.9593-.0796-1.7595-.6163-2.4454-.1193-.1541-.0746-.2585.0149-.3927.338-.5069.656-1.0288 1.0089-1.5259.5567-.7853 1.5755-.7107 2.0427.1442.2535.4771.2883.9692.0497 1.4712z"/><path d="m22.507 7.18719c-1.0417.02062-2.1528.95845-2.1154 1.81384.0481 1.09757.812 2.12817 2.1582 2.19517 1.0524.0515 2.0246-.9069 2.0193-1.92207-.0107-1.11303-.9936-2.10755-2.0621-2.08694zm.1283 3.01451c-.4274.0566-.9189-.31437-1.0364-.78844-.1442-.58228.3045-1.19548.9135-1.25731.1923-.02061.3472.06698.4808.1855.2671.24219.4273.54106.4273.9636 0 .41738-.3418.83475-.7852.89665z"/></g></svg>