<svg fill="none" height="20" viewBox="0 0 19 20" width="19" xmlns="http://www.w3.org/2000/svg"><g fill="#1d1d1d"><path d="m10.9969 10.5622-1.4317 1.4317v-5.03739c0-.24011-.19467-.43478-.43478-.43478s-.43478.19467-.43478.43478v2.86345l-1.43173-1.43172c-.16983-.16984-.44497-.16984-.61481 0-.16983.16983-.16983.44497 0 .61481l2.04654 2.04655v8.5156c0 .2401.19467.4348.43478.4348s.43478-.1947.43478-.4348v-6.3417l2.0465-2.0465c.1699-.1699.1699-.445 0-.6148-.1698-.1699-.4449-.1699-.6148 0z"/><path d="m9.81995 15.6522h4.52785c2.1576 0 3.9131-1.7555 3.9131-3.9131 0-2.09045-1.6481-3.80326-3.7129-3.90792.1558-.42311.2346-.86128.2346-1.30944 0-2.05184-1.5871-3.73981-3.5984-3.90052-.3868-1.5177-1.77035-2.62122-3.35811-2.62122-1.91788 0-3.47826 1.56038-3.47826 3.47826 0 .20571.02186.41207.06751.63328-1.12241.71799-1.80664 1.94569-1.80664 3.27976 0 .20763.01995.41653.06156.6388-1.57078.52713-2.67026 2.0221-2.67026 3.709 0 2.1576 1.75548 3.9131 3.91304 3.9131h4.52691v-4.4965l-1.96753-1.96558c-.2696-.26933-.26981-.70622-.00048-.97581s.70622-.2698.97581-.00047l.9922.99124v-2.24512c0-.38108.30892-.69.69-.69.38107 0 .69.30892.69.69v4.42014l.99225-.9922c.2694-.2695.7063-.2695.9758 0 .2694.2694.2694.7063 0 .9758l-1.782 1.7819c-.05579.0558-.11882.1001-.18605.1328z"/></g></svg>