<svg fill="none" height="21" viewBox="0 0 19 21" width="19" xmlns="http://www.w3.org/2000/svg"><g fill="#1d1d1d"><path d="m14.3478 15.6522h-10.43476c-2.15756 0-3.91304-1.7555-3.91304-3.9131 0-1.6869 1.09948-3.18187 2.67026-3.709-.04161-.22227-.06156-.43117-.06156-.6388 0-1.33407.68423-2.56177 1.80664-3.27976-.04565-.22121-.06751-.42757-.06751-.63328 0-1.91788 1.56037-3.47826 3.47826-3.47826 1.58776 0 2.97131 1.10352 3.35811 2.62122 2.0113.16071 3.5984 1.84868 3.5984 3.90052 0 .44816-.0788.88633-.2346 1.30944 2.0648.10466 3.7129 1.81747 3.7129 3.90792 0 2.1576-1.7555 3.9131-3.9131 3.9131z"/><path d="m10.8202 10.3854-1.005 1.0049v-4.43379c0-.37818-.3066-.68478-.68478-.68478s-.68478.3066-.68478.68478v2.2599l-1.00495-1.00495c-.26747-.26747-.7009-.26747-.96836 0-.26747.26747-.26747.7009 0 .96836l1.97331 1.97328v8.4121c0 .3782.3066.6848.68478.6848s.68478-.3066.68478-.6848v-6.2382l1.9733-1.9733c.2675-.2674.2675-.7009 0-.9683-.2674-.2675-.7009-.2675-.9683 0z" stroke="#f2f3f5" stroke-width=".5"/></g></svg>