<svg fill="none" height="32" viewBox="0 0 30 32" width="30" xmlns="http://www.w3.org/2000/svg"><g fill="#1d1d1d"><path d="m17.8208 16.8995-2.2907 2.2907v-8.0597c0-.3842-.3115-.6957-.6957-.6957-.3841 0-.6956.3115-.6956.6957v4.5815l-2.2908-2.2908c-.2717-.2717-.7119-.2717-.9837 0-.2717.2717-.2717.712 0 .9837l3.2745 3.2745v13.6249c0 .3842.3115.6957.6956.6957.3842 0 .6957-.3115.6957-.6957v-10.1467l3.2744-3.2744c.2718-.2718.2718-.712 0-.9837-.2717-.2718-.7119-.2718-.9837 0z"/><path d="m15.9376 25.0435h7.2446c3.4521 0 6.2609-2.8088 6.2609-6.2609 0-3.3448-2.6369-6.0853-5.9406-6.2527.2493-.677.3754-1.3781.3754-2.0951 0-3.28297-2.5394-5.98372-5.7575-6.24085-.6189-2.42832-2.8325-4.19395-5.373-4.19395-3.06857 0-5.56518 2.4966-5.56518 5.56521 0 .32914.03499.65931.10802 1.01325-1.79585 1.14877-2.89062 3.11311-2.89062 5.24764 0 .3322.03193.6664.0985 1.0221-2.51324.8434-4.272412 3.2353-4.272412 5.9344 0 3.4521 2.808762 6.2609 6.260862 6.2609h7.24303v-7.1943l-3.148-3.145c-.4314-.431-.4317-1.13-.0008-1.5613.4309-.4314 1.13-.4317 1.5613-.0008l1.5875 1.586v-3.5922c0-.6097.4943-1.104 1.104-1.104s1.104.4943 1.104 1.104v7.0722l1.5875-1.5875c.4312-.4312 1.1302-.4312 1.5613 0 .4312.4311.4312 1.1301 0 1.5613l-2.851 2.851c-.0894.0894-.1902.1602-.2978.2125z"/></g></svg>