<svg fill="none" height="32" viewBox="0 0 33 32" width="33" xmlns="http://www.w3.org/2000/svg" xmlns:xlink="http://www.w3.org/1999/xlink"><clipPath id="a"><path d="m.608673 0h32v32h-32z"/></clipPath><g clip-path="url(#a)"><path d="m4.13851 21.4c-.95347-.0379-1.73355-.2988-2.3435-.7834-.11641-.0925-.3938-.3701-.48686-.4871-.24734-.3111-.415509-.6138-.527674-.9496-.34514-1.0338-.16751-2.3904.508084-3.8792.57845-1.2746 1.47102-2.5387 3.02824-4.2896.22938-.2576.91248-1.0111.91689-1.0111.00165 0-.03559.0645-.08244.143-.4049.6782-.75135 1.4771-.94009 2.1687-.30318 1.1097-.26661 2.062.10711 2.8005.25779.5087.69975.9493 1.19673 1.1929.87004.4263 2.14383.4616 3.69942.1032.10711-.0248 5.41418-1.4336 11.79358-3.1308 6.3795-1.6973 11.5999-3.0848 11.6007-3.0837.0018.0015-14.8212 6.3443-22.5161 9.6349-1.21859.521-1.54446.6526-2.11736.8537-1.46448.5143-2.77632.7597-3.83673.7176z" fill="#1d1d1d"/></g></svg>