<svg fill="none" height="32" viewBox="0 0 26 32" width="26" xmlns="http://www.w3.org/2000/svg"><path d="m12.7197 0c-6.6946 0-12.184136 5.48956-12.184136 12.1841 0 6.6946 5.489536 12.1841 12.184136 12.1841 6.6945 0 12.1841-5.4895 12.1841-12.1841 0-6.69454-5.4896-12.1841-12.1841-12.1841zm0 20.6193c-4.68623 0-8.43518-3.749-8.43518-8.4352 0-4.68615 3.74895-8.43509 8.43518-8.43509 4.6862 0 8.4351 3.74894 8.4351 8.43509-.1339 4.6862-3.8828 8.4352-8.4351 8.4352zm10.8452 2.6778-10.8452 4.6862-10.84522-4.6862-1.87448 3.3473 12.7197 5.3556 12.7196-5.3556z" fill="#1d1d1d"/></svg>