<svg fill="none" height="32" viewBox="0 0 27 32" width="27" xmlns="http://www.w3.org/2000/svg"><path d="m13.3283 0c-6.69452 0-12.18406 5.48956-12.18406 12.1841 0 6.6946 5.48954 12.1841 12.18406 12.1841 6.6946 0 12.1841-5.4895 12.1841-12.1841 0-6.69454-5.4895-12.1841-12.1841-12.1841zm0 20.6193c-4.68615 0-8.43511-3.749-8.43511-8.4352 0-4.68615 3.74896-8.43509 8.43511-8.43509 4.6862 0 8.4352 3.74894 8.4352 8.43509-.1339 4.6862-3.8829 8.4352-8.4352 8.4352zm10.8452 2.6778-10.8452 4.6862-10.84515-4.6862-1.874477 3.3473 12.719627 5.3556 12.7197-5.3556z" fill="#1d1d1d"/></svg>