<svg fill="none" height="32" viewBox="0 0 33 32" width="33" xmlns="http://www.w3.org/2000/svg" xmlns:xlink="http://www.w3.org/1999/xlink"><clipPath id="a"><path d="m.569099 0h32v32h-32z"/></clipPath><g clip-path="url(#a)" clip-rule="evenodd" fill="#1d1d1d" fill-rule="evenodd"><path d="m27.8357 7.23071-27.266601 17.90219s4.456811-1.4157 11.710501-4.5264c3.325-1.4249 6.5194-1.6506 7.7314.5084 1.6759 2.9832-.7811 6.1609-4.166 7.41 5.7781-.9665 10.1861-6.0487 10.1861-12.1781 0-1.9094-.4311-3.7155-1.1956-5.3279 2.2002-2.29447 3.0002-3.78819 3.0002-3.78819z"/><path d="m28.7921 6.69902c.4895.76151.8622 1.56511 1.1273 2.38968.0608-.29018.483-2.32617.483-2.32617 1.6782-1.10925 2.1669-2.56192 2.1669-2.56192s-1.5085-.13133-3.1867.97807c-.0129.00833-2.0073-.42538-2.2957-.48859.6387.57798 1.2137 1.24787 1.7052 2.00893z"/><path d="m7.65485 15.9256c3.71965-.6358 12.15255-6.00992 15.72635-7.25407-2.2312-2.84391-5.6694-4.67153-9.5322-4.67153-2.82 0-5.44716.92958-7.47708 2.60252-2.66171 2.19291-3.48544 5.46788-2.80641 7.45078.40754 1.1925 1.4024 2.3318 4.08934 1.8723z"/></g></svg>