<svg fill="none" height="32" viewBox="0 0 33 32" width="33" xmlns="http://www.w3.org/2000/svg"><g fill="#1d1d1d"><path d="m12.2136 19.3698c0 .5321.4291.9646.9611.9688l6.7987.0032c.2576-.0005.5045-.1033.6863-.286.1817-.1825.2833-.43.2825-.6876v-6.78c.0008-.2576-.1008-.505-.2825-.6876-.1818-.1826-.4287-.2854-.6863-.2859h-6.791c-.2577 0-.5048.1028-.6867.2854-.1818.1827-.2833.4304-.2821.6881z"/><path clip-rule="evenodd" d="m27.222.00000022h-21.30585c-2.95311 0-5.347058 2.39394978-5.347058 5.34704978v21.30425c0 2.9535 2.393698 5.3478 5.347058 5.3487h21.30585c2.9539 0 5.3487-2.3946 5.3487-5.3487v-21.30425c0-1.4184-.5636-2.77867-1.5667-3.78148-1.0031-1.002815-2.3636-1.56598094-3.782-1.56556978zm-.4657 24.49479978c0 .9321-.7556 1.6877-1.6877 1.6877h-16.99129c-.93206 0-1.68764-.7556-1.68764-1.6877v-16.98658c-.0004-.44786.17721-.87751.49375-1.19434s.74604-.49485 1.19389-.49485h16.98659c.9321 0 1.6877.75557 1.6877 1.68763z" fill-rule="evenodd"/></g></svg>