<svg fill="none" height="32" viewBox="0 0 33 32" width="33" xmlns="http://www.w3.org/2000/svg" xmlns:xlink="http://www.w3.org/1999/xlink"><clipPath id="a"><path d="m.225708 0h32v32h-32z"/></clipPath><g clip-path="url(#a)"><path clip-rule="evenodd" d="m15.2232 25.7856c-1.6774-1.0509-2.9138-4.6774-2.9138-8.987 0-.1582.0006-.3143.0046-.4698l.0014.002c-4.66668-.7333-8.03823-2.7423-8.12497-5.119l-.01335.028c-1.14164 1.4192-1.79353 3.06-1.79353 4.8081 0 5.1444 5.64683 9.3593 12.80965 9.7323zm-14.997492-9.3627c0-5.7556 7.163452-10.4229 15.999692-10.4229 8.8369 0 16.0003 4.6673 16.0003 10.4229 0 5.7562-7.1634 10.4236-16.0003 10.4236-8.83624 0-15.999692-4.6674-15.999692-10.4236zm16.000292-8.91895c1.7062 0 3.1574 2.58825 3.6952 6.19925l.0013-.006c3.3195-.5164 5.6428-1.7081 5.6428-3.0953 0-1.8609-4.1815-3.36818-9.3393-3.36818-5.157 0-9.3386 1.50728-9.3386 3.36818 0 1.3872 2.32332 2.5782 5.6422 3.0953l.002.006c.5377-3.611 1.989-6.19925 3.6944-6.19925zm1.0329 18.27565c7.1628-.373 12.8103-4.588 12.8103-9.7324 0-1.7481-.6526-3.3888-1.7935-4.8081l-.014-.028c-.0861 2.3767-3.4577 4.3858-8.125 5.1191l.002-.002c.0034.1554.0047.3116.0047.4697 0 4.3097-1.2371 7.9361-2.9138 8.987zm-1.0329-11.8088c.7406.0009 1.4808-.0307 2.2186-.0947-.3536-2.314-1.2137-3.94742-2.2179-3.94742s-1.8629 1.63402-2.2172 3.94802c.7373.0637 1.4764.0947 2.2165.0941zm0 8.5713c1.2845 0 2.3327-2.6729 2.3881-6.0245l.0067.0021c-1.5929.1467-3.1959.1467-4.7888 0l.0067-.0021c.0553 3.3516 1.1029 6.0245 2.3873 6.0245z" fill="#1d1d1d" fill-rule="evenodd"/></g></svg>