<svg fill="none" height="32" viewBox="0 0 33 32" width="33" xmlns="http://www.w3.org/2000/svg" xmlns:xlink="http://www.w3.org/1999/xlink"><clipPath id="a"><path d="m.569092 0h32v32h-32z"/></clipPath><g clip-path="url(#a)"><path d="m29.466 14.107c-1.8602 1.8756-5.5963 5.6059-5.5963 5.6059s.0493 2.9105-.5999 4.1862c-1.3693 2.7171-6.2374 6.5072-6.2374 6.5072l-.8352-.9086s2.5311-2.8275 2.2358-4.7046l-1.4365-9.4162c-1.4557 1.5157-2.9618 3.1875-4.5496 4.9782.0889 1.1496.042 2.3149-.4814 3.3446-1.3371 2.6247-6.06783 6.4748-6.06783 6.4748l-.80651-.8761s1.51452-1.5029 1.90342-2.5013c.17997-.4488.22432-.9433.2521-1.3693.13096-1.859-1.57684-10.5696-2.83948-17.06114-.41878-2.13755-1.30699-2.19147-1.955-2.01266-.57005.162-1.724607.57378-1.724607.57378l-.158501-.82449 9.130508-3.73843 2.4303 15.33304 4.5272-4.4658-.719-4.57132c-.1139-.75492-.3973-1.5759-1.3777-1.71853-.8735-.11882-2.4158.60949-2.4158.60949l-.3973-.98649 9.3394-4.23401 2.4662 14.95026s3.16-3.2391 3.3808-3.4889c.5773-.6361.4849-1.9058-.0564-4.59632-.1586-1.26871-.3684-2.6476-1.212-2.91278-.9375-.28922-2.53.42485-2.53.42485l-.3382-.95288 8.493-3.75547s1.2771 5.32018 1.1403 5.32018c.3756 2.72322-.0647 3.32802-.6863 4.24962-.6314.9517-2.2781 2.5372-2.2781 2.5372z" fill="#1d1d1d"/></g></svg>